<svg id="Layer_1" data-name="Layer 1" xmlns="http://www.w3.org/2000/svg" width="1920" height="1080" viewBox="0 0 1920 1080"><defs><style>.cls-1{fill:#e26713;}.cls-2{fill:#ea8b0f;}.cls-3{fill:#ffbe08;}.cls-4{fill:#fcef51;}.cls-5{fill:#e6e6e6;}.cls-12,.cls-6{fill:#b3b3b3;}.cls-7{fill:#ed1c24;}.cls-26,.cls-27,.cls-8{fill:none;}.cls-9{fill:#999;}.cls-10{fill:#bddee0;}.cls-11,.cls-13,.cls-15{fill:#ccc;}.cls-12,.cls-13{stroke:#e6e6e6;}.cls-12,.cls-13,.cls-14,.cls-15,.cls-16,.cls-17,.cls-21,.cls-22,.cls-23,.cls-24,.cls-25,.cls-26,.cls-27,.cls-28,.cls-30{stroke-miterlimit:10;}.cls-12{stroke-width:5px;}.cls-14,.cls-16,.cls-23{fill:#4d4d4d;}.cls-14,.cls-27{stroke:#ccc;}.cls-15,.cls-16,.cls-17,.cls-22,.cls-23,.cls-24,.cls-25,.cls-30{stroke:#000;}.cls-17,.cls-24{fill:#666;}.cls-18{fill:#b0f25a;}.cls-19{fill:#fff;}.cls-20{fill:#ff0;}.cls-21{fill:#fcee21;stroke:#fcee21;}.cls-21,.cls-28{stroke-width:10px;}.cls-22{fill:#333;}.cls-22,.cls-23,.cls-24,.cls-27{stroke-width:3px;}.cls-25{fill:gray;}.cls-26{stroke:gray;stroke-width:6px;}.cls-28{fill:blue;stroke:#fff;}.cls-29{fill:#c1272d;}.cls-30{stroke-width:4px;}</style></defs><title>alleelemneter</title><path class="cls-1" d="M336.88,843.72l10.54-6.7L365,833.29l17.4,1.38a49.46,49.46,0,0,1,19.14,7.9,27.17,27.17,0,0,1,7.24,5.82,27.55,27.55,0,0,1,6.11,12l3.16,6.7-8.43-3.56,3.26,13-2,16.8-9.36,16.91L398,913.58a9.5,9.5,0,0,0-.72-7.35,9,9,0,0,0-3.52-3.43q-.6,8.61-1.18,17.2l-9.78,16.5L369.9,947.12,351.81,955,349,955l4.54-11.32L351,927.36,342.11,907l-2.64-12.64L337.76,903l-6.28,4.38-.1-6.54-8.74-10.71-3-12.22,3.12-10.07,6.44-6.84,3.4-5.17-13.15,9.4,3.16-7.82Z"/><polygon class="cls-2" points="373.75 833.98 390.82 840.48 401.9 856.67 405.83 873.38 403.88 894.27 400.28 899.44 395.64 889.89 392.75 888.1 392.13 901.4 386.47 920.09 375.21 932.93 362.63 939.87 362.49 930.05 354.43 910.13 344.35 892.49 341.29 879.45 335.94 890.77 331.88 893.08 331.69 880 331.53 869.16 334.62 856.85 340.81 846.73 355.79 835.88 373.75 833.98"/><polygon class="cls-3" points="371.73 835.64 385.58 845.87 392.53 859.47 392.83 879.3 386.29 893.51 382.64 881.9 379.76 880.52 382.88 897.85 383.07 911.14 375.28 923.73 368.2 928.95 368.08 921.18 358.13 898.22 346.42 879.99 344.61 868.36 348.24 850.92 355.4 837.73 371.73 835.64"/><polygon class="cls-4" points="372.63 840.54 381.94 848.17 385.36 857.73 383.66 867.58 381.48 872.31 376.25 864.21 372.96 862.83 375.52 870.56 376.94 883.22 375.66 893.66 373.52 901.26 369.52 907.05 369.39 898.66 363.9 886.48 357.01 877.17 349.95 869.5 348.35 858.28 350.45 848.02 355.89 842.63 372.63 840.54"/><rect class="cls-5" x="191.51" y="178.55" width="99.64" height="223.24"/><rect class="cls-5" x="191.4" y="423.23" width="99.64" height="147.57"/><rect class="cls-6" x="197.75" y="401.79" width="85.77" height="21.44"/><rect class="cls-5" x="191.29" y="570.8" width="99.64" height="224.5"/><polyline class="cls-7" points="291.22 178.58 240.83 71.34 191.58 178.52"/><line class="cls-8" x1="240.85" y1="27.2" x2="240.83" y2="71.34"/><polyline class="cls-9" points="191.4 496.99 137.15 527.86 80.23 795.21 191.23 795.28"/><polyline class="cls-6" points="291.67 497.05 345.88 527.98 402.49 795.4 291.5 795.33"/><rect x="157.17" y="795.27" width="37.84" height="16.4"/><rect x="97.89" y="795.23" width="37.84" height="16.4"/><rect x="222.75" y="795.31" width="37.84" height="16.4"/><rect x="284.55" y="795.34" width="37.84" height="16.4"/><rect x="346.36" y="795.38" width="37.84" height="16.4"/><ellipse class="cls-10" cx="241.98" cy="266.84" rx="18.92" ry="36.58"/><path class="cls-1" d="M148.56,842.62,138,835.91l-17.53-3.76-17.4,1.36A49.2,49.2,0,0,0,84,841.39a27.12,27.12,0,0,0-7.25,5.81,27.57,27.57,0,0,0-6.12,12l-3.17,6.7,8.44-3.55-3.28,13,2,16.8,9.34,16.92,3.42,3.32a9.57,9.57,0,0,1,.73-7.35,9.09,9.09,0,0,1,3.54-3.42q.57,8.6,1.15,17.2l9.76,16.51L115.42,946l18.08,7.85,2.86,0-4.52-11.32,2.5-16.32,8.92-20.31,2.65-12.64,1.7,8.62,6.27,4.39.11-6.54,8.76-10.7,3.05-12.22-3.11-10.07-6.43-6.85-3.4-5.17L166,864.16l-3.15-7.82Z"/><polygon class="cls-2" points="111.7 832.83 94.62 839.31 83.52 855.49 79.58 872.2 81.5 893.09 85.09 898.26 89.75 888.72 92.64 886.92 93.24 900.23 98.88 918.93 110.13 931.78 122.69 938.73 122.85 928.92 130.94 909 141.03 891.37 144.1 878.33 149.44 889.67 153.5 891.98 153.71 878.89 153.88 868.06 150.8 855.74 144.62 845.62 129.66 834.75 111.7 832.83"/><polygon class="cls-3" points="113.72 834.5 99.85 844.71 92.89 858.3 92.57 878.13 99.09 892.34 102.75 880.75 105.64 879.36 102.5 896.69 102.29 909.98 110.07 922.58 117.14 927.8 117.27 920.04 127.24 897.09 138.98 878.87 140.8 867.24 137.19 849.8 130.04 836.6 113.72 834.5"/><polygon class="cls-4" points="112.81 839.39 103.49 847.01 100.07 856.57 101.75 866.41 103.93 871.15 109.17 863.05 112.46 861.68 109.88 869.41 108.46 882.06 109.72 892.51 111.85 900.11 115.85 905.9 115.98 897.52 121.49 885.34 128.39 876.04 135.46 868.38 137.07 857.16 134.99 846.9 129.55 841.5 112.81 839.39"/><path class="cls-1" d="M274.27,848.27l9-5.72,15-3.2,14.87,1.18a42.39,42.39,0,0,1,16.36,6.75,23.27,23.27,0,0,1,11.4,15.21l2.71,5.73-7.21-3,2.78,11.14-1.71,14.36-8,14.44L326.52,908a8.13,8.13,0,0,0-.61-6.28,7.65,7.65,0,0,0-3-2.92q-.5,7.34-1,14.69l-8.36,14.1-11,9.08L287,943.32l-2.45,0,3.88-9.67-2.13-14-7.59-17.36-2.26-10.8L275,898.94l-5.37,3.74-.08-5.59-7.47-9.15-2.6-10.44,2.67-8.61,5.5-5.84,2.91-4.42-11.24,8L262,860Z"/><polygon class="cls-2" points="305.78 839.94 320.36 845.49 329.83 859.34 333.18 873.62 331.52 891.46 328.44 895.88 324.48 887.72 322.01 886.19 321.48 897.55 316.65 913.53 307.02 924.5 296.27 930.43 296.15 922.04 289.26 905.02 280.65 889.94 278.04 878.8 273.46 888.47 270 890.45 269.83 879.27 269.7 870.01 272.34 859.48 277.63 850.84 290.42 841.57 305.78 839.94"/><polygon class="cls-3" points="304.05 841.37 315.89 850.1 321.82 861.72 322.07 878.67 316.49 890.81 313.37 880.9 310.91 879.71 313.57 894.52 313.74 905.88 307.08 916.64 301.03 921.1 300.93 914.46 292.43 894.84 282.42 879.25 280.87 869.32 283.97 854.42 290.1 843.14 304.05 841.37"/><polygon class="cls-4" points="304.81 845.55 312.77 852.07 315.69 860.24 314.24 868.65 312.38 872.7 307.91 865.77 305.1 864.59 307.29 871.2 308.5 882.02 307.4 890.95 305.58 897.44 302.16 902.38 302.05 895.22 297.35 884.8 291.47 876.85 285.43 870.3 284.07 860.71 285.86 851.94 290.51 847.33 304.81 845.55"/><path class="cls-1" d="M227.88,848.66l10.54-6.7L256,838.23l17.4,1.38a49.73,49.73,0,0,1,10.89,3.31,49,49,0,0,1,8.24,4.59,27,27,0,0,1,7.25,5.82,27.5,27.5,0,0,1,6.1,12L309,872l-8.44-3.56,3.26,13-2,16.8-9.36,16.91L289,918.52a9.5,9.5,0,0,0-.72-7.35,9.05,9.05,0,0,0-3.53-3.43q-.58,8.6-1.18,17.2l-9.77,16.5L260.9,952.06l-18.09,7.83-2.86.05,4.54-11.32L242,932.3,233.11,912l-2.64-12.64L228.75,908l-6.27,4.39-.1-6.54-8.74-10.71-3-12.23,3.13-10.06,6.44-6.85,3.4-5.16-13.15,9.4,3.15-7.82Z"/><polygon class="cls-2" points="264.75 838.92 281.82 845.41 292.9 861.61 296.82 878.32 294.88 899.21 291.28 904.37 286.64 894.83 283.75 893.03 283.13 906.34 277.47 925.03 266.21 937.87 253.63 944.81 253.49 934.99 245.42 915.07 235.35 897.43 232.29 884.38 226.94 895.71 222.88 898.02 222.69 884.93 222.53 874.1 225.62 861.78 231.81 851.67 246.78 840.82 264.75 838.92"/><polygon class="cls-3" points="262.73 840.58 276.58 850.81 283.53 864.41 283.82 884.24 277.28 898.45 273.64 886.84 270.75 885.45 273.87 902.79 274.07 916.08 266.28 928.67 259.2 933.89 259.08 926.12 249.13 903.15 237.41 884.92 235.6 873.29 239.23 855.86 246.4 842.66 262.73 840.58"/><polygon class="cls-4" points="263.63 845.48 272.94 853.11 276.35 862.67 274.66 872.51 272.48 877.25 267.25 869.15 263.95 867.76 266.52 875.5 267.93 888.15 266.66 898.6 264.52 906.2 260.51 911.99 260.39 903.6 254.89 891.41 248.01 882.11 240.94 874.44 239.35 863.22 241.44 852.96 246.89 847.56 263.63 845.48"/><path class="cls-1" d="M272.55,851.69,262,845l-17.52-3.76-17.41,1.36a50.19,50.19,0,0,0-10.89,3.3,49.12,49.12,0,0,0-8.25,4.58,27.16,27.16,0,0,0-7.25,5.81,27.62,27.62,0,0,0-6.12,12l-3.18,6.7,8.44-3.55-3.27,13,2,16.8,9.35,16.92,3.42,3.32a9.52,9.52,0,0,1,.73-7.35,9.08,9.08,0,0,1,3.53-3.42q.58,8.59,1.16,17.2l9.76,16.51,12.92,10.64,18.07,7.85,2.86.05-4.52-11.32,2.51-16.32L267.25,915l2.66-12.64,1.7,8.62,6.27,4.39.1-6.54,8.76-10.7,3.06-12.22-3.11-10.07L280.25,869l-3.39-5.17L290,873.23l-3.15-7.82Z"/><polygon class="cls-2" points="235.69 841.9 218.61 848.38 207.52 864.56 203.57 881.27 205.49 902.16 209.09 907.33 213.74 897.79 216.63 896 217.24 909.3 222.87 928 234.12 940.85 246.69 947.8 246.84 937.99 254.93 918.08 265.03 900.44 268.1 887.4 273.44 898.74 277.49 901.05 277.7 887.97 277.87 877.13 274.8 864.81 268.62 854.69 253.66 843.82 235.69 841.9"/><polygon class="cls-3" points="237.71 843.57 223.85 853.78 216.88 867.37 216.57 887.2 223.09 901.41 226.75 889.82 229.63 888.43 226.5 905.76 226.29 919.05 234.06 931.65 241.14 936.88 241.26 929.11 251.24 906.16 262.98 887.94 264.8 876.31 261.19 858.87 254.04 845.67 237.71 843.57"/><polygon class="cls-4" points="236.81 848.46 227.49 856.09 224.06 865.64 225.75 875.49 227.92 880.22 233.16 872.13 236.46 870.75 233.88 878.48 232.45 891.13 233.72 901.58 235.85 909.18 239.84 914.97 239.98 906.59 245.49 894.41 252.38 885.11 259.46 877.45 261.07 866.23 258.98 855.97 253.54 850.57 236.81 848.46"/><path class="cls-1" d="M218.68,850.24l-9-5.74-15-3.2-14.87,1.16a42.16,42.16,0,0,0-16.36,6.73,23.19,23.19,0,0,0-6.19,5,23.5,23.5,0,0,0-5.23,10.22l-2.71,5.73,7.21-3-2.8,11.14,1.7,14.35,8,14.46,2.92,2.84a8.17,8.17,0,0,1,.63-6.28,7.65,7.65,0,0,1,3-2.92l1,14.69,8.33,14.11,11,9.09,15.45,6.71,2.45,0-3.87-9.67,2.14-13.95,7.62-17.35,2.27-10.8,1.45,7.36,5.36,3.76.09-5.59,7.48-9.15,2.62-10.44-2.66-8.6-5.5-5.86-2.9-4.41,11.23,8L230.9,862Z"/><polygon class="cls-2" points="187.18 841.88 172.59 847.41 163.11 861.24 159.74 875.51 161.37 893.37 164.45 897.78 168.42 889.63 170.89 888.1 171.41 899.47 176.23 915.45 185.84 926.43 196.58 932.37 196.71 923.98 203.62 906.97 212.25 891.9 214.87 880.76 219.44 890.44 222.9 892.42 223.08 881.24 223.22 871.98 220.6 861.45 215.32 852.81 202.53 843.52 187.18 841.88"/><polygon class="cls-3" points="188.91 843.3 177.06 852.02 171.11 863.64 170.84 880.59 176.41 892.73 179.54 882.82 182.01 881.64 179.32 896.45 179.14 907.8 185.79 918.57 191.83 923.03 191.94 916.39 200.46 896.78 210.5 881.21 212.05 871.28 208.97 856.38 202.86 845.1 188.91 843.3"/><polygon class="cls-4" points="188.14 847.48 180.17 854 177.24 862.16 178.68 870.57 180.54 874.62 185.02 867.7 187.83 866.52 185.63 873.13 184.41 883.95 185.49 892.88 187.31 899.37 190.73 904.32 190.84 897.15 195.55 886.74 201.44 878.8 207.49 872.25 208.87 862.66 207.08 853.9 202.44 849.28 188.14 847.48"/><circle class="cls-11" cx="1060.5" cy="224.5" r="139"/><path class="cls-5" d="M1060.5,86a138.51,138.51,0,1,1-97.93,40.57A137.58,137.58,0,0,1,1060.5,86m0-1A139.5,139.5,0,1,0,1200,224.5,139.5,139.5,0,0,0,1060.5,85Z"/><path class="cls-12" d="M898.74,195.77c-7.06-.07-15.55-.15-21.83-.62v.22c5.8,2.1,12,4.59,18.76,7.57l23.91,10.44-.31,4.94L894.72,225c-7.26,1.95-13.89,3.56-20,4.61v.15c6.28.54,14.71,1.45,22.24,2.37l21.55,2.7-.39,6.22-50.23-6.69.52-8.3L893.37,219c6.35-1.71,12-3.08,17.31-4l0-.23c-5-1.59-10.44-3.73-16.66-6.38l-23.83-10.51.52-8.31,50.64,0-.4,6.37Z"/><path class="cls-12" d="M879.3,138.63c3.45,1.46,4.94,5.44,3.25,9.44-1.79,4.21-5.69,5.74-9,4.33s-5.17-5.29-3.35-9.57S875.85,137.17,879.3,138.63ZM875,148.88a3.74,3.74,0,0,0,4.92-1.82,4,4,0,0,0-7.32-3.1C871.73,146.1,873,148,875,148.88Zm37.54,21.94,12.59,11-2.64,6.21-39.84-35.54,3.08-7.25L939,149.13l-2.72,6.42-16.75-1.23Zm1.77-17.25L899,152.45c-3.48-.25-6.53-.73-9.52-1.19l-.06.14c2.47,1.86,5,3.82,7.43,5.92l11.54,10.27Z"/><path class="cls-12" d="M941.33,146.08l-38.32-33,4.65-5.4,30,4.4A142.47,142.47,0,0,1,956,115.94l0-.16c-5.51-4-10.27-7.85-16.24-13l-16-13.8,4-4.66,38.32,33-4.31,5-29.91-4.56a162.65,162.65,0,0,1-19-3.84l-.09.22c5.07,3.87,9.78,7.72,16.14,13.2l16.38,14.08Z"/><path class="cls-12" d="M981.65,78.49,965.21,89.25l10,15.25,18.33-12,3,4.58-23.78,15.57L945,70.36l22.85-15,3,4.59L953.5,71.37l8.75,13.36L978.69,74Z"/><path class="cls-12" d="M1024,63.68l1.36,4.68-17.78,5.19-1.37-4.68Z"/><path class="cls-12" d="M1049.54,74.33a23.1,23.1,0,0,0,11.65,3.48c6.67.11,10.63-3.35,10.71-8.45.07-4.73-2.58-7.47-9.36-10.2-8.21-3.06-13.24-7.41-13.12-14.54.12-7.87,6.74-13.62,16.56-13.46a23,23,0,0,1,11.14,2.65l-1.89,5.3a20,20,0,0,0-9.56-2.55c-6.9-.11-9.59,4-9.64,7.42-.08,4.72,3,7.1,9.89,9.91,8.5,3.43,12.78,7.63,12.66,15-.12,7.8-6,14.46-17.93,14.27-4.87-.08-10.17-1.59-12.84-3.43Z"/><path class="cls-12" d="M1097.29,35.48a75.46,75.46,0,0,1,12.34,2.34c6.23,1.68,10.39,4.37,12.58,7.76a13.57,13.57,0,0,1,1.51,11.36c-1.2,4.42-3.44,7.54-6.59,9.4-4.29,2.65-10.21,3-16.36,1.32a22.22,22.22,0,0,1-5-1.81l-5.3,19.55-6.29-1.71Zm-.08,25.24a21.81,21.81,0,0,0,5.08,1.91c7.6,2.06,13.23-.37,15-7.11,1.75-6.44-2-10.79-8.92-12.67a27.41,27.41,0,0,0-6.07-1.1Z"/><path class="cls-12" d="M1147.8,52.63l-22,45.5-5.87-2.85,22-45.49Z"/><path class="cls-12" d="M1163.65,61.2l5.29,3.82-26.36,36.56,17.52,12.64-3.2,4.44-22.82-16.45Z"/><path class="cls-12" d="M1198,88.86l4.28,4.93-34,29.56,14.17,16.3-4.14,3.59L1159.87,122Z"/><path class="cls-12" d="M1213.62,159.34l-9.12-17.41-16.14,8.46,10.16,19.4-4.85,2.54-13.19-25.18,44.78-23.46,12.67,24.19-4.85,2.54L1223.44,132l-14.15,7.41,9.12,17.41Z"/><path class="cls-12" d="M1241.72,177.65l-3.56-15,5.4-1.28,8.66,36.41-5.4,1.28-3.58-15-43.78,10.41-1.52-6.42Z"/><ellipse class="cls-13" cx="1159.5" cy="178.5" rx="21" ry="31"/><circle class="cls-13" cx="1016.5" cy="319.5" r="21"/><ellipse class="cls-13" cx="1138.5" cy="298.5" rx="17" ry="27"/><circle class="cls-13" cx="1038" cy="268" r="22.5"/><circle class="cls-13" cx="959" cy="281" r="12.5"/><circle class="cls-13" cx="1061" cy="210" r="12.5"/><ellipse class="cls-13" cx="1104.5" cy="254.5" rx="17" ry="26"/><circle class="cls-13" cx="981" cy="220" r="9.5"/><ellipse class="cls-13" cx="1001.5" cy="156" rx="15" ry="26.5"/><ellipse class="cls-13" cx="1087.5" cy="140" rx="12" ry="26.5"/><polygon class="cls-14" points="1010.5 185.5 1010.5 274.5 1140.5 229.5 1010.5 185.5"/><path class="cls-5" d="M1321.37,420.2c19.43,6.6,29.73-2.71,55.34,6.86a124.77,124.77,0,0,1,28.43,15c33.41-2.76,62.74,13,72.84,37.63,6.75,16.48,3,32.41.81,39.66,3.93.12,27.4,1.17,42.49,19.83,15.21,18.81,15.64,47.78,0,70.82H1193.89c-20.62,3.27-51,4.19-80.94-10.52-3.77-1.86-42.39-21.23-39.65-39.66,1.39-9.38,12.18-9.62,22.66-24.28,11.28-15.79,4.35-23.33,12.54-42.49,9.6-22.45,33.13-44.91,59.49-52.21,11.12-3.08,17.89-2.11,25.9-8.9,11.38-9.64,8.16-20.41,16.19-32.37,11.78-17.57,40.21-26.39,61.11-20.64C1297.11,386.06,1292.69,410.47,1321.37,420.2Z"/><circle class="cls-15" cx="1346.5" cy="185.5" r="68"/><rect class="cls-16" x="1303.5" y="155.5" width="26" height="60"/><rect class="cls-17" x="1358.5" y="155.5" width="26" height="60"/><circle class="cls-15" cx="1594.5" cy="185.5" r="68"/><rect class="cls-17" x="1563.5" y="165.5" width="26" height="43"/><polyline class="cls-17" points="1601.5 214 1601.5 164 1628.5 145 1628.5 214 1628.5 225"/><circle class="cls-18" cx="1814.5" cy="561.5" r="30.5"/><ellipse class="cls-18" cx="1701.5" cy="426.5" rx="194.5" ry="150.5"/><circle class="cls-18" cx="1592.5" cy="561.5" r="30.5"/><ellipse class="cls-19" cx="1796.5" cy="376.5" rx="34" ry="28"/><ellipse class="cls-19" cx="1780" cy="374.5" rx="4.5" ry="9"/><path d="M1780,366c1.89,0,4,3.49,4,8.5s-2.11,8.5-4,8.5-4-3.49-4-8.5,2.11-8.5,4-8.5m0-1c-2.76,0-5,4.25-5,9.5s2.24,9.5,5,9.5,5-4.25,5-9.5-2.24-9.5-5-9.5Z"/><ellipse class="cls-19" cx="1804.5" cy="380.5" rx="3" ry="7"/><path d="M1804.5,374c1,0,2.5,2.53,2.5,6.5s-1.48,6.5-2.5,6.5-2.5-2.53-2.5-6.5,1.48-6.5,2.5-6.5m0-1c-1.93,0-3.5,3.36-3.5,7.5s1.57,7.5,3.5,7.5,3.5-3.36,3.5-7.5-1.57-7.5-3.5-7.5Z"/><ellipse cx="1796.5" cy="376" rx="27" ry="22.5"/><path d="M1796.5,354c14.61,0,26.5,9.87,26.5,22s-11.89,22-26.5,22-26.5-9.87-26.5-22,11.89-22,26.5-22m0-1c-15.19,0-27.5,10.3-27.5,23s12.31,23,27.5,23,27.5-10.3,27.5-23-12.31-23-27.5-23Z"/><ellipse class="cls-19" cx="1785" cy="373" rx="5.5" ry="9.5"/><path d="M1785,364c2.71,0,5,4.12,5,9s-2.29,9-5,9-5-4.12-5-9,2.29-9,5-9m0-1c-3.31,0-6,4.48-6,10s2.69,10,6,10,6-4.48,6-10-2.69-10-6-10Z"/><circle class="cls-19" cx="1804.5" cy="376.5" r="7"/><path d="M1804.5,370a6.5,6.5,0,1,1-6.5,6.5,6.51,6.51,0,0,1,6.5-6.5m0-1a7.5,7.5,0,1,0,7.5,7.5,7.5,7.5,0,0,0-7.5-7.5Z"/><ellipse class="cls-19" cx="1604.5" cy="376.5" rx="34" ry="28"/><ellipse class="cls-19" cx="1588" cy="374.5" rx="4.5" ry="9"/><path d="M1588,366c1.89,0,4,3.49,4,8.5s-2.11,8.5-4,8.5-4-3.49-4-8.5,2.11-8.5,4-8.5m0-1c-2.76,0-5,4.25-5,9.5s2.24,9.5,5,9.5,5-4.25,5-9.5-2.24-9.5-5-9.5Z"/><ellipse class="cls-19" cx="1612.5" cy="380.5" rx="3" ry="7"/><path d="M1612.5,374c1,0,2.5,2.53,2.5,6.5s-1.48,6.5-2.5,6.5-2.5-2.53-2.5-6.5,1.48-6.5,2.5-6.5m0-1c-1.93,0-3.5,3.36-3.5,7.5s1.57,7.5,3.5,7.5,3.5-3.36,3.5-7.5-1.57-7.5-3.5-7.5Z"/><ellipse cx="1604.5" cy="376" rx="27" ry="22.5"/><path d="M1604.5,354c14.61,0,26.5,9.87,26.5,22s-11.89,22-26.5,22-26.5-9.87-26.5-22,11.89-22,26.5-22m0-1c-15.19,0-27.5,10.3-27.5,23s12.31,23,27.5,23,27.5-10.3,27.5-23-12.31-23-27.5-23Z"/><ellipse class="cls-19" cx="1593" cy="373" rx="5.5" ry="9.5"/><path d="M1593,364c2.71,0,5,4.12,5,9s-2.29,9-5,9-5-4.12-5-9,2.29-9,5-9m0-1c-3.31,0-6,4.48-6,10s2.69,10,6,10,6-4.48,6-10-2.69-10-6-10Z"/><circle class="cls-19" cx="1612.5" cy="376.5" r="7"/><path d="M1612.5,370a6.5,6.5,0,1,1-6.5,6.5,6.51,6.51,0,0,1,6.5-6.5m0-1a7.5,7.5,0,1,0,7.5,7.5,7.5,7.5,0,0,0-7.5-7.5Z"/><path d="M1734,391c0,17.67-17,32-38,32s-38-14.33-38-32,17,23,38,23S1734,373.33,1734,391Z"/><polygon class="cls-20" points="1391.53 727.07 1363.88 717.37 1340.22 734.65 1340.9 705.36 1317.16 688.19 1345.22 679.79 1354.21 651.9 1370.88 676 1400.18 675.93 1382.41 699.23 1391.53 727.07"/><polygon class="cls-21" points="1524 701.07 1497.45 682.52 1479.75 641.7 1462.06 686.23 1426.66 701.07 1462.06 715.92 1476.8 745.61 1482.7 760.45 1497.45 715.92 1524 701.07"/><rect class="cls-22" x="497.5" y="1041.5" width="780" height="27"/><rect class="cls-23" x="551.5" y="955.5" width="86" height="86"/><rect class="cls-23" x="719.5" y="955.5" width="86" height="86"/><rect class="cls-23" x="960.5" y="955.5" width="86" height="86"/><rect class="cls-23" x="1132.5" y="955.5" width="86" height="86"/><rect class="cls-24" x="513.5" y="937.5" width="739" height="18"/><rect class="cls-25" x="513.5" y="921.5" width="345" height="16"/><rect class="cls-26" x="579.5" y="804.5" width="117" height="117"/><rect class="cls-26" x="694.5" y="804.5" width="117" height="117"/><rect class="cls-26" x="579.5" y="686.5" width="117" height="117"/><rect class="cls-26" x="694.5" y="686.5" width="117" height="117"/><rect class="cls-26" x="694.5" y="569.5" width="117" height="117"/><rect class="cls-26" x="694.5" y="451.5" width="117" height="117"/><rect class="cls-26" x="694.5" y="333.5" width="117" height="117"/><line class="cls-26" x1="579.5" y1="686.5" x2="694.5" y2="568.5"/><polygon class="cls-26" points="694.5 333.5 811.5 221.5 811.5 333.5 694.5 333.5"/><line class="cls-26" x1="753" y1="277.5" x2="811.5" y2="333.5"/><polygon class="cls-26" points="694.5 447.5 811.5 335.5 811.5 447.5 694.5 447.5"/><line class="cls-26" x1="753" y1="391.5" x2="811.5" y2="447.5"/><polygon class="cls-26" points="694.5 565.5 811.5 453.5 811.5 565.5 694.5 565.5"/><line class="cls-26" x1="753" y1="509.5" x2="811.5" y2="565.5"/><polygon class="cls-26" points="694.5 682.5 811.5 570.5 811.5 682.5 694.5 682.5"/><line class="cls-26" x1="753" y1="626.5" x2="811.5" y2="682.5"/><polygon class="cls-26" points="694.5 799.5 811.5 687.5 811.5 799.5 694.5 799.5"/><line class="cls-26" x1="753" y1="743.5" x2="811.5" y2="799.5"/><polygon class="cls-26" points="694.5 916.5 811.5 804.5 811.5 916.5 694.5 916.5"/><line class="cls-26" x1="753" y1="860.5" x2="811.5" y2="916.5"/><polygon class="cls-26" points="578.5 684.5 695.5 572.5 695.5 684.5 578.5 684.5"/><line class="cls-26" x1="637" y1="628.5" x2="695.5" y2="684.5"/><polygon class="cls-26" points="578.5 801.5 695.5 689.5 695.5 801.5 578.5 801.5"/><line class="cls-26" x1="637" y1="745.5" x2="695.5" y2="801.5"/><polygon class="cls-26" points="578.5 916.5 695.5 804.5 695.5 916.5 578.5 916.5"/><line class="cls-26" x1="637" y1="860.5" x2="695.5" y2="916.5"/><polygon class="cls-27" points="994.81 617.5 811.5 617.5 811.5 549.5 864.83 549.5 994.81 549.5 994.81 617.5"/><line class="cls-27" x1="811.5" y1="617.5" x2="875.2" y2="546.79"/><line class="cls-27" x1="868.25" y1="618.5" x2="931.94" y2="547.79"/><line class="cls-27" x1="928.6" y1="618.5" x2="992.3" y2="547.79"/><line class="cls-27" x1="876.1" y1="618.5" x2="812.4" y2="547.79"/><line class="cls-27" x1="937.35" y1="618.5" x2="873.65" y2="547.79"/><line class="cls-27" x1="995" y1="621.5" x2="931.3" y2="550.79"/><polygon class="cls-27" points="994.81 425.5 811.5 425.5 811.5 357.5 864.83 357.5 994.81 357.5 994.81 425.5"/><line class="cls-27" x1="811.5" y1="425.5" x2="875.2" y2="354.79"/><line class="cls-27" x1="868.25" y1="426.5" x2="931.94" y2="355.79"/><line class="cls-27" x1="928.6" y1="426.5" x2="992.3" y2="355.79"/><line class="cls-27" x1="876.1" y1="426.5" x2="812.4" y2="355.79"/><line class="cls-27" x1="937.35" y1="426.5" x2="873.65" y2="355.79"/><line class="cls-27" x1="995" y1="429.5" x2="931.3" y2="358.79"/><path class="cls-1" d="M1464.9,1036.24l-17,10.58-28.13,5.74L1392,1050.1a79.07,79.07,0,0,1-30.54-12.91,43.65,43.65,0,0,1-11.52-9.43,44.19,44.19,0,0,1-9.61-19.27l-5-10.77,13.46,5.81-5-20.93,3.44-26.88,15.23-26.94,5.54-5.28a15.31,15.31,0,0,0,1,11.79,14.53,14.53,0,0,0,5.6,5.53l2.13-27.52,15.89-26.3,20.86-16.82,29.07-12.3,4.59,0-7.43,18.06,3.76,26.18,14,32.67,4,20.28,2.86-13.78,10.11-6.93.07,10.48,13.86,17.27,4.7,19.62-5.14,16.08-10.42,10.87-5.52,8.22,21.2-14.86-5.16,12.47Z"/><polygon class="cls-2" points="1405.72 1051.33 1378.47 1040.69 1360.96 1014.59 1354.9 987.77 1358.3 954.35 1364.15 946.13 1371.44 961.47 1376.05 964.39 1377.23 943.1 1386.55 913.24 1404.76 892.83 1425 881.9 1425.1 897.62 1437.73 929.63 1453.63 958.03 1458.34 978.96 1467.07 960.9 1473.6 957.26 1473.72 978.22 1473.83 995.57 1468.71 1015.25 1458.65 1031.36 1434.52 1048.54 1405.72 1051.33"/><polygon class="cls-3" points="1408.98 1048.69 1386.93 1032.12 1375.99 1010.24 1375.8 978.48 1386.47 955.82 1392.15 974.45 1396.75 976.71 1392 948.9 1391.87 927.62 1404.53 907.56 1415.94 899.31 1416.01 911.75 1431.63 948.67 1450.14 978.03 1452.88 996.68 1446.82 1024.56 1435.16 1045.59 1408.98 1048.69"/><polygon class="cls-4" points="1407.61 1040.84 1392.8 1028.48 1387.47 1013.12 1390.32 997.38 1393.88 989.83 1402.14 1002.88 1407.4 1005.14 1403.39 992.72 1401.31 972.43 1403.5 955.71 1407.03 943.57 1413.52 934.37 1413.6 947.79 1422.24 967.39 1433.13 982.39 1444.34 994.77 1446.74 1012.76 1443.24 1029.16 1434.45 1037.73 1407.61 1040.84"/><polygon class="cls-28" points="1283.91 832 960 832 977.09 736 1301 736 1283.91 832"/><path class="cls-7" d="M1017.9,755.44h47.53V814.3H1017.9ZM1031.41,769v16.17L1047.62,769Zm20.47,17.27-14.53,14.57h14.57Z"/><path class="cls-7" d="M1073.52,755.44h47.54V814.3h-47.54ZM1087,769v16.17L1103.25,769Zm20.46,17.27L1093,800.79h14.57Z"/><path class="cls-7" d="M1129.15,767.55h11.71v11.71h-11.71Zm0,35.15h11.71v11.72h-11.71Z"/><path class="cls-7" d="M1149,755.44h47.54v36.17h-34v9.18h34V814.3H1149V778.13h34V769h-34Z"/><path class="cls-7" d="M1204.81,755.44h24.84V814.3h-13.51V769h-11.33Z"/><polygon class="cls-7" points="466.5 161.5 478.5 150.5 552.5 231.5 540.5 243.5 466.5 161.5"/><polygon class="cls-7" points="552.5 161.5 540.5 150.5 466.5 231.5 478.5 243.5 552.5 161.5"/><circle class="cls-20" cx="1827.5" cy="950.5" r="30.5"/><ellipse class="cls-20" cx="1714.5" cy="815.5" rx="194.5" ry="150.5"/><circle class="cls-20" cx="1605.5" cy="950.5" r="30.5"/><ellipse class="cls-19" cx="1809.5" cy="765.5" rx="34" ry="28"/><ellipse class="cls-19" cx="1793" cy="763.5" rx="4.5" ry="9"/><path d="M1793,755c1.89,0,4,3.49,4,8.5s-2.11,8.5-4,8.5-4-3.49-4-8.5,2.11-8.5,4-8.5m0-1c-2.76,0-5,4.25-5,9.5s2.24,9.5,5,9.5,5-4.25,5-9.5-2.24-9.5-5-9.5Z"/><ellipse class="cls-19" cx="1817.5" cy="769.5" rx="3" ry="7"/><path d="M1817.5,763c1,0,2.5,2.53,2.5,6.5s-1.48,6.5-2.5,6.5-2.5-2.53-2.5-6.5,1.48-6.5,2.5-6.5m0-1c-1.93,0-3.5,3.36-3.5,7.5s1.57,7.5,3.5,7.5,3.5-3.36,3.5-7.5-1.57-7.5-3.5-7.5Z"/><ellipse class="cls-29" cx="1809.5" cy="765" rx="27.5" ry="23"/><ellipse class="cls-19" cx="1798" cy="762" rx="6" ry="10"/><circle class="cls-19" cx="1817.5" cy="765.5" r="7.5"/><ellipse class="cls-19" cx="1617.5" cy="765.5" rx="34" ry="28"/><ellipse class="cls-19" cx="1601" cy="763.5" rx="5" ry="9.5"/><ellipse class="cls-19" cx="1625.5" cy="769.5" rx="3.5" ry="7.5"/><ellipse class="cls-29" cx="1617.5" cy="765" rx="27.5" ry="23"/><ellipse class="cls-19" cx="1606" cy="762" rx="6" ry="10"/><circle class="cls-19" cx="1625.5" cy="765.5" r="7.5"/><line class="cls-30" x1="1632.5" y1="715.5" x2="1660.5" y2="741.5"/><line class="cls-30" x1="1775.5" y1="741.5" x2="1804.5" y2="715.5"/><path d="M1677,801.51c0-17.67,17-32,38-32s38,14.36,38,32-17-23-38-23S1677,819.19,1677,801.51Z"/></svg>
