<svg id="Layer_1" data-name="Layer 1" xmlns="http://www.w3.org/2000/svg" width="454" height="404" viewBox="0 0 454 404"><defs><style>.cls-1{fill:#e26713;}.cls-2{fill:#ea8b0f;}.cls-3{fill:#ffbe08;}.cls-4{fill:#fcef51;}</style></defs><title>Artboard 17</title><path class="cls-1" d="M265.9,293.24l-17,10.58-28.13,5.74L193,307.1a79.07,79.07,0,0,1-30.54-12.91,43.65,43.65,0,0,1-11.52-9.43,44.19,44.19,0,0,1-9.61-19.27l-5-10.77,13.46,5.81-5-20.93,3.44-26.88,15.23-26.94,5.54-5.28A15.31,15.31,0,0,0,170,192.29a14.53,14.53,0,0,0,5.6,5.53l2.13-27.52L193.61,144l20.86-16.82,29.07-12.3,4.59,0-7.43,18.06,3.76,26.18,14,32.67L262.47,212l2.86-13.78,10.11-6.93.07,10.48,13.86,17.27,4.7,19.62-5.14,16.08-10.42,10.87L273,273.87,294.19,259,289,271.48Z"/><polygon class="cls-2" points="206.72 308.33 179.47 297.69 161.96 271.59 155.9 244.77 159.3 211.35 165.15 203.13 172.44 218.47 177.05 221.39 178.23 200.1 187.55 170.24 205.76 149.82 226 138.9 226.1 154.62 238.74 186.63 254.63 215.03 259.34 235.96 268.07 217.9 274.6 214.26 274.73 235.22 274.83 252.57 269.71 272.25 259.65 288.36 235.52 305.54 206.72 308.33"/><polygon class="cls-3" points="209.98 305.69 187.94 289.12 177 267.24 176.8 235.48 187.47 212.81 193.16 231.45 197.75 233.71 193 205.91 192.87 184.62 205.53 164.56 216.94 156.31 217.01 168.75 232.63 205.67 251.14 235.03 253.88 253.68 247.82 281.56 236.16 302.58 209.98 305.69"/><polygon class="cls-4" points="208.61 297.84 193.8 285.48 188.47 270.12 191.32 254.38 194.88 246.83 203.14 259.88 208.4 262.14 204.39 249.72 202.31 229.43 204.5 212.71 208.03 200.57 214.52 191.37 214.6 204.79 223.24 224.39 234.13 239.39 245.34 251.77 247.74 269.76 244.24 286.16 235.45 294.73 208.61 297.84"/></svg>