<svg xmlns="http://www.w3.org/2000/svg" xmlns:xlink="http://www.w3.org/1999/xlink" width="1920" height="1080" viewBox="0 0 1920 1080"><defs><style>.cls-1{fill:url(#linear-gradient);}.cls-2{fill:#e6e6e6;}.cls-3{fill:#ff0;}.cls-4{fill:#333;}.cls-10,.cls-4,.cls-5,.cls-6,.cls-7{stroke:#000;}.cls-10,.cls-11,.cls-4,.cls-5,.cls-6,.cls-7,.cls-8,.cls-9{stroke-miterlimit:10;}.cls-4,.cls-5,.cls-6,.cls-9{stroke-width:3px;}.cls-5{fill:#4d4d4d;}.cls-6{fill:#666;}.cls-7{fill:gray;}.cls-8,.cls-9{fill:none;}.cls-8{stroke:gray;stroke-width:6px;}.cls-9{stroke:#ccc;}.cls-10{fill:#f4f4f4;stroke-width:2px;opacity:0.42;}.cls-11{fill:#fcee21;stroke:#fcee21;stroke-width:10px;}</style><linearGradient id="linear-gradient" x1="960.45" y1="683" x2="958.2" y2="-49.82" gradientUnits="userSpaceOnUse"><stop offset="0" stop-color="blue"/><stop offset="0.91"/></linearGradient></defs><title>Artboard 1</title><g id="Layer_1" data-name="Layer 1"><rect class="cls-1" x="0.5" y="0.5" width="1919" height="1073"/><path class="cls-2" d="M1919,1V1073H1V1H1919m1-1H0V1074H1920V0Z"/><polygon class="cls-3" points="829.24 277.08 817.83 273.08 808.06 280.21 808.34 268.12 798.54 261.03 810.13 257.56 813.84 246.05 820.72 256 832.81 255.97 825.48 265.59 829.24 277.08"/><polygon class="cls-3" points="1034.24 137.08 1022.83 133.08 1013.06 140.21 1013.34 128.12 1003.54 121.03 1015.13 117.56 1018.84 106.05 1025.72 116 1037.81 115.97 1030.48 125.59 1034.24 137.08"/><polygon class="cls-3" points="672.24 347.08 660.83 343.08 651.06 350.21 651.34 338.12 641.54 331.03 653.13 327.56 656.84 316.05 663.72 326 675.81 325.97 668.48 335.59 672.24 347.08"/><polygon class="cls-3" points="1157.24 238.08 1145.83 234.08 1136.06 241.21 1136.34 229.12 1126.54 222.03 1138.13 218.56 1141.84 207.05 1148.72 217 1160.81 216.97 1153.48 226.59 1157.24 238.08"/><polygon class="cls-3" points="101.24 396.08 89.83 392.08 80.06 399.21 80.34 387.12 70.54 380.03 82.13 376.56 85.84 365.05 92.72 375 104.81 374.97 97.48 384.59 101.24 396.08"/><polygon class="cls-3" points="1417.24 154.08 1405.83 150.08 1396.06 157.21 1396.34 145.12 1386.54 138.03 1398.13 134.56 1401.84 123.05 1408.72 133 1420.81 132.97 1413.48 142.59 1417.24 154.08"/><polygon class="cls-3" points="1472.24 291.08 1460.83 287.08 1451.06 294.21 1451.34 282.12 1441.54 275.03 1453.13 271.56 1456.84 260.05 1463.72 270 1475.81 269.97 1468.48 279.59 1472.24 291.08"/><polygon class="cls-3" points="1707.43 212.24 1699.01 208.62 1692 214.52 1691.98 204.22 1684.69 198 1693.1 195.25 1695.6 185.51 1700.81 194.12 1709.65 194.31 1704.47 202.38 1707.43 212.24"/><rect class="cls-4" x="688.47" y="1045.7" width="832.03" height="28.8"/><rect class="cls-5" x="746.07" y="953.96" width="91.74" height="91.74"/><rect class="cls-5" x="925.28" y="953.96" width="91.74" height="91.74"/><rect class="cls-5" x="1182.35" y="953.96" width="91.74" height="91.74"/><rect class="cls-5" x="1365.83" y="953.96" width="91.74" height="91.74"/><rect class="cls-6" x="705.54" y="934.76" width="788.3" height="19.2"/><rect class="cls-7" x="705.54" y="917.69" width="368.01" height="17.07"/><rect class="cls-8" x="775.94" y="792.89" width="124.8" height="124.8"/><rect class="cls-8" x="898.61" y="792.89" width="124.8" height="124.8"/><rect class="cls-8" x="775.94" y="667.02" width="124.8" height="124.8"/><rect class="cls-8" x="898.61" y="667.02" width="124.8" height="124.8"/><rect class="cls-8" x="898.61" y="542.21" width="124.8" height="124.8"/><rect class="cls-8" x="898.61" y="416.34" width="124.8" height="124.8"/><rect class="cls-8" x="898.61" y="290.47" width="124.8" height="124.8"/><line class="cls-8" x1="775.94" y1="667.02" x2="898.61" y2="541.15"/><polygon class="cls-8" points="898.61 290.47 1023.41 171 1023.41 290.47 898.61 290.47"/><line class="cls-8" x1="961.01" y1="230.74" x2="1023.41" y2="290.47"/><polygon class="cls-8" points="898.61 412.08 1023.41 292.6 1023.41 412.08 898.61 412.08"/><line class="cls-8" x1="961.01" y1="352.34" x2="1023.41" y2="412.08"/><polygon class="cls-8" points="898.61 537.95 1023.41 418.48 1023.41 537.95 898.61 537.95"/><line class="cls-8" x1="961.01" y1="478.21" x2="1023.41" y2="537.95"/><polygon class="cls-8" points="898.61 662.75 1023.41 543.28 1023.41 662.75 898.61 662.75"/><line class="cls-8" x1="961.01" y1="603.02" x2="1023.41" y2="662.75"/><polygon class="cls-8" points="898.61 787.56 1023.41 668.09 1023.41 787.56 898.61 787.56"/><line class="cls-8" x1="961.01" y1="727.82" x2="1023.41" y2="787.56"/><polygon class="cls-8" points="898.61 912.36 1023.41 792.89 1023.41 912.36 898.61 912.36"/><line class="cls-8" x1="961.01" y1="852.63" x2="1023.41" y2="912.36"/><polygon class="cls-8" points="774.87 664.88 899.68 545.41 899.68 664.88 774.87 664.88"/><line class="cls-8" x1="837.27" y1="605.15" x2="899.68" y2="664.88"/><polygon class="cls-8" points="774.87 789.69 899.68 670.22 899.68 789.69 774.87 789.69"/><line class="cls-8" x1="837.27" y1="729.95" x2="899.68" y2="789.69"/><polygon class="cls-8" points="774.87 912.36 899.68 792.89 899.68 912.36 774.87 912.36"/><line class="cls-8" x1="837.27" y1="852.63" x2="899.68" y2="912.36"/><polygon class="cls-9" points="1218.95 593.42 1023.41 593.42 1023.41 520.88 1080.31 520.88 1218.95 520.88 1218.95 593.42"/><line class="cls-9" x1="1023.41" y1="593.42" x2="1091.36" y2="517.99"/><line class="cls-9" x1="1083.95" y1="594.48" x2="1151.89" y2="519.05"/><line class="cls-9" x1="1148.33" y1="594.48" x2="1216.27" y2="519.05"/><line class="cls-9" x1="1092.32" y1="594.48" x2="1024.38" y2="519.05"/><line class="cls-9" x1="1157.66" y1="594.48" x2="1089.72" y2="519.05"/><line class="cls-9" x1="1219.16" y1="597.68" x2="1151.21" y2="522.25"/><polygon class="cls-9" points="1218.95 388.61 1023.41 388.61 1023.41 316.07 1080.31 316.07 1218.95 316.07 1218.95 388.61"/><line class="cls-9" x1="1023.41" y1="388.61" x2="1091.36" y2="313.18"/><line class="cls-9" x1="1083.95" y1="389.67" x2="1151.89" y2="314.25"/><line class="cls-9" x1="1148.33" y1="389.67" x2="1216.27" y2="314.25"/><line class="cls-9" x1="1092.32" y1="389.67" x2="1024.38" y2="314.25"/><line class="cls-9" x1="1157.66" y1="389.67" x2="1089.72" y2="314.25"/><line class="cls-9" x1="1219.16" y1="392.87" x2="1151.21" y2="317.45"/><polygon class="cls-3" points="495.24 449.08 483.83 445.08 474.06 452.21 474.34 440.12 464.54 433.03 476.13 429.56 479.84 418.05 486.72 428 498.81 427.97 491.48 437.59 495.24 449.08"/><polygon class="cls-3" points="159.24 116.08 147.83 112.08 138.06 119.21 138.34 107.12 128.54 100.03 140.13 96.56 143.84 85.05 150.72 95 162.81 94.97 155.48 104.59 159.24 116.08"/><polygon class="cls-3" points="431.24 66.08 419.83 62.08 410.06 69.21 410.34 57.12 400.54 50.03 412.13 46.56 415.84 35.05 422.72 45 434.81 44.97 427.48 54.59 431.24 66.08"/></g><g id="Layer_3" data-name="Layer 3"><path class="cls-10" d="M156.54,435.89c11.07,3.76,16.94-1.55,31.52,3.91a70.5,70.5,0,0,1,16.19,8.54c19-1.57,35.74,7.4,41.5,21.44,3.84,9.38,1.74,18.45.46,22.59,2.23.06,15.61.66,24.2,11.29s8.91,27.22,0,40.34H83.93c-11.75,1.86-29.05,2.39-46.1-6-2.15-1.06-24.15-12.1-22.59-22.59.79-5.35,6.94-5.48,12.9-13.83,6.43-9,2.49-13.29,7.15-24.21,5.47-12.78,18.87-25.58,33.89-29.73,6.33-1.76,10.18-1.21,14.75-5.07,6.48-5.49,4.65-11.63,9.22-18.44,6.71-10,22.9-15,34.81-11.76C142.72,416.44,140.21,430.35,156.54,435.89Z"/><polygon class="cls-11" points="616.5 103.5 607.5 98.5 601.5 87.5 595.5 99.5 583.5 103.5 595.5 107.5 600.5 115.5 602.5 119.5 607.5 107.5 616.5 103.5"/><path class="cls-10" d="M1551.54,115.89c11.07,3.76,16.94-1.55,31.52,3.91a70.5,70.5,0,0,1,16.19,8.54c19-1.57,35.74,7.4,41.5,21.44,3.84,9.38,1.74,18.45.46,22.59,2.23.06,15.61.66,24.2,11.29s8.91,27.22,0,40.34H1478.93c-11.75,1.86-29,2.39-46.1-6-2.15-1.06-24.15-12.1-22.59-22.59.79-5.35,6.94-5.48,12.9-13.83,6.43-9,2.49-13.29,7.15-24.21,5.47-12.78,18.87-25.58,33.89-29.73,6.33-1.76,10.18-1.21,14.75-5.07,6.48-5.49,4.65-11.63,9.22-18.44,6.71-10,22.9-15,34.81-11.76C1537.72,96.44,1535.21,110.35,1551.54,115.89Z"/><path class="cls-10" d="M820.54,59.89c11.07,3.76,16.94-1.55,31.52,3.91a70.5,70.5,0,0,1,16.19,8.54c19-1.57,35.74,7.4,41.5,21.44,3.84,9.38,1.74,18.45.46,22.59,2.23.06,15.61.66,24.2,11.29s8.91,27.22,0,40.34H747.93c-11.75,1.86-29,2.39-46.1-6-2.15-1.06-24.15-12.1-22.59-22.59.79-5.35,6.94-5.48,12.9-13.83,6.43-9,2.49-13.29,7.15-24.21,5.47-12.78,18.87-25.58,33.89-29.73,6.33-1.76,10.18-1.21,14.75-5.07,6.48-5.49,4.65-11.63,9.22-18.44,6.71-10,22.9-15,34.81-11.76C806.72,40.44,804.21,54.35,820.54,59.89Z"/></g></svg>