<svg id="Layer_1" data-name="Layer 1" xmlns="http://www.w3.org/2000/svg" xmlns:xlink="http://www.w3.org/1999/xlink" width="1080" height="1920" viewBox="0 0 1080 1920"><defs><style>.cls-1,.cls-2,.cls-3,.cls-4,.cls-5,.cls-8,.cls-9{stroke:#000;}.cls-1,.cls-10,.cls-2,.cls-3,.cls-4,.cls-5,.cls-6,.cls-7,.cls-8,.cls-9{stroke-miterlimit:10;}.cls-1{fill:url(#linear-gradient);}.cls-2{fill:#333;}.cls-2,.cls-3,.cls-4,.cls-7{stroke-width:3px;}.cls-3{fill:#4d4d4d;}.cls-4{fill:#666;}.cls-5{fill:gray;}.cls-6,.cls-7{fill:none;}.cls-6{stroke:gray;stroke-width:6px;}.cls-7{stroke:#ccc;}.cls-8,.cls-9{fill:#e6e6e6;stroke-width:2px;}.cls-8{opacity:0.47;}.cls-9{opacity:0.44;}.cls-10{fill:#fcee21;stroke:#fcee21;stroke-width:10px;}.cls-11{fill:#ff0;}</style><linearGradient id="linear-gradient" x1="540.22" y1="1916.3" x2="540.22" y2="183.44" gradientUnits="userSpaceOnUse"><stop offset="0" stop-color="#fff"/><stop offset="0" stop-color="#0500d4"/><stop offset="0.1" stop-color="#0400ba"/><stop offset="0.43" stop-color="#03006b"/><stop offset="0.7" stop-color="#010031"/><stop offset="0.89" stop-color="#00000e"/><stop offset="1"/></linearGradient></defs><title>baggrundmobil</title><rect class="cls-1" x="3.43" y="5.5" width="1073.57" height="1908.56"/><rect class="cls-2" x="3" y="1876.74" width="928.35" height="32.14"/><rect class="cls-3" x="67.27" y="1774.39" width="102.36" height="102.36"/><rect class="cls-3" x="267.22" y="1774.39" width="102.36" height="102.36"/><rect class="cls-3" x="554.06" y="1774.39" width="102.36" height="102.36"/><rect class="cls-3" x="758.77" y="1774.39" width="102.36" height="102.36"/><rect class="cls-4" x="22.04" y="1752.96" width="879.55" height="21.42"/><rect class="cls-5" x="22.04" y="1733.92" width="410.62" height="19.04"/><rect class="cls-6" x="100.6" y="1594.67" width="139.25" height="139.25"/><rect class="cls-6" x="237.47" y="1594.67" width="139.25" height="139.25"/><rect class="cls-6" x="100.6" y="1454.22" width="139.25" height="139.25"/><rect class="cls-6" x="237.47" y="1454.22" width="139.25" height="139.25"/><rect class="cls-6" x="237.47" y="1314.97" width="139.25" height="139.25"/><rect class="cls-6" x="237.47" y="1174.53" width="139.25" height="139.25"/><rect class="cls-6" x="237.47" y="1034.09" width="139.25" height="139.25"/><line class="cls-6" x1="100.6" y1="1454.22" x2="237.47" y2="1313.78"/><polygon class="cls-6" points="237.47 1034.09 376.72 900.78 376.72 1034.09 237.47 1034.09"/><line class="cls-6" x1="307.09" y1="967.44" x2="376.72" y2="1034.09"/><polygon class="cls-6" points="237.47 1169.77 376.72 1036.47 376.72 1169.77 237.47 1169.77"/><line class="cls-6" x1="307.09" y1="1103.12" x2="376.72" y2="1169.77"/><polygon class="cls-6" points="237.47 1310.21 376.72 1176.91 376.72 1310.21 237.47 1310.21"/><line class="cls-6" x1="307.09" y1="1243.56" x2="376.72" y2="1310.21"/><polygon class="cls-6" points="237.47 1449.46 376.72 1316.16 376.72 1449.46 237.47 1449.46"/><line class="cls-6" x1="307.09" y1="1382.81" x2="376.72" y2="1449.46"/><polygon class="cls-6" points="237.47 1588.72 376.72 1455.41 376.72 1588.72 237.47 1588.72"/><line class="cls-6" x1="307.09" y1="1522.07" x2="376.72" y2="1588.72"/><polygon class="cls-6" points="237.47 1727.97 376.72 1594.67 376.72 1727.97 237.47 1727.97"/><line class="cls-6" x1="307.09" y1="1661.32" x2="376.72" y2="1727.97"/><polygon class="cls-6" points="99.41 1451.84 238.66 1318.54 238.66 1451.84 99.41 1451.84"/><line class="cls-6" x1="169.03" y1="1385.19" x2="238.66" y2="1451.84"/><polygon class="cls-6" points="99.41 1591.1 238.66 1457.8 238.66 1591.1 99.41 1591.1"/><line class="cls-6" x1="169.03" y1="1524.45" x2="238.66" y2="1591.1"/><polygon class="cls-6" points="99.41 1727.97 238.66 1594.67 238.66 1727.97 99.41 1727.97"/><line class="cls-6" x1="169.03" y1="1661.32" x2="238.66" y2="1727.97"/><polygon class="cls-7" points="594.89 1372.1 376.72 1372.1 376.72 1291.17 440.2 1291.17 594.89 1291.17 594.89 1372.1"/><line class="cls-7" x1="376.72" y1="1372.1" x2="452.53" y2="1287.94"/><line class="cls-7" x1="444.26" y1="1373.29" x2="520.07" y2="1289.13"/><line class="cls-7" x1="516.1" y1="1373.29" x2="591.9" y2="1289.13"/><line class="cls-7" x1="453.6" y1="1373.29" x2="377.79" y2="1289.13"/><line class="cls-7" x1="526.51" y1="1373.29" x2="450.7" y2="1289.13"/><line class="cls-7" x1="595.12" y1="1376.86" x2="519.31" y2="1292.7"/><polygon class="cls-7" points="594.89 1143.58 376.72 1143.58 376.72 1062.65 440.2 1062.65 594.89 1062.65 594.89 1143.58"/><line class="cls-7" x1="376.72" y1="1143.58" x2="452.53" y2="1059.42"/><line class="cls-7" x1="444.26" y1="1144.77" x2="520.07" y2="1060.62"/><line class="cls-7" x1="516.1" y1="1144.77" x2="591.9" y2="1060.62"/><line class="cls-7" x1="453.6" y1="1144.77" x2="377.79" y2="1060.62"/><line class="cls-7" x1="526.51" y1="1144.77" x2="450.7" y2="1060.62"/><line class="cls-7" x1="595.12" y1="1148.35" x2="519.31" y2="1064.19"/><path class="cls-8" d="M356.43,570.57c14.94,5.07,22.86-2.09,42.55,5.27a95.79,95.79,0,0,1,21.85,11.52c25.68-2.12,48.23,10,56,28.93,5.19,12.67,2.35,24.91.62,30.49,3,.09,21.07.9,32.66,15.24s12,36.73,0,54.44H258.45c-15.85,2.51-39.2,3.22-62.22-8.09-2.9-1.42-32.59-16.32-30.48-30.49,1.07-7.21,9.36-7.39,17.42-18.66,8.67-12.14,3.34-17.93,9.64-32.66,7.38-17.25,25.47-34.52,45.73-40.13,8.54-2.37,13.75-1.62,19.91-6.84,8.74-7.41,6.27-15.69,12.44-24.89,9.05-13.5,30.91-20.28,47-15.86C337.79,544.32,334.39,563.08,356.43,570.57Z"/><path class="cls-9" d="M806.73,415.42c17.36,5.9,26.57-2.42,49.46,6.14A111.26,111.26,0,0,1,881.6,435c29.87-2.47,56.08,11.61,65.11,33.64,6,14.72,2.73,29,.72,35.45,3.52.1,24.5,1,38,17.72s14,42.71,0,63.3H692.78c-18.42,2.92-45.57,3.75-72.34-9.4-3.37-1.66-37.9-19-35.45-35.45,1.25-8.39,10.89-8.6,20.26-21.71,10.09-14.11,3.89-20.85,11.21-38,8.58-20.06,29.62-40.14,53.17-46.66,9.94-2.75,16-1.89,23.15-8,10.17-8.61,7.3-18.24,14.47-28.93,10.53-15.7,35.94-23.59,54.62-18.45C785,384.91,781.1,406.72,806.73,415.42Z"/><polygon class="cls-10" points="508.67 235 494.37 225 484.83 203.01 475.3 227 456.24 235 475.3 242.99 483.25 258.98 486.42 266.98 494.37 242.99 508.67 235"/><polygon class="cls-11" points="348.99 386.86 337 382.65 326.73 390.15 327.02 377.44 316.72 369.99 328.9 366.34 332.8 354.24 340.03 364.7 352.75 364.67 345.04 374.78 348.99 386.86"/><polygon class="cls-11" points="101.78 496.59 89.78 492.38 79.51 499.88 79.81 487.17 69.5 479.72 81.69 476.07 85.59 463.97 92.82 474.43 105.53 474.4 97.82 484.51 101.78 496.59"/><polygon class="cls-11" points="54.24 352.24 42.24 348.03 31.97 355.53 32.27 342.82 21.96 335.37 34.14 331.72 38.05 319.62 45.28 330.08 57.99 330.05 50.28 340.16 54.24 352.24"/><polygon class="cls-11" points="83.63 60.08 71.63 55.87 61.36 63.37 61.66 50.66 51.35 43.2 63.53 39.56 67.44 27.46 74.67 37.91 87.38 37.88 79.67 47.99 83.63 60.08"/><polygon class="cls-11" points="664.5 136.15 652.5 131.94 642.23 139.43 642.52 126.72 632.22 119.27 644.4 115.62 648.3 103.52 655.53 113.98 668.25 113.95 660.54 124.06 664.5 136.15"/><polygon class="cls-11" points="772.54 272.72 760.55 268.51 750.28 276 750.57 263.29 740.27 255.84 752.45 252.2 756.35 240.1 763.58 250.55 776.3 250.52 768.59 260.63 772.54 272.72"/><polygon class="cls-11" points="701.66 235.55 689.67 231.34 679.4 238.84 679.69 226.13 669.39 218.68 681.57 215.03 685.47 202.93 692.7 213.38 705.42 213.36 697.71 223.47 701.66 235.55"/><polygon class="cls-11" points="916.03 172.45 904.03 168.24 893.76 175.74 894.06 163.03 883.76 155.57 895.94 151.93 899.84 139.83 907.07 150.28 919.79 150.26 912.08 160.37 916.03 172.45"/><polygon class="cls-11" points="1028.4 352.24 1016.4 348.03 1006.13 355.53 1006.43 342.82 996.13 335.37 1008.31 331.72 1012.21 319.62 1019.44 330.08 1032.16 330.05 1024.44 340.16 1028.4 352.24"/></svg>
