<svg id="Layer_1" data-name="Layer 1" xmlns="http://www.w3.org/2000/svg" width="1714" height="1300" viewBox="0 0 1714 1300"><defs><style>.cls-1{fill:#c1272d;}.cls-2{fill:#b3b3b3;}.cls-3{fill:#ff0;stroke:#ff0;stroke-miterlimit:10;}</style></defs><title>gameover</title><rect class="cls-1" x="316" y="165" width="1245" height="744"/><rect class="cls-2" x="297" y="147" width="19" height="953"/><polygon class="cls-3" points="481 432 436 392 506 324 573 335 578 335 539 374 654 485 664.5 464.5 672.5 429.5 672.5 396.5 656.5 359.5 636.5 331.5 595.5 290.5 573.5 275.5 593.5 280.5 627.5 294.5 656.5 311.5 688.5 341.5 710.5 376.5 717.5 403.5 717.5 436.5 713.5 465.5 704.5 492.5 688.5 518.5 736.5 567.5 739.5 582.5 731.5 593.5 721.5 596.5 710.5 596.5 657.5 544.5 643.5 552.5 618.5 559.5 580.5 562.5 549.5 555.5 519.5 537.5 494.5 512.5 488.5 521.5 495.5 529.5 497.5 535.5 494.5 542.5 487.5 543.5 478.5 535.5 458.5 558.5 435.5 581.5 419.5 582.5 410.5 575.5 406.5 567.5 411.5 549.5 428.5 534.5 456.5 511.5 450.5 506.5 449.5 496.5 454.5 490.5 460.5 492.5 466.5 497.5 468.5 501.5 488.5 484.5 492.5 483.5 510.5 483.5 521.5 496.5 541.5 508.5 567.5 518.5 595.5 517.5 621.5 509.5 625.5 507.5 512.5 400.5 481 432"/><polygon class="cls-3" points="532.11 291.62 495.87 272.02 459.19 290.77 466.62 250.25 437.46 221.15 478.29 215.7 496.95 178.97 514.76 216.13 555.45 222.52 525.62 250.94 532.11 291.62"/><path d="M900.19,306.61H956v15.88h-40V359.9h24.09V333.27H956v42.51H900.19Z"/><path d="M965.27,306.61h55.86v69.17h-15.88V362.47h-24.1v13.31H965.27Zm15.88,15.88v24.09h24.1V322.49Z"/><path d="M1030.4,306.61h10.33l17.76,17.58,17.62-17.58h10.15v69.17h-15.88V339l-10.15,10.14h-3.81L1046.28,339v36.81H1030.4Z"/><path d="M1151.53,375.78h-55.86V359.9h39.42l-.09-10.79h-26V333.27h26.66V322.49h-40V306.61h55.86Z"/><path d="M1178.88,306.61h55.86v69.17h-55.86Zm15.88,15.88,0,37.41h24V322.49Z"/><path d="M1243.92,306.61h15.88l12.35,41.31,11.79-41.31h16.3l-.1,8.63-20,60.63h-16.52l-19.69-61Z"/><path d="M1365,375.78h-55.86V359.9h39.43l-.09-10.79h-26V333.27h26.66V322.49h-40V306.61H1365Z"/><path d="M1430.17,375.78h-15.88V351.5l-24.09,24.28h-15.88v-9.5l17.12-17.17h-17.12v-42.5h55.85Zm-40-53.29v10.78h24.09V322.49Z"/><path d="M899.92,453h55.86v42.5h-40v26.67H899.92Zm15.88,15.88v10.79h24.1V468.86Z"/><path d="M965.24,453h55.85v69.17H965.24Zm15.88,15.88,0,37.41h24.05V468.86Z"/><path d="M1030.32,453h15.88v69.26h-15.88Z"/><path d="M1112.39,522.15h-15.88V484.56l-24.1,24.28v13.31h-15.88V453h15.88v31.26l24.1-24.28v-7h15.88Z"/><path d="M1121.57,453h55.85v15.88h-19.69v53.29H1141.9V468.86h-20.33Z"/><path d="M1187.11,467.21h13.77V481h-13.77Zm0,41.31h13.77v13.77h-13.77Z"/></svg>
