<svg id="Layer_1" data-name="Layer 1" xmlns="http://www.w3.org/2000/svg" width="454" height="404" viewBox="0 0 454 404"><defs><style>.cls-1,.cls-4{fill:#b0f25a;}.cls-2,.cls-3{fill:#fff;}.cls-2,.cls-4{stroke:#000;stroke-miterlimit:10;}.cls-4{stroke-width:4px;}</style></defs><title>liv</title><path class="cls-1" d="M159,236.43a6.26,6.26,0,1,1,6.24-6.26A6.26,6.26,0,0,1,159,236.43Z"/><path d="M159,224.42a5.76,5.76,0,1,1-5.74,5.75,5.75,5.75,0,0,1,5.74-5.75m0-1a6.76,6.76,0,1,0,6.74,6.75,6.75,6.75,0,0,0-6.74-6.75Z"/><path class="cls-1" d="M134,233.11c-23.43,0-42.5-14.73-42.5-32.84s19.07-32.84,42.5-32.84,42.5,14.73,42.5,32.84S157.43,233.11,134,233.11Z"/><path d="M134,167.93c23.16,0,42,14.51,42,32.34s-18.84,32.34-42,32.34S92,218.1,92,200.27s18.84-32.34,42-32.34m0-1c-23.75,0-43,14.93-43,33.34s19.25,33.34,43,33.34,43-14.93,43-33.34-19.25-33.34-43-33.34Z"/><path class="cls-1" d="M109.9,236.43a6.26,6.26,0,1,1,6.25-6.26A6.26,6.26,0,0,1,109.9,236.43Z"/><path d="M109.9,224.42a5.76,5.76,0,1,1-5.74,5.75,5.76,5.76,0,0,1,5.74-5.75m0-1a6.76,6.76,0,1,0,6.75,6.75,6.75,6.75,0,0,0-6.75-6.75Z"/><ellipse class="cls-2" cx="155" cy="189.19" rx="7.52" ry="6.2"/><ellipse class="cls-3" cx="151.35" cy="188.75" rx="0.61" ry="1.6"/><path d="M151.35,188a2.68,2.68,0,0,1,0,1.52,2.94,2.94,0,0,1,0-1.52m0-1.34c-.61,0-1.1.94-1.1,2.1s.49,2.1,1.1,2.1,1.11-.94,1.11-2.1-.49-2.1-1.11-2.1Z"/><path class="cls-3" d="M156.77,191.2a1.93,1.93,0,0,1-.27-1.12,1.64,1.64,0,0,1,.32-1.17,3.33,3.33,0,0,1,.22,1.17A1.93,1.93,0,0,1,156.77,191.2Z"/><path d="M156.77,188.42c-.43,0-.77.74-.77,1.66s.34,1.66.77,1.66.77-.74.77-1.66-.34-1.66-.77-1.66Z"/><path d="M155,193.68c-3.07,0-5.58-2.06-5.58-4.6s2.51-4.59,5.58-4.59,5.58,2.06,5.58,4.59S158.08,193.68,155,193.68Z"/><path d="M155,185c2.8,0,5.08,1.83,5.08,4.09s-2.28,4.1-5.08,4.1-5.08-1.84-5.08-4.1S152.2,185,155,185m0-1c-3.36,0-6.08,2.28-6.08,5.09s2.72,5.1,6.08,5.1,6.08-2.28,6.08-5.1S158.36,184,155,184Z"/><path class="cls-3" d="M152.46,190.13c-.38,0-.83-.75-.83-1.71s.45-1.72.83-1.72.83.75.83,1.72S152.84,190.13,152.46,190.13Z"/><path d="M152.46,187.25a1.9,1.9,0,0,1,.33,1.17,2,2,0,0,1-.33,1.17,2,2,0,0,1-.33-1.17,1.9,1.9,0,0,1,.33-1.17m0-1.05c-.73,0-1.33,1-1.33,2.22s.6,2.21,1.33,2.21,1.33-1,1.33-2.21-.6-2.22-1.33-2.22Z"/><circle class="cls-3" cx="156.77" cy="189.19" r="1.16"/><path d="M156.77,188.53a.66.66,0,1,1-.66.66.67.67,0,0,1,.66-.66m0-1a1.66,1.66,0,1,0,1.66,1.66,1.67,1.67,0,0,0-1.66-1.66Z"/><ellipse class="cls-2" cx="112.56" cy="189.19" rx="7.52" ry="6.2"/><ellipse class="cls-3" cx="108.91" cy="188.75" rx="0.61" ry="1.6"/><path d="M108.91,188a2.94,2.94,0,0,1,0,1.52,2.68,2.68,0,0,1,0-1.52m0-1.34c-.61,0-1.11.94-1.11,2.1s.5,2.1,1.11,2.1,1.1-.94,1.1-2.1-.49-2.1-1.1-2.1Z"/><path class="cls-3" d="M114.32,191.2a2,2,0,0,1-.27-1.12,1.7,1.7,0,0,1,.32-1.17,3.2,3.2,0,0,1,.23,1.17A1.9,1.9,0,0,1,114.32,191.2Z"/><path d="M114.32,188.42c-.42,0-.77.74-.77,1.66s.35,1.66.77,1.66.78-.74.78-1.66-.35-1.66-.78-1.66Z"/><path d="M112.56,193.68c-3.08,0-5.58-2.06-5.58-4.6s2.5-4.59,5.58-4.59,5.57,2.06,5.57,4.59S115.63,193.68,112.56,193.68Z"/><path d="M112.56,185c2.8,0,5.08,1.83,5.08,4.09s-2.28,4.1-5.08,4.1-5.08-1.84-5.08-4.1,2.27-4.09,5.08-4.09m0-1c-3.36,0-6.08,2.28-6.08,5.09s2.72,5.1,6.08,5.1,6.08-2.28,6.08-5.1-2.73-5.09-6.08-5.09Z"/><ellipse class="cls-3" cx="110.01" cy="188.42" rx="0.83" ry="1.71"/><path d="M110,187.25a1.9,1.9,0,0,1,.33,1.17,2,2,0,0,1-.33,1.17,2,2,0,0,1-.32-1.17,1.91,1.91,0,0,1,.32-1.17m0-1.05c-.73,0-1.32,1-1.32,2.22s.59,2.21,1.32,2.21,1.33-1,1.33-2.21-.59-2.22-1.33-2.22Z"/><circle class="cls-3" cx="114.32" cy="189.19" r="1.16"/><path d="M114.32,188.53a.66.66,0,1,1,0,1.32.66.66,0,0,1,0-1.32m0-1a1.66,1.66,0,1,0,1.66,1.66,1.66,1.66,0,0,0-1.66-1.66Z"/><path class="cls-4" d="M129.36,191.63c.15.41.76,4.32,2.87,5.09,2.38.88,5.65-2.09,7.3-4.87"/><path class="cls-1" d="M257,236.43a6.26,6.26,0,1,1,6.24-6.26A6.26,6.26,0,0,1,257,236.43Z"/><path d="M257,224.42a5.76,5.76,0,1,1-5.74,5.75,5.75,5.75,0,0,1,5.74-5.75m0-1a6.76,6.76,0,1,0,6.74,6.75,6.75,6.75,0,0,0-6.74-6.75Z"/><path class="cls-1" d="M232,233.11c-23.43,0-42.5-14.73-42.5-32.84s19.07-32.84,42.5-32.84,42.5,14.73,42.5,32.84S255.43,233.11,232,233.11Z"/><path d="M232,167.93c23.16,0,42,14.51,42,32.34s-18.84,32.34-42,32.34-42-14.51-42-32.34,18.84-32.34,42-32.34m0-1c-23.75,0-43,14.93-43,33.34s19.25,33.34,43,33.34,43-14.93,43-33.34-19.25-33.34-43-33.34Z"/><path class="cls-1" d="M207.9,236.43a6.26,6.26,0,1,1,6.25-6.26A6.26,6.26,0,0,1,207.9,236.43Z"/><path d="M207.9,224.42a5.76,5.76,0,1,1-5.74,5.75,5.76,5.76,0,0,1,5.74-5.75m0-1a6.76,6.76,0,1,0,6.75,6.75,6.75,6.75,0,0,0-6.75-6.75Z"/><ellipse class="cls-2" cx="253" cy="189.19" rx="7.52" ry="6.2"/><ellipse class="cls-3" cx="249.35" cy="188.75" rx="0.61" ry="1.6"/><path d="M249.35,188a2.68,2.68,0,0,1,0,1.52,2.94,2.94,0,0,1,0-1.52m0-1.34c-.61,0-1.1.94-1.1,2.1s.49,2.1,1.1,2.1,1.11-.94,1.11-2.1-.49-2.1-1.11-2.1Z"/><path class="cls-3" d="M254.77,191.2a1.93,1.93,0,0,1-.27-1.12,1.64,1.64,0,0,1,.32-1.17,3.33,3.33,0,0,1,.22,1.17A1.93,1.93,0,0,1,254.77,191.2Z"/><path d="M254.77,188.42c-.43,0-.77.74-.77,1.66s.34,1.66.77,1.66.77-.74.77-1.66-.34-1.66-.77-1.66Z"/><path d="M253,193.68c-3.07,0-5.58-2.06-5.58-4.6s2.51-4.59,5.58-4.59,5.58,2.06,5.58,4.59S256.08,193.68,253,193.68Z"/><path d="M253,185c2.8,0,5.08,1.83,5.08,4.09s-2.28,4.1-5.08,4.1-5.08-1.84-5.08-4.1S250.2,185,253,185m0-1c-3.36,0-6.08,2.28-6.08,5.09s2.72,5.1,6.08,5.1,6.08-2.28,6.08-5.1S256.36,184,253,184Z"/><path class="cls-3" d="M250.46,190.13c-.38,0-.83-.75-.83-1.71s.45-1.72.83-1.72.83.75.83,1.72S250.84,190.13,250.46,190.13Z"/><path d="M250.46,187.25a1.9,1.9,0,0,1,.33,1.17,2,2,0,0,1-.33,1.17,2,2,0,0,1-.33-1.17,1.9,1.9,0,0,1,.33-1.17m0-1.05c-.73,0-1.33,1-1.33,2.22s.6,2.21,1.33,2.21,1.33-1,1.33-2.21-.6-2.22-1.33-2.22Z"/><circle class="cls-3" cx="254.77" cy="189.19" r="1.16"/><path d="M254.77,188.53a.66.66,0,1,1-.66.66.67.67,0,0,1,.66-.66m0-1a1.66,1.66,0,1,0,1.66,1.66,1.67,1.67,0,0,0-1.66-1.66Z"/><ellipse class="cls-2" cx="210.56" cy="189.19" rx="7.52" ry="6.2"/><ellipse class="cls-3" cx="206.91" cy="188.75" rx="0.61" ry="1.6"/><path d="M206.91,188a2.94,2.94,0,0,1,0,1.52,2.68,2.68,0,0,1,0-1.52m0-1.34c-.61,0-1.11.94-1.11,2.1s.5,2.1,1.11,2.1,1.1-.94,1.1-2.1-.49-2.1-1.1-2.1Z"/><path class="cls-3" d="M212.32,191.2a2,2,0,0,1-.27-1.12,1.7,1.7,0,0,1,.32-1.17,3.2,3.2,0,0,1,.23,1.17A1.9,1.9,0,0,1,212.32,191.2Z"/><path d="M212.32,188.42c-.42,0-.77.74-.77,1.66s.35,1.66.77,1.66.78-.74.78-1.66-.35-1.66-.78-1.66Z"/><path d="M210.56,193.68c-3.08,0-5.58-2.06-5.58-4.6s2.5-4.59,5.58-4.59,5.57,2.06,5.57,4.59S213.63,193.68,210.56,193.68Z"/><path d="M210.56,185c2.8,0,5.08,1.83,5.08,4.09s-2.28,4.1-5.08,4.1-5.08-1.84-5.08-4.1,2.27-4.09,5.08-4.09m0-1c-3.36,0-6.08,2.28-6.08,5.09s2.72,5.1,6.08,5.1,6.08-2.28,6.08-5.1-2.73-5.09-6.08-5.09Z"/><ellipse class="cls-3" cx="208.01" cy="188.42" rx="0.83" ry="1.71"/><path d="M208,187.25a1.9,1.9,0,0,1,.33,1.17,2,2,0,0,1-.33,1.17,2,2,0,0,1-.32-1.17,1.91,1.91,0,0,1,.32-1.17m0-1.05c-.73,0-1.32,1-1.32,2.22s.59,2.21,1.32,2.21,1.33-1,1.33-2.21-.59-2.22-1.33-2.22Z"/><circle class="cls-3" cx="212.32" cy="189.19" r="1.16"/><path d="M212.32,188.53a.66.66,0,0,1,0,1.32.66.66,0,0,1,0-1.32m0-1a1.66,1.66,0,1,0,1.66,1.66,1.66,1.66,0,0,0-1.66-1.66Z"/><path class="cls-4" d="M227.36,191.63c.15.41.76,4.32,2.87,5.09,2.38.88,5.65-2.09,7.3-4.87"/><path class="cls-1" d="M353,236.43a6.26,6.26,0,1,1,6.24-6.26A6.26,6.26,0,0,1,353,236.43Z"/><path d="M353,224.42a5.76,5.76,0,1,1-5.74,5.75,5.75,5.75,0,0,1,5.74-5.75m0-1a6.76,6.76,0,1,0,6.74,6.75,6.75,6.75,0,0,0-6.74-6.75Z"/><path class="cls-1" d="M328,233.11c-23.43,0-42.5-14.73-42.5-32.84s19.07-32.84,42.5-32.84,42.5,14.73,42.5,32.84S351.43,233.11,328,233.11Z"/><path d="M328,167.93c23.16,0,42,14.51,42,32.34s-18.84,32.34-42,32.34-42-14.51-42-32.34,18.84-32.34,42-32.34m0-1c-23.75,0-43,14.93-43,33.34s19.25,33.34,43,33.34,43-14.93,43-33.34-19.25-33.34-43-33.34Z"/><path class="cls-1" d="M303.9,236.43a6.26,6.26,0,1,1,6.25-6.26A6.26,6.26,0,0,1,303.9,236.43Z"/><path d="M303.9,224.42a5.76,5.76,0,1,1-5.74,5.75,5.76,5.76,0,0,1,5.74-5.75m0-1a6.76,6.76,0,1,0,6.75,6.75,6.75,6.75,0,0,0-6.75-6.75Z"/><ellipse class="cls-2" cx="349" cy="189.19" rx="7.52" ry="6.2"/><ellipse class="cls-3" cx="345.35" cy="188.75" rx="0.61" ry="1.6"/><path d="M345.35,188a2.68,2.68,0,0,1,0,1.52,2.94,2.94,0,0,1,0-1.52m0-1.34c-.61,0-1.1.94-1.1,2.1s.49,2.1,1.1,2.1,1.11-.94,1.11-2.1-.49-2.1-1.11-2.1Z"/><path class="cls-3" d="M350.77,191.2a1.93,1.93,0,0,1-.27-1.12,1.64,1.64,0,0,1,.32-1.17,3.33,3.33,0,0,1,.22,1.17A1.93,1.93,0,0,1,350.77,191.2Z"/><path d="M350.77,188.42c-.43,0-.77.74-.77,1.66s.34,1.66.77,1.66.77-.74.77-1.66-.34-1.66-.77-1.66Z"/><path d="M349,193.68c-3.07,0-5.58-2.06-5.58-4.6s2.51-4.59,5.58-4.59,5.58,2.06,5.58,4.59S352.08,193.68,349,193.68Z"/><path d="M349,185c2.8,0,5.08,1.83,5.08,4.09s-2.28,4.1-5.08,4.1-5.08-1.84-5.08-4.1S346.2,185,349,185m0-1c-3.36,0-6.08,2.28-6.08,5.09s2.72,5.1,6.08,5.1,6.08-2.28,6.08-5.1S352.36,184,349,184Z"/><path class="cls-3" d="M346.46,190.13c-.38,0-.83-.75-.83-1.71s.45-1.72.83-1.72.83.75.83,1.72S346.84,190.13,346.46,190.13Z"/><path d="M346.46,187.25a1.9,1.9,0,0,1,.33,1.17.63.63,0,1,1-.66,0,1.9,1.9,0,0,1,.33-1.17m0-1.05c-.73,0-1.33,1-1.33,2.22s.6,2.21,1.33,2.21,1.33-1,1.33-2.21-.6-2.22-1.33-2.22Z"/><circle class="cls-3" cx="350.77" cy="189.19" r="1.16"/><path d="M350.77,188.53a.66.66,0,1,1-.66.66.67.67,0,0,1,.66-.66m0-1a1.66,1.66,0,1,0,1.66,1.66,1.67,1.67,0,0,0-1.66-1.66Z"/><ellipse class="cls-2" cx="306.56" cy="189.19" rx="7.52" ry="6.2"/><ellipse class="cls-3" cx="302.91" cy="188.75" rx="0.61" ry="1.6"/><path d="M302.91,188a2.94,2.94,0,0,1,0,1.52,2.68,2.68,0,0,1,0-1.52m0-1.34c-.61,0-1.11.94-1.11,2.1s.5,2.1,1.11,2.1,1.1-.94,1.1-2.1-.49-2.1-1.1-2.1Z"/><path class="cls-3" d="M308.32,191.2a2,2,0,0,1-.27-1.12,1.7,1.7,0,0,1,.32-1.17,3.2,3.2,0,0,1,.23,1.17A1.9,1.9,0,0,1,308.32,191.2Z"/><path d="M308.32,188.42c-.42,0-.77.74-.77,1.66s.35,1.66.77,1.66.78-.74.78-1.66-.35-1.66-.78-1.66Z"/><path d="M306.56,193.68c-3.08,0-5.58-2.06-5.58-4.6s2.5-4.59,5.58-4.59,5.57,2.06,5.57,4.59S309.63,193.68,306.56,193.68Z"/><path d="M306.56,185c2.8,0,5.08,1.83,5.08,4.09s-2.28,4.1-5.08,4.1-5.08-1.84-5.08-4.1,2.27-4.09,5.08-4.09m0-1c-3.36,0-6.08,2.28-6.08,5.09s2.72,5.1,6.08,5.1,6.08-2.28,6.08-5.1-2.73-5.09-6.08-5.09Z"/><ellipse class="cls-3" cx="304.01" cy="188.42" rx="0.83" ry="1.71"/><path d="M304,187.25a1.9,1.9,0,0,1,.33,1.17,2,2,0,0,1-.33,1.17,2,2,0,0,1-.32-1.17,1.91,1.91,0,0,1,.32-1.17m0-1.05c-.73,0-1.32,1-1.32,2.22s.59,2.21,1.32,2.21,1.33-1,1.33-2.21-.59-2.22-1.33-2.22Z"/><circle class="cls-3" cx="308.32" cy="189.19" r="1.16"/><path d="M308.32,188.53a.66.66,0,0,1,0,1.32.66.66,0,0,1,0-1.32m0-1a1.66,1.66,0,1,0,1.66,1.66,1.66,1.66,0,0,0-1.66-1.66Z"/><path class="cls-4" d="M323.36,191.63c.15.41.76,4.32,2.87,5.09,2.38.88,5.65-2.09,7.3-4.87"/></svg>
