<svg id="Layer_1" data-name="Layer 1" xmlns="http://www.w3.org/2000/svg" width="390" height="320" viewBox="0 0 390 320"><defs><style>.cls-1{fill:#ff0;}.cls-2{fill:#fff;}.cls-3{fill:#c1272d;}.cls-4{stroke:#000;stroke-miterlimit:10;stroke-width:4px;}</style></defs><title>ond</title><ellipse class="cls-1" cx="308.29" cy="289.11" rx="30.58" ry="30.89"/><ellipse class="cls-1" cx="195" cy="152.41" rx="195" ry="152.41"/><ellipse class="cls-1" cx="85.72" cy="289.11" rx="30.58" ry="30.89"/><ellipse class="cls-2" cx="290.24" cy="101.77" rx="34.09" ry="28.35"/><path class="cls-2" d="M273.7,108.87c-2.44,0-4.51-4.18-4.51-9.12s2.07-9.12,4.51-9.12,4.51,4.17,4.51,9.12S276.15,108.87,273.7,108.87Z"/><path d="M273.7,91.13c1.9,0,4,3.54,4,8.62s-2.11,8.62-4,8.62-4-3.54-4-8.62,2.11-8.62,4-8.62m0-1c-2.77,0-5,4.3-5,9.62s2.24,9.62,5,9.62,5-4.31,5-9.62-2.24-9.62-5-9.62Z"/><path class="cls-2" d="M298.26,112.92c-1.42,0-3-2.92-3-7.1s1.58-7.09,3-7.09,3,2.91,3,7.09S299.69,112.92,298.26,112.92Z"/><path d="M298.26,99.23c1,0,2.51,2.57,2.51,6.59s-1.48,6.6-2.51,6.6-2.5-2.57-2.5-6.6,1.48-6.59,2.5-6.59m0-1c-1.93,0-3.5,3.4-3.5,7.59s1.57,7.6,3.5,7.6,3.51-3.4,3.51-7.6-1.57-7.59-3.51-7.59Z"/><ellipse class="cls-3" cx="290.24" cy="101.27" rx="27.57" ry="23.29"/><ellipse class="cls-2" cx="278.71" cy="98.23" rx="6.02" ry="10.13"/><ellipse class="cls-2" cx="298.26" cy="101.77" rx="7.52" ry="7.59"/><ellipse class="cls-2" cx="97.75" cy="101.77" rx="34.09" ry="28.35"/><ellipse class="cls-2" cx="81.21" cy="99.75" rx="5.01" ry="9.62"/><ellipse class="cls-2" cx="105.77" cy="105.82" rx="3.51" ry="7.59"/><ellipse class="cls-3" cx="97.75" cy="101.27" rx="27.57" ry="23.29"/><ellipse class="cls-2" cx="86.22" cy="98.23" rx="6.02" ry="10.13"/><ellipse class="cls-2" cx="105.77" cy="101.77" rx="7.52" ry="7.59"/><line class="cls-4" x1="112.79" y1="51.14" x2="140.86" y2="77.47"/><line class="cls-4" x1="256.16" y1="77.47" x2="285.23" y2="51.14"/><path d="M157.39,138.24c0-17.89,17.09-32.39,38.13-32.37s38.08,14.55,38.07,32.44-17-23.3-38.08-23.32S157.37,156.14,157.39,138.24Z"/></svg>
