<svg id="Layer_1" data-name="Layer 1" xmlns="http://www.w3.org/2000/svg" width="454" height="404" viewBox="0 0 454 404"><defs><style>.cls-1,.cls-4{fill:#ccc;}.cls-2{fill:#e6e6e6;}.cls-3{fill:#b3b3b3;stroke-width:5px;}.cls-3,.cls-4{stroke:#e6e6e6;}.cls-3,.cls-4,.cls-5{stroke-miterlimit:10;}.cls-5{fill:#4d4d4d;stroke:#ccc;}</style></defs><title>play</title><circle class="cls-1" cx="227.49" cy="238.51" r="142.43" transform="translate(-56.91 405.12) rotate(-76.72)"/><path class="cls-2" d="M227.49,96.59a141.91,141.91,0,1,1-100.36,41.56A141,141,0,0,1,227.49,96.59m0-1A142.93,142.93,0,1,0,370.41,238.51,142.93,142.93,0,0,0,227.49,95.59Z"/><path class="cls-3" d="M61.76,209c-7.23-.07-15.93-.16-22.37-.64v.23c5.95,2.15,12.25,4.7,19.22,7.76l24.5,10.7-.32,5.06L57.64,239c-7.44,2-14.24,3.64-20.47,4.72v.15c6.43.56,15.08,1.49,22.79,2.43L82,249l-.4,6.37-51.46-6.86L30.7,240l25.56-7.25c6.5-1.75,12.28-3.15,17.74-4.12v-.23c-5.13-1.63-10.69-3.83-17.06-6.54L32.53,211.12l.53-8.51,51.89,0-.41,6.52Z"/><path class="cls-3" d="M41.87,150.46c3.54,1.5,5.07,5.57,3.33,9.67-1.84,4.32-5.84,5.88-9.23,4.43s-5.3-5.42-3.44-9.8S38.33,149,41.87,150.46ZM37.5,161a3.84,3.84,0,0,0,5-1.87,3.78,3.78,0,0,0-2.31-5,3.79,3.79,0,0,0-5.19,1.8C34.12,158.1,35.45,160.09,37.5,161ZM76,183.46l12.9,11.31-2.71,6.37L45.34,164.7l3.15-7.42,54.59,4-2.79,6.58-17.16-1.27Zm1.83-17.68-15.71-1.16c-3.56-.25-6.69-.75-9.75-1.21l-.06.14c2.53,1.91,5.1,3.92,7.61,6.07l11.81,10.52Z"/><path class="cls-3" d="M105.45,158.07,66.22,124.26,71,118.73l30.69,4.53a147.65,147.65,0,0,1,18.81,3.95l0-.17C114.88,123,110,119,103.9,113.73L87.49,99.58l4.11-4.77,39.23,33.81-4.41,5.12L95.78,129a165.26,165.26,0,0,1-19.42-3.95l-.09.22c5.2,4,10,7.92,16.53,13.54l16.76,14.45Z"/><path class="cls-3" d="M146.82,88.85,130,99.87l10.22,15.63L159,103.22l3.07,4.7-24.38,15.93L109.32,80.5l23.41-15.3,3.07,4.69L118,81.54l9,13.7,16.85-11Z"/><path class="cls-3" d="M190.28,73.7l1.39,4.8-18.22,5.3-1.4-4.8Z"/><path class="cls-3" d="M216.46,84.64a23.78,23.78,0,0,0,11.93,3.58c6.84.12,10.9-3.43,11-8.65.08-4.84-2.64-7.65-9.59-10.46-8.4-3.14-13.55-7.61-13.42-14.91.13-8.07,6.92-14,17-13.78a23.57,23.57,0,0,1,11.4,2.73l-1.94,5.43A20.59,20.59,0,0,0,233,46c-7.07-.12-9.83,4.06-9.89,7.59-.08,4.85,3,7.28,10.13,10.17,8.7,3.53,13.08,7.83,12.95,15.44-.13,8-6.17,14.8-18.38,14.6-5-.09-10.43-1.64-13.16-3.53Z"/><path class="cls-3" d="M265.43,44.9a76.79,76.79,0,0,1,12.64,2.4c6.38,1.74,10.64,4.49,12.88,8a13.91,13.91,0,0,1,1.53,11.64c-1.23,4.53-3.53,7.72-6.76,9.63-4.4,2.71-10.46,3-16.77,1.33A22.79,22.79,0,0,1,263.88,76l-5.44,20L252,94.28Zm-.11,25.85a22.53,22.53,0,0,0,5.19,2c7.79,2.12,13.57-.37,15.44-7.26,1.8-6.6-2-11.06-9.12-13a28.22,28.22,0,0,0-6.22-1.14Z"/><path class="cls-3" d="M317.19,62.55l-22.65,46.58-6-2.92,22.65-46.58Z"/><path class="cls-3" d="M333.42,71.36l5.41,3.92L311.78,112.7l17.93,13-3.29,4.55-23.35-16.89Z"/><path class="cls-3" d="M368.67,99.81l4.38,5-34.93,30.23,14.48,16.73-4.24,3.67L329.5,133.7Z"/><path class="cls-3" d="M384.5,172.06l-9.3-17.85-16.56,8.63L369,182.73l-5,2.6L350.58,159.5l45.92-23.93,12.93,24.8-5,2.59-9.84-18.87-14.52,7.56,9.31,17.85Z"/><path class="cls-3" d="M413.25,190.9l-3.61-15.33,5.54-1.3L424,211.59l-5.54,1.3-3.63-15.4-44.87,10.56-1.55-6.58Z"/><ellipse class="cls-4" cx="328.92" cy="191.38" rx="21.52" ry="31.76"/><circle class="cls-4" cx="182.41" cy="335.85" r="21.52"/><ellipse class="cls-4" cx="307.4" cy="314.33" rx="17.42" ry="27.66"/><circle class="cls-4" cx="204.44" cy="283.08" r="23.05"/><circle class="cls-4" cx="123.49" cy="296.4" r="12.81"/><circle class="cls-4" cx="228" cy="223.66" r="12.81"/><ellipse class="cls-4" cx="272.57" cy="269.25" rx="17.42" ry="26.64"/><circle class="cls-4" cx="146.03" cy="233.9" r="9.73"/><ellipse class="cls-4" cx="167.04" cy="168.33" rx="15.37" ry="27.15"/><ellipse class="cls-4" cx="255.15" cy="151.94" rx="12.29" ry="27.15"/><polygon class="cls-5" points="176.26 198.55 176.26 289.74 309.45 243.63 176.26 198.55"/></svg>
