<svg id="Layer_1" data-name="Layer 1" xmlns="http://www.w3.org/2000/svg" width="157" height="158" viewBox="0 0 157 158"><defs><style>.cls-1{fill:#ff0;}</style></defs><title>playagain</title><path class="cls-1" d="M31.83,87H45.17A4.83,4.83,0,0,1,50,91.83v3.86a4.85,4.85,0,0,0,.66,2.44l5.91,10.14a5.06,5.06,0,0,0,1.08,1.27l10.47,8.73a4.85,4.85,0,0,0,2,1l15.34,3.61a4.67,4.67,0,0,0,1.11.13h8.93a4.84,4.84,0,0,0,2.75-.86l10.83-7.5a4.88,4.88,0,0,0,1.48-1.62l4.29-7.72a4.91,4.91,0,0,0,.28-.62l4.56-11.84A4.92,4.92,0,0,0,120,91.1V81.9a4.92,4.92,0,0,0-.32-1.74L115.37,69a4.83,4.83,0,0,0-1.09-1.68l-7.73-7.73a4.85,4.85,0,0,0-1.25-.9L99,55.51A4.77,4.77,0,0,0,96.86,55h-6A4.83,4.83,0,0,0,86,59.83v5.68a4.83,4.83,0,0,1-7.67,3.9L43.51,44a4.83,4.83,0,0,1,.11-7.88L78.44,12.2a4.83,4.83,0,0,1,7.56,4v9.41a4.83,4.83,0,0,0,4.39,4.81l6,.54a4.89,4.89,0,0,1,1.19.27l12.9,4.6a5.07,5.07,0,0,1,1,.49l12.91,8.3a4.57,4.57,0,0,1,1.09,1l9.09,10.9a4.75,4.75,0,0,1,.71,1.16l6.49,14.82a5.15,5.15,0,0,1,.34,1.14l1.83,11a4.15,4.15,0,0,1,.07.79V99.07a4.79,4.79,0,0,1-.35,1.79l-5.48,13.71a4.23,4.23,0,0,1-.42.82l-8.28,12.88a4.94,4.94,0,0,1-1.16,1.25l-10.9,8.17a4.55,4.55,0,0,1-.87.52l-12.09,5.58a4.34,4.34,0,0,1-.94.32l-12,2.77a5,5,0,0,1-1.09.12H78.63a4.69,4.69,0,0,1-1.24-.16l-13.66-3.65a4.76,4.76,0,0,1-1.37-.6l-12.92-8.31a5,5,0,0,1-.81-.65l-11-11a4.79,4.79,0,0,1-1-1.45l-7.42-16.69a4.23,4.23,0,0,1-.32-1l-1.81-9a5,5,0,0,1-.09-1V91.83A4.83,4.83,0,0,1,31.83,87Z"/></svg>
