<svg id="Layer_1" data-name="Layer 1" xmlns="http://www.w3.org/2000/svg" width="504" height="908" viewBox="0 0 504 908"><defs><style>.cls-1{fill:#e6e6e6;}.cls-2{fill:#b3b3b3;}.cls-3{fill:#ed1c24;}.cls-4{fill:none;}.cls-5{fill:#999;}.cls-6{fill:#bddee0;}</style></defs><title>raket</title><rect class="cls-1" x="202.51" y="201.55" width="99.64" height="223.24"/><rect class="cls-1" x="202.4" y="446.23" width="99.64" height="147.57"/><rect class="cls-2" x="208.75" y="424.79" width="85.77" height="21.44"/><rect class="cls-1" x="202.29" y="593.8" width="99.64" height="224.5"/><polyline class="cls-3" points="302.22 201.58 251.83 94.34 202.58 201.52"/><line class="cls-4" x1="251.85" y1="50.2" x2="251.83" y2="94.34"/><polyline class="cls-5" points="202.4 519.99 148.15 550.86 91.23 818.21 202.23 818.28"/><polyline class="cls-2" points="302.67 520.05 356.88 550.98 413.49 818.4 302.5 818.33"/><rect x="168.17" y="818.27" width="37.84" height="16.4"/><rect x="108.89" y="818.23" width="37.84" height="16.4"/><rect x="233.75" y="818.31" width="37.84" height="16.4"/><rect x="295.55" y="818.34" width="37.84" height="16.4"/><rect x="357.36" y="818.38" width="37.84" height="16.4"/><ellipse class="cls-6" cx="252.98" cy="289.84" rx="18.92" ry="36.58"/></svg>
