<svg id="Layer_1" data-name="Layer 1" xmlns="http://www.w3.org/2000/svg" width="504" height="908" viewBox="0 0 504 908"><defs><style>.cls-1{fill:#e26713;}.cls-2{fill:#ea8b0f;}.cls-3{fill:#ffbe08;}.cls-4{fill:#fcef51;}.cls-5{fill:#e6e6e6;}.cls-6{fill:#b3b3b3;}.cls-7{fill:#ed1c24;}.cls-8{fill:none;}.cls-9{fill:#999;}.cls-10{fill:#bddee0;}</style></defs><title>raketild</title><path class="cls-1" d="M345.88,785.72l10.54-6.7L374,775.29l17.4,1.38a49.46,49.46,0,0,1,19.14,7.9,27.17,27.17,0,0,1,7.24,5.82,27.55,27.55,0,0,1,6.11,12l3.16,6.7-8.43-3.56,3.26,13-2,16.8-9.36,16.91L407,855.58a9.5,9.5,0,0,0-.72-7.35,9,9,0,0,0-3.52-3.43q-.6,8.61-1.18,17.2l-9.78,16.5L378.9,889.12,360.81,897,358,897l4.54-11.32L360,869.36,351.11,849l-2.64-12.64L346.76,845l-6.28,4.38-.1-6.54-8.74-10.71-3.05-12.22,3.13-10.07,6.44-6.84,3.4-5.17-13.15,9.4,3.16-7.82Z"/><polygon class="cls-2" points="382.75 775.98 399.82 782.48 410.9 798.67 414.83 815.38 412.88 836.27 409.28 841.44 404.64 831.89 401.75 830.1 401.13 843.4 395.47 862.09 384.21 874.93 371.63 881.87 371.49 872.05 363.43 852.13 353.35 834.49 350.29 821.45 344.94 832.77 340.88 835.08 340.69 822 340.53 811.16 343.62 798.85 349.81 788.73 364.79 777.88 382.75 775.98"/><polygon class="cls-3" points="380.73 777.64 394.58 787.87 401.53 801.47 401.83 821.3 395.29 835.51 391.64 823.9 388.76 822.52 391.87 839.85 392.07 853.14 384.28 865.73 377.2 870.95 377.08 863.18 367.13 840.22 355.42 821.99 353.61 810.36 357.24 792.92 364.4 779.73 380.73 777.64"/><polygon class="cls-4" points="381.63 782.54 390.94 790.17 394.36 799.73 392.66 809.58 390.48 814.31 385.25 806.21 381.96 804.83 384.52 812.56 385.94 825.22 384.66 835.66 382.52 843.26 378.52 849.05 378.39 840.66 372.9 828.48 366.01 819.17 358.95 811.5 357.35 800.28 359.45 790.02 364.89 784.63 381.63 782.54"/><rect class="cls-5" x="200.51" y="120.55" width="99.64" height="223.24"/><rect class="cls-5" x="200.4" y="365.23" width="99.64" height="147.57"/><rect class="cls-6" x="206.75" y="343.79" width="85.77" height="21.44"/><rect class="cls-5" x="200.29" y="512.8" width="99.64" height="224.5"/><polyline class="cls-7" points="300.22 120.58 249.83 13.35 200.58 120.52"/><line class="cls-8" x1="249.85" y1="-30.8" x2="249.83" y2="13.34"/><polyline class="cls-9" points="200.4 438.99 146.15 469.86 89.23 737.21 200.23 737.28"/><polyline class="cls-6" points="300.67 439.05 354.88 469.98 411.49 737.4 300.5 737.33"/><rect x="166.17" y="737.27" width="37.84" height="16.4"/><rect x="106.89" y="737.23" width="37.84" height="16.4"/><rect x="231.75" y="737.31" width="37.84" height="16.4"/><rect x="293.55" y="737.34" width="37.84" height="16.4"/><rect x="355.36" y="737.38" width="37.84" height="16.4"/><ellipse class="cls-10" cx="250.98" cy="208.84" rx="18.92" ry="36.58"/><path class="cls-1" d="M157.56,784.62,147,777.91l-17.53-3.76-17.4,1.36A49,49,0,0,0,93,783.39a27.12,27.12,0,0,0-7.25,5.81,27.57,27.57,0,0,0-6.12,12l-3.17,6.7,8.44-3.55-3.28,13,2,16.8,9.34,16.92,3.42,3.32a9.57,9.57,0,0,1,.73-7.35,9.09,9.09,0,0,1,3.54-3.42q.57,8.6,1.15,17.2l9.76,16.51L124.42,888l18.08,7.85,2.86,0-4.52-11.32,2.5-16.32,8.92-20.31,2.65-12.64,1.7,8.62,6.27,4.39.11-6.54,8.76-10.7,3.05-12.22-3.11-10.07-6.43-6.85-3.4-5.17L175,806.16l-3.15-7.82Z"/><polygon class="cls-2" points="120.7 774.83 103.62 781.31 92.52 797.49 88.58 814.2 90.5 835.09 94.09 840.26 98.75 830.72 101.64 828.92 102.24 842.23 107.88 860.93 119.13 873.78 131.69 880.73 131.85 870.92 139.94 851 150.03 833.37 153.1 820.33 158.44 831.67 162.5 833.98 162.71 820.89 162.88 810.06 159.8 797.74 153.62 787.62 138.66 776.75 120.7 774.83"/><polygon class="cls-3" points="122.72 776.5 108.85 786.71 101.89 800.3 101.57 820.13 108.09 834.34 111.75 822.75 114.64 821.36 111.5 838.69 111.29 851.98 119.07 864.58 126.14 869.8 126.27 862.04 136.24 839.09 147.98 820.87 149.8 809.24 146.19 791.8 139.04 778.6 122.72 776.5"/><polygon class="cls-4" points="121.81 781.39 112.49 789.01 109.07 798.57 110.75 808.41 112.93 813.15 118.17 805.05 121.46 803.68 118.88 811.41 117.46 824.06 118.72 834.51 120.85 842.11 124.85 847.9 124.98 839.52 130.49 827.34 137.39 818.04 144.46 810.38 146.07 799.16 143.99 788.9 138.55 783.5 121.81 781.39"/><path class="cls-1" d="M283.27,790.27l9-5.72,15-3.2,14.87,1.18a42.39,42.39,0,0,1,16.36,6.75,23.27,23.27,0,0,1,11.4,15.21l2.71,5.73-7.21-3,2.78,11.14-1.71,14.36-8,14.44L335.52,850a8.13,8.13,0,0,0-.61-6.28,7.65,7.65,0,0,0-3-2.92q-.5,7.34-1,14.69l-8.36,14.1-11,9.08L296,885.32l-2.45,0,3.88-9.67-2.13-14-7.59-17.36-2.26-10.8L284,840.94l-5.37,3.74-.08-5.59-7.47-9.15-2.6-10.44,2.67-8.61,5.5-5.84,2.91-4.42-11.24,8L271,802Z"/><polygon class="cls-2" points="314.78 781.94 329.36 787.49 338.83 801.34 342.18 815.62 340.52 833.46 337.44 837.88 333.48 829.72 331.01 828.19 330.48 839.55 325.65 855.53 316.02 866.5 305.27 872.43 305.15 864.04 298.26 847.02 289.65 831.94 287.04 820.8 282.46 830.47 279 832.45 278.83 821.27 278.7 812.01 281.34 801.48 286.63 792.84 299.42 783.57 314.78 781.94"/><polygon class="cls-3" points="313.05 783.37 324.89 792.1 330.82 803.72 331.07 820.67 325.49 832.81 322.37 822.9 319.91 821.71 322.57 836.52 322.74 847.88 316.08 858.64 310.03 863.1 309.93 856.46 301.43 836.84 291.42 821.25 289.87 811.32 292.97 796.42 299.1 785.14 313.05 783.37"/><polygon class="cls-4" points="313.81 787.55 321.77 794.07 324.69 802.24 323.24 810.65 321.38 814.7 316.91 807.77 314.1 806.59 316.29 813.2 317.5 824.02 316.4 832.95 314.58 839.44 311.16 844.38 311.05 837.22 306.35 826.8 300.47 818.85 294.43 812.3 293.07 802.71 294.86 793.94 299.51 789.33 313.81 787.55"/><path class="cls-1" d="M236.88,790.66l10.54-6.7L265,780.23l17.4,1.38a49.73,49.73,0,0,1,10.89,3.31,49,49,0,0,1,8.24,4.59,27,27,0,0,1,7.25,5.82,27.5,27.5,0,0,1,6.1,12L318,814l-8.44-3.56,3.26,13-2,16.8-9.36,16.91L298,860.52a9.5,9.5,0,0,0-.72-7.35,9.05,9.05,0,0,0-3.53-3.43q-.58,8.6-1.18,17.2l-9.77,16.5L269.9,894.06l-18.09,7.83-2.86.05,4.54-11.32L251,874.3,242.11,854l-2.64-12.64L237.75,850l-6.27,4.39-.1-6.54-8.74-10.71-3-12.23,3.13-10.06,6.44-6.85,3.4-5.16-13.15,9.4,3.15-7.82Z"/><polygon class="cls-2" points="273.75 780.92 290.82 787.41 301.9 803.61 305.82 820.32 303.88 841.21 300.28 846.37 295.64 836.83 292.75 835.03 292.13 848.34 286.47 867.03 275.21 879.87 262.63 886.81 262.49 876.99 254.42 857.07 244.35 839.43 241.29 826.38 235.94 837.71 231.88 840.02 231.69 826.93 231.53 816.1 234.62 803.78 240.81 793.67 255.78 782.82 273.75 780.92"/><polygon class="cls-3" points="271.73 782.58 285.58 792.81 292.53 806.41 292.82 826.24 286.28 840.45 282.64 828.84 279.75 827.45 282.87 844.79 283.07 858.08 275.28 870.67 268.2 875.89 268.08 868.12 258.13 845.15 246.41 826.92 244.6 815.29 248.23 797.86 255.4 784.66 271.73 782.58"/><polygon class="cls-4" points="272.63 787.48 281.94 795.11 285.35 804.67 283.66 814.51 281.48 819.25 276.25 811.15 272.95 809.76 275.52 817.5 276.93 830.15 275.66 840.6 273.52 848.2 269.51 853.99 269.39 845.6 263.89 833.41 257.01 824.11 249.94 816.44 248.35 805.22 250.44 794.96 255.89 789.56 272.63 787.48"/><path class="cls-1" d="M281.55,793.69,271,787l-17.52-3.76-17.41,1.36a50.19,50.19,0,0,0-10.89,3.3,49.12,49.12,0,0,0-8.25,4.58,27.16,27.16,0,0,0-7.25,5.81,27.62,27.62,0,0,0-6.12,12l-3.18,6.7,8.44-3.55-3.27,13,2,16.8,9.35,16.92,3.42,3.32a9.52,9.52,0,0,1,.73-7.35,9.08,9.08,0,0,1,3.53-3.42q.58,8.59,1.16,17.2l9.76,16.51,12.92,10.64,18.07,7.85,2.86.05-4.52-11.32,2.51-16.32L276.25,857l2.66-12.64,1.7,8.62,6.27,4.39.1-6.54,8.76-10.7,3.06-12.22-3.11-10.07L289.25,811l-3.39-5.17L299,815.23l-3.15-7.82Z"/><polygon class="cls-2" points="244.69 783.9 227.61 790.38 216.52 806.56 212.57 823.27 214.49 844.16 218.09 849.33 222.74 839.79 225.63 838 226.24 851.3 231.87 870 243.12 882.85 255.69 889.8 255.84 879.99 263.93 860.08 274.03 842.44 277.1 829.4 282.44 840.74 286.49 843.05 286.7 829.97 286.87 819.13 283.8 806.81 277.62 796.69 262.66 785.82 244.69 783.9"/><polygon class="cls-3" points="246.71 785.57 232.85 795.78 225.88 809.37 225.57 829.2 232.09 843.41 235.75 831.82 238.63 830.43 235.5 847.76 235.29 861.05 243.06 873.65 250.14 878.88 250.26 871.11 260.24 848.16 271.98 829.94 273.8 818.31 270.19 800.87 263.04 787.67 246.71 785.57"/><polygon class="cls-4" points="245.81 790.46 236.49 798.09 233.06 807.64 234.75 817.49 236.92 822.22 242.16 814.13 245.46 812.75 242.88 820.48 241.45 833.13 242.72 843.58 244.85 851.18 248.84 856.97 248.98 848.59 254.49 836.41 261.38 827.11 268.46 819.45 270.07 808.23 267.98 797.97 262.55 792.57 245.81 790.46"/><path class="cls-1" d="M227.68,792.24l-9-5.74-15-3.2-14.87,1.16a42.16,42.16,0,0,0-16.36,6.73,23.19,23.19,0,0,0-6.19,5,23.5,23.5,0,0,0-5.23,10.22l-2.71,5.73,7.21-3-2.8,11.14,1.69,14.35,8,14.46,2.92,2.84a8.17,8.17,0,0,1,.63-6.28,7.65,7.65,0,0,1,3-2.92l1,14.69,8.33,14.11,11,9.09,15.45,6.71,2.45,0-3.87-9.67,2.14-13.95,7.62-17.35,2.27-10.8,1.45,7.36,5.36,3.76.09-5.59,7.48-9.15,2.62-10.44-2.66-8.6-5.5-5.86-2.9-4.41,11.23,8L239.9,804Z"/><polygon class="cls-2" points="196.18 783.88 181.59 789.41 172.11 803.24 168.74 817.51 170.37 835.37 173.45 839.78 177.42 831.63 179.89 830.1 180.41 841.47 185.23 857.45 194.84 868.43 205.58 874.37 205.71 865.98 212.62 848.97 221.25 833.9 223.87 822.76 228.44 832.44 231.9 834.42 232.08 823.24 232.22 813.98 229.6 803.45 224.32 794.81 211.53 785.52 196.18 783.88"/><polygon class="cls-3" points="197.91 785.3 186.06 794.02 180.11 805.64 179.84 822.59 185.41 834.73 188.54 824.82 191.01 823.64 188.32 838.45 188.14 849.8 194.79 860.57 200.83 865.03 200.94 858.39 209.46 838.78 219.5 823.21 221.05 813.28 217.97 798.38 211.86 787.1 197.91 785.3"/><polygon class="cls-4" points="197.14 789.48 189.17 796 186.24 804.16 187.68 812.57 189.54 816.62 194.02 809.7 196.83 808.52 194.63 815.13 193.41 825.95 194.49 834.88 196.31 841.37 199.73 846.32 199.84 839.15 204.55 828.74 210.44 820.8 216.49 814.25 217.87 804.66 216.08 795.9 211.44 791.28 197.14 789.48"/></svg>
