<svg id="Layer_1" data-name="Layer 1" xmlns="http://www.w3.org/2000/svg" width="1080" height="1920" viewBox="0 0 1080 1920"><defs><style>.cls-1,.cls-10,.cls-13,.cls-17,.cls-19,.cls-2,.cls-3,.cls-4,.cls-5,.cls-6,.cls-7,.cls-8,.cls-9{stroke:#000;}.cls-1,.cls-10,.cls-13,.cls-14,.cls-17,.cls-19,.cls-2,.cls-3,.cls-4,.cls-5,.cls-6,.cls-7,.cls-8,.cls-9{stroke-miterlimit:10;}.cls-2{fill:#4398e2;}.cls-3{fill:#2bc171;}.cls-4{fill:#e6e6e6;}.cls-4,.cls-5,.cls-6,.cls-7{stroke-width:3px;}.cls-10,.cls-5,.cls-8{fill:none;}.cls-6{fill:#999;}.cls-7,.cls-9{fill:#ccc;}.cls-10{stroke-width:2px;}.cls-11,.cls-13{fill:#f2f2f2;}.cls-12{fill:#666;}.cls-14{fill:#fcee21;stroke:#fcee21;stroke-width:10px;}.cls-15{fill:#ff0;}.cls-16,.cls-19{fill:#b0f25a;}.cls-17,.cls-18{fill:#fff;}.cls-19{stroke-width:4px;}</style></defs><title>spilmobil</title><rect class="cls-1" x="-2.94" y="3" width="1076.68" height="1914.09"/><ellipse class="cls-2" cx="377.81" cy="1037.05" rx="307.31" ry="275.74"/><polygon class="cls-3" points="70.5 1088.98 91.93 1040.98 91.93 1007.59 144.53 919.93 193.23 905.33 218.56 863.59 271.16 842.72 302.33 821.85 302.33 794.71 356.87 778.02 382.2 794.71 430.9 794.71 491.29 821.85 526.36 794.71 526.36 821.85 508.83 844.8 446.49 880.28 430.9 880.28 409.47 863.59 382.2 863.59 321.81 842.72 378.3 905.33 401.68 905.33 467.92 905.33 481.55 919.93 446.49 986.72 421.16 1026.37 408.5 1148.46 143.56 1085.85 70.5 1088.98"/><polygon class="cls-3" points="566.28 1091.83 581.14 1052.83 597.85 995.27 581.14 963.7 545.86 963.7 545.86 995.27 523.58 1028.69 523.58 1052.83 508.72 1091.83 545.86 1091.83 566.28 1091.83"/><polygon class="cls-4" points="-377 967.42 -377 1916.27 1427.86 1916.27 1427.86 774.3 1301.6 787.3 1268.17 805.87 1160.48 831.87 1136.34 848.58 1112.2 885.72 1017.5 893.14 943.22 943.28 889.38 946.99 698.12 1047.26 558.86 1102.97 261.76 1102.97 170.77 1112.25 120.64 1075.11 124.35 1058.4 76.07 1037.98 -40.91 1062.12 -143.04 1095.54 -167.18 1125.25 -146.75 1158.67 -170.89 1145.67 -193.17 1166.1 -274.87 1021.26 -377 967.42"/><polyline class="cls-5" points="-236.98 1088.45 -148.61 1286.8 -111.47 1316.51 -52.05 1401.92 12.94 1552.33 40.76 1595.6 63.08 1630.31 133.63 1708.3"/><polyline class="cls-5" points="451.75 1916.27 419.59 1864.28 336.03 1827.14 170.77 1678.59 63.08 1630.31 89.86 1626.43 178.2 1613.6 285.9 1569.04 306.32 1535.61 258.04 1489.19 157.77 1468.77 63.08 1452.06 -23.17 1468.77 40.79 1595.03"/><polyline class="cls-6" points="-365.86 1154.96 -332.44 1179.1 -284.16 1270.08 -217.31 1398.21 -52.05 1725.01 103.92 1856.85 161.49 1856.85 258.04 1901.41 286.32 1916.27"/><polyline class="cls-7" points="-365.86 1468.77 -221.02 1663.74 -196.88 1663.74 -122.61 1708.3 -39.05 1830.85 73.63 1916.27"/><polyline class="cls-8" points="-81.76 1431.63 -20.48 1600.6 9.23 1630.31 63.08 1708.3"/><line class="cls-8" x1="660.98" y1="1830.85" x2="1283.03" y2="1799.29"/><polyline class="cls-9" points="943.22 943.28 813.24 1036.12 727.83 1088.11 610.85 1114.11 731.54 1140.1 755.68 1154.96 839.24 1140.1 943.22 1154.96 943.22 1175.38 1008.21 1175.38 1071.35 1199.52 1127.05 1199.52 1154.9 1229.23 1210.61 1229.23 1268.17 1249.66 1357.3 1249.66 1374.01 1236.66 1427.86 1249.66"/><polyline class="cls-9" points="839.24 1088.11 907.94 1036.12 995.22 978.56"/><polyline class="cls-8" points="1028.64 943.28 1076.92 908 1112.2 885.72"/><polyline class="cls-10" points="1220.82 914.5 1113.13 1020.34 1020.28 1096.47 996.14 1115.04 996.14 1141.03 944.15 1155.89"/><polyline class="cls-10" points="707.98 1092.52 786.32 1089.04 890.3 1020.34 840.17 1074.19 918.16 1037.05"/><polyline class="cls-10" points="132.71 1074.19 73.29 1115.04 -39.98 1141.03 -145.82 1155.89"/><polyline class="cls-10" points="-172.75 1226.91 -82.69 1226.45 -6.56 1226.45 132.71 1178.17 218.12 1141.03 171.7 1115.04"/><polyline class="cls-8" points="420.52 1865.21 481.8 1774.22 524.5 1748.22 346.25 1709.23 346.25 1677.66 420.52 1631.24 420.52 1594.11 593.21 1553.25 489.22 1512.4 361.1 1469.7 286.83 1399.13 307.25 1371.28 110.42 1345.29 134.56 1313.72 132.71 1285.87 286.83 1250.59 286.83 1226.45 327.68 1204.17 257.12 1200.45 232.98 1185.6 303.54 1155.89 286.83 1141.03 235.68 1115.04"/><polyline class="cls-8" points="1414.87 1414.92 1357.3 1398.21 1331.31 1370.35 1283.03 1370.35 1221.75 1344.36 1041.64 1344.36 1041.64 1312.79 917.23 1312.79 813.24 1284.94 813.24 1249.66 660.98 1249.66 631.27 1227.38 660.98 1199.52 660.98 1171.67 525.43 1154.96 479.01 1154.96 503.15 1114.11 479.01 1102.97"/><path class="cls-11" d="M680.71,1619.74l-88,52.06,1.82,2.36c44.23-50.35,101.21-86.72,159.38-118.87,16.6-9.17,33.37-18,50.14-26.9,1.7-.9.19-3.5-1.52-2.59-58.88,31.1-118.44,62.68-169.34,106.15A400.81,400.81,0,0,0,592.43,1672c-1.09,1.24.29,3.27,1.82,2.36l88-52.06a1.5,1.5,0,0,0-1.51-2.59Z"/><path class="cls-11" d="M677.42,1613.18l-130.27,68.21,1.82,2.35a719.08,719.08,0,0,1,134-123.3q20.88-14.79,42.77-28l-1.51-2.59a884.61,884.61,0,0,1-151.41,83.86l1.51,2.59a256.17,256.17,0,0,1,66.92-34.54c1.82-.62,1-3.52-.8-2.89a258.77,258.77,0,0,0-67.63,34.84,1.5,1.5,0,0,0,1.51,2.59,884.24,884.24,0,0,0,151.41-83.86c1.57-1.08.16-3.61-1.51-2.59a722.3,722.3,0,0,0-142.44,113.26q-18.15,18.64-34.9,38.56a1.51,1.51,0,0,0,1.82,2.36l130.27-68.21c1.71-.89.19-3.48-1.52-2.59Z"/><path class="cls-11" d="M-127.22,1131.09A1117.22,1117.22,0,0,0,74.4,1080.67c7.23-2.54,4.12-14.14-3.19-11.57a1117.22,1117.22,0,0,1-201.62,50.42c-7.61,1.16-4.38,12.73,3.19,11.57Z"/><path class="cls-12" d="M-124.54,1127.94,75.2,1079c3.44-.85,5.91-5.71,3.58-8.82-8.09-10.8-21-11.43-33.37-9.47-16.63,2.63-33.14,7.08-49.57,10.75q-51.37,11.46-102.6,23.61c-13.39,3.18-31,6.25-35.28,21.69-.77,2.77.57,5.2,2.75,6.78,16,11.52,36,12,54.78,9.27,22.21-3.21,44.09-9.78,65.86-15.07,23.06-5.61,46.18-11,69.18-16.84,15.9-4,38.14-11.5,42.36-29.84,2.44-10.61-5.46-18.59-15.6-19.38-10.87-.86-18.74,7.32-28.93,9.11-7.59,1.32-4.37,12.89,3.19,11.57,7.83-1.37,14.07-7.28,21.76-8.55,2.09-.35,5.49-.56,7.15,1.11,2.67,2.71-.95,7.49-2.79,9.63-10.36,12-29,14.47-43.56,18l-59.81,14.54c-18.48,4.5-36.94,9.7-55.66,13.1-17.62,3.21-36.71,3.93-51.87-7l2.76,6.78c1.72-6.27,8.74-8.63,14.39-10.25,8.84-2.54,17.93-4.35,26.87-6.45q28.74-6.76,57.52-13.3T25.93,1077c8.31-1.83,16.74-4.3,25.23-5.11,5.66-.55,13.44-.83,17.26,4.27l3.59-8.81-199.74,49c-7.49,1.84-4.32,13.42,3.19,11.58Z"/><path class="cls-12" d="M12.83,1494.3a910.27,910.27,0,0,1,127.75,5.92q31.95,3.75,63.56,9.86c13.29,2.56,31,5.41,39.7,17.13,10.33,13.9-6.17,26.28-17.23,32.15-17.39,9.24-36,16.45-54.79,22.32a363.93,363.93,0,0,1-58.25,13.09c-9.63,1.34-19.34,2.23-29,2.75-8.26.45-17.79,1.41-23.22-6.13-4.35-6-5.4-14.28-6.43-21.44-1.24-8.65-2.12-17.25-4.92-25.58a89.63,89.63,0,0,0-33.76-44.88l2.75,6.78c2.57-8.49,14-6.19,19.56-2.82C47,1508.6,54.57,1516.8,61.35,1524c11.68,12.47,24.19,34.34,10.46,50H80.3a100.89,100.89,0,0,1-21.82-45.74c-1.57-8-1.3-15.86-1.94-23.9-.5-6.32-1.91-13-6.95-17.37-12.73-11-29.47,3.91-28.08,18.15,1.56,16,17.62,27.76,29.35,36.78a195.62,195.62,0,0,0,51.42,28.3l-3.59-8.82A41.44,41.44,0,0,1,78,1577.38c-6.14,2.15-5.49,11.87,1.6,11.79a394.27,394.27,0,0,0,72.6-7.59q17.53-3.49,34.68-8.64c10.77-3.22,22.47-6.28,32.27-11.93,7.34-4.22,14.39-11,14.48-20,.1-9.52-7.54-16-15.55-19.5-10.63-4.69-22-8.15-33-11.84-11.55-3.85-23.2-7.43-35-10.36-26.87-6.68-54.42-9.66-81.92-5.52-4.26.64-6,7.37-2.65,10q34.17,27.08,66.67,56.15l1.21-9.43c-14.86,8-28.1-7.92-34.34-19.44-2.73-5-6.45-11.73-5.31-17.75,1.39-7.36,10-1,13.13,1.54,15,12.09,29.73,24.56,44.34,37.07,1.36,1.16,2.51,2.56,3.81,3.73.07.06.52,1.11.63,1.18l1.25-.06c1.46.31,1.67-.07.62-1.12-.25-1.4-1.86-3.25-2.55-4.52-1.11-2-2.21-4.1-3.16-6.21-3-6.62-5.36-15.1-1-21.65,3.16-4.77,10.26-8.88,14.56-3.07,4,5.33,2.67,14.06,1.93,20.15l7.59-5.78c-1.65-.25-4.29-1.24-4-3.49l-5.79,4.4A36.83,36.83,0,0,1,189,1547.32l-.94-7.27a4.17,4.17,0,0,1-7.1,0l-.94,7.27a40.06,40.06,0,0,1,16.14-8.62l-5.84-1.55c.88,1,.39,2-.22,2.9-4.19,6.51,6.2,12.54,10.36,6.05,3.69-5.73,2.68-12.41-1.65-17.43a6,6,0,0,0-5.84-1.55,53.63,53.63,0,0,0-21.44,11.71,6.09,6.09,0,0,0-.94,7.27c5.9,10.37,22,10.38,27.83,0a6.16,6.16,0,0,0-.94-7.27,49.28,49.28,0,0,0-32.37-15.36c-2.31-.19-5.46,2-5.78,4.41-1.13,8.33,3.42,16.92,12.36,18.25,4.2.62,7.08-1.59,7.6-5.79,1.18-9.65,1.35-21.31-5.68-29-7.47-8.16-19.25-7.42-27.38-.74-9.31,7.64-11.42,19.61-8.36,30.87,1.64,6,4.54,11.76,7.59,17.21,2.73,4.89,5.77,10.06,12.14,9.67,5-.3,9-4.68,9.87-9.47,1.22-6.46-3.23-11.58-7.76-15.47-11.58-10-23.45-19.61-35.17-29.4-8.72-7.29-20-19.92-32.75-15.25-10,3.67-11.25,15-9.11,24.06,5.52,23.32,30.94,52,56.78,38,3.27-1.77,4.05-6.89,1.21-9.43q-32.47-29.07-66.66-56.15l-2.65,10c43-6.48,85.88,7,126,21.21,4.53,1.6,9.11,3.12,13.59,4.88,3.16,1.24,7.17,2.84,9.28,5.67,5,6.66-4.63,12.44-9.64,14.92-9,4.42-19.14,7.1-28.68,9.91q-15.34,4.52-31,7.73a376.58,376.58,0,0,1-71.26,7.53L81.21,1589a55,55,0,0,0,27.85-21.41c2.35-3.46-.22-7.56-3.59-8.81a183.39,183.39,0,0,1-37.6-19.21,172.85,172.85,0,0,1-16.93-12.81c-5.07-4.35-10.6-8.94-14.31-14.56-3.09-4.69-5.12-11.2-.1-15.38,4.83-4,7.21,1.74,7.82,5.9.89,6,.33,12.16,1,18.18a111.24,111.24,0,0,0,26.49,61.71c2,2.36,6.48,2.29,8.49,0,8.58-9.81,10.76-22.68,8.13-35.25-2.79-13.36-11.53-24.61-20.88-34.14-9-9.2-19.64-21.2-32.7-24.19-11.25-2.58-24,2.53-27.48,14.1-.82,2.7.6,5.26,2.76,6.77a76.48,76.48,0,0,1,30.16,44.28c3.62,14.85,2.07,32.11,11.79,44.87,5.51,7.23,13.59,10.42,22.53,10.77,10.44.42,21.21-.88,31.57-2.07a373.78,373.78,0,0,0,63.63-12.87,369.06,369.06,0,0,0,59.53-23.41c14.2-7.07,30.76-18.6,29.61-36.55-1.05-16.41-16.09-25.88-30.07-31-8.8-3.22-18.09-4.75-27.27-6.45q-16.68-3.11-33.48-5.56a919,919,0,0,0-155.3-9.57c-7.71.18-7.73,12.18,0,12Z"/><path class="cls-12" d="M232.36,1534.79a649,649,0,0,0-108.25,20.81q-13.19,3.75-26.21,8.05-6.29,2.08-12.52,4.3c-3.66,1.29-9,4.48-13,4.11-3.43-.33-5.19-5.56-6.75-8.24L58.11,1551l-15-25.72c-4.22-7.24-8-14.82-15.58-19.18-6.69-3.86-14.28-3.47-18.68,3.36-1.53,2.36-.76,5.29.93,7.27a333.07,333.07,0,0,1,33.75,47.1c3.93,6.63,14.31.6,10.36-6.06a351.85,351.85,0,0,0-35.62-49.53l.94,7.27c.18-.29,3,1.35,3.83,2,3.08,2.32,4.8,5.4,6.71,8.67l13.49,23.15c4.67,8,9.31,16,14,24,3.8,6.49,8.59,11.48,16.71,10.67,8-.78,16-5,23.54-7.54q12.56-4.25,25.26-8,25-7.29,50.47-12.51,29.33-6,59.13-9.18c7.6-.81,7.68-12.82,0-12Z"/><path class="cls-11" d="M719.31,1653.67a634.94,634.94,0,0,1,115.56-152.82l-9.43-7.27A695.77,695.77,0,0,1,696.3,1638l10.24,4.24c5.33-60.49,36.74-117.21,84.51-154.53l-9.42-7.27a1239.38,1239.38,0,0,1-81.39,130.34l10.36,6a321,321,0,0,1,115.88-118.64l-8.82-6.78A156.38,156.38,0,0,1,740,1579.51l8.21,8.21a269.39,269.39,0,0,1,110.18-125.56l-8.81-6.77c-27.6,92.08-103.12,166.87-193.64,197.82a285.12,285.12,0,0,1-78.58,15.17l5.18,9a399,399,0,0,1,150.82-140.6l-7.28-9.42a456.74,456.74,0,0,1-107.35,82.26l7.27,9.42a372.84,372.84,0,0,1,133.84-70.26l-5.84-10q-64.32,69.73-132.34,135.9l9.42,7.27a373.19,373.19,0,0,1,86.54-89.44l-7.27-9.42a294.07,294.07,0,0,1-103.59,58.39l6.78,8.82a182.59,182.59,0,0,1,91.68-71.79l-5.83-10A421.94,421.94,0,0,1,592,1660.8l8.82,6.77a393.28,393.28,0,0,1,22.57-69.28c2.21-5.09-2.59-11.61-8.21-8.2a342.08,342.08,0,0,1-148.87,48.36l3,11.18a935.14,935.14,0,0,1,178.79-62l-4.62-11a259,259,0,0,1-75.35,30.64l7.38,7.38a81.82,81.82,0,0,1,54.74-52.85l-6.78-8.81A124.47,124.47,0,0,1,551,1609.85c-28.46,8.22-63.18,5-84.86,28.77-2.53,2.79-2.29,7.48,1.22,9.43a410.29,410.29,0,0,0,113.75,42.7c6.43,1.37,10.79-7.49,4.62-11l-62.45-35.23-1.44,11a70.19,70.19,0,0,1,55.48,15.54l5.84-10A178.37,178.37,0,0,1,532,1632.88l-1.22,9.43a99.56,99.56,0,0,1,44.46-19c3.2-.52,10.36-2.25,12.61,1s-.12,10.52-.89,13.9a74.23,74.23,0,0,1-4.77,14.36,77.57,77.57,0,0,1-18.79,25.46l10.24,4.24c2.09-38.69,20.7-75.18,50.31-100l-10-2.65c18,45.88.58,102.37-41,129.32l9,5.18a176.24,176.24,0,0,1,23.23-88l-11.18-3A99.82,99.82,0,0,1,584.2,1660l9.43-1.22a174.78,174.78,0,0,1-35.07-40.28c-4.18-6.64-13.55-.87-10.36,6.06,27.91,60.68,58.17,128.66,37.36,196.32a119.82,119.82,0,0,1-24.78,44.75l7.27-.94c-20.49-8.66-26.86-31.1-26.35-51.71.65-26.62,14.17-50.2,23.68-74.41,6.06-15.42,10.56-31.44,10.45-48.13-.06-7.72-11.93-7.73-12,0q-.76,80.13-7.49,160l10.24-4.24c-14.84-17.58-18.41-42.28-15.07-64.48,4-26.27,16.49-50.23,28.57-73.53l-11-1.44A853.86,853.86,0,0,1,582.3,1817.2c.42,7.92,11,7.49,12,0,3.89-29.77,8.31-61.77,26.5-86.66,17.29-23.67,45.54-34.47,73.36-39.84,16.36-3.16,33-4.56,49.56-5.76l-3-11.18a271.29,271.29,0,0,1-100.2,46.74l7.38,7.39a112,112,0,0,1,52.2-73.63l-7.27-9.43A547.22,547.22,0,0,1,594,1729.89l8.2,8.21a484.25,484.25,0,0,1,197.72-166.35l-7.28-9.43-58.16,60.93c-5.33,5.59,3.14,14.09,8.48,8.49l58.17-60.93c4.92-5.16-1.25-12.19-7.27-9.43A496.16,496.16,0,0,0,628,1685.29a502.34,502.34,0,0,0-36.2,46.76c-3.36,4.91,3.31,11.49,8.21,8.21a561.1,561.1,0,0,0,101.29-86.94c4.49-4.91-1.23-13-7.27-9.43a123.86,123.86,0,0,0-57.72,80.81,6.08,6.08,0,0,0,7.38,7.38,279.88,279.88,0,0,0,103.06-48c4.26-3.17,3.56-11.65-3-11.18-31.31,2.26-63.55,5.24-92.42,18.5-29.85,13.72-49.07,39.13-58.53,70.16-5.51,18.09-8,36.91-10.47,55.6h12a878.3,878.3,0,0,0-13.62-113.62c-.94-5-8.67-5.84-11-1.43-13.3,25.64-26.85,52-30.43,81.09-3.11,25.29,2.11,51.68,18.8,71.46,3.67,4.35,9.85.45,10.25-4.24q6.72-79.85,7.49-160h-12c.2,31.73-17.77,59.5-27.86,88.62-7.71,22.24-9.39,48.23.39,70.13,5.12,11.44,14,20.95,25.63,25.86,2.38,1,5.36,1.21,7.27-.94,22-24.61,32.72-56.56,34.81-89.16,2.32-36.29-6.6-72.2-19.37-105.91-7.79-20.56-17-40.57-26.14-60.54l-10.36,6.06a185.49,185.49,0,0,0,36.94,42.71c2.72,2.3,7.6,2.52,9.42-1.21a115.23,115.23,0,0,0,11.49-43c.42-6.07-8.34-8-11.18-3A188.76,188.76,0,0,0,570,1714.11c0,4.39,5.14,7.7,9,5.18,45.72-29.66,66.46-91.89,46.48-142.87-1.71-4.37-6.36-5.72-10-2.65-32,26.91-51.58,66.84-53.83,108.54-.29,5.49,6.62,7.52,10.25,4.25a88.32,88.32,0,0,0,22.54-32.25,81.87,81.87,0,0,0,5.26-19.13c.91-6.11,1.51-12.74-2.29-18-7.58-10.63-24.79-6.05-35.2-3.29A110.7,110.7,0,0,0,524.73,1632c-2.73,2-4.55,6.78-1.21,9.42A195.67,195.67,0,0,0,580,1672.61c5.53,2,10.38-6.2,5.83-10a83.24,83.24,0,0,0-67.15-18.64c-5.24.83-5.61,8.61-1.43,11l62.45,35.23,4.63-11a399.19,399.19,0,0,1-110.88-41.49l1.21,9.42c10.6-11.62,25.72-15.62,40.69-18.33,15.48-2.81,31.15-4.37,46.07-9.67A137.36,137.36,0,0,0,633.88,1559c2.6-4.47-1.71-10.27-6.78-8.81A94.3,94.3,0,0,0,564,1611.46c-1.47,4.54,3.14,8.37,7.38,7.38A269.89,269.89,0,0,0,649.58,1587c5.87-3.56,2-12.54-4.63-11a949.35,949.35,0,0,0-181.65,63.24c-5.33,2.48-2.79,11.66,3,11.18a355.37,355.37,0,0,0,154.92-50l-8.21-8.21a409.3,409.3,0,0,0-23.77,72.14c-1.13,5,4.16,9.57,8.81,6.78a431.34,431.34,0,0,0,109.8-94.2c3.46-4.17.35-12.2-5.84-10a196,196,0,0,0-98.85,77.3c-2.84,4.33,1.88,10.38,6.77,8.82a308.77,308.77,0,0,0,108.88-61.49c5.06-4.41-1.74-13.48-7.27-9.42a390,390,0,0,0-90.84,93.75c-3.94,5.74,4.66,11.9,9.42,7.27q68-66.15,132.35-135.9c4-4.28.12-11.74-5.84-10a387.4,387.4,0,0,0-139.14,73.35c-5.4,4.44,1.5,12.61,7.27,9.42a467.6,467.6,0,0,0,109.79-84.14c4.79-5-1.26-12.62-7.27-9.42a409,409,0,0,0-127.44,105.79,420.17,420.17,0,0,0-27.68,39.11c-2.34,3.76.67,9.24,5.18,9,49.77-2.38,98.35-17.66,141.18-43a326.37,326.37,0,0,0,107.35-102.68,296.93,296.93,0,0,0,35.26-76.13c1.51-5-4.37-9.4-8.82-6.78a280,280,0,0,0-114.48,129.86c-2.33,5.44,2.5,11.06,8.21,8.21a168.49,168.49,0,0,0,83.17-95.29c1.75-5-4.49-9.33-8.81-6.78a333.29,333.29,0,0,0-120.18,123c-3.85,6.85,5.94,12.24,10.36,6A1238.22,1238.22,0,0,0,792,1486.48c3.44-6.35-4.25-11.31-9.43-7.27-50.33,39.32-82.43,99.49-88,163-.5,5.66,6.67,7.27,10.24,4.24a706.38,706.38,0,0,0,131-146.83c3.86-5.77-4.65-11.92-9.43-7.27A645.74,645.74,0,0,0,709,1647.62c-3.68,6.79,6.68,12.86,10.36,6.05Z"/><path class="cls-11" d="M790.83,1541.12a564.3,564.3,0,0,1-70,118.54l5.87-7.59q-1.65,2.13-3.31,4.24c-5.29,6.74-9.13,12.76-10.31,21.53-1.08,8,0,16.93,4.45,23.91A44.73,44.73,0,0,0,731,1715.21c7.18,4.62,20.75,7,28.9,3.78,12.51-4.94,24.46-10.4,35.41-18.26a218.86,218.86,0,0,0,29.91-25.38c16.93-17.48,31.2-37.5,45.34-57.25,7.25-10.13,14.46-20.29,22.06-30.16l-5.86,7.59c11.72-15.18,24.42-29.72,39.64-41.5l-7.59,5.87a124.9,124.9,0,0,1,26.09-15.43l-9,3.78q4.41-1.85,8.95-3.35L916,1476.36a556.75,556.75,0,0,1-97.48,53.34l9-3.79a556.23,556.23,0,0,1-83.8,27.65l46.13,46.13q2.06-6.15,4.57-12.11l-3.78,9a166.73,166.73,0,0,1,21.16-35.73l-5.86,7.59A178,178,0,0,1,836.43,1538l-7.59,5.86a178.43,178.43,0,0,1,38.37-22.51l-9,3.78a166.19,166.19,0,0,1,41.41-11.43l-10,1.34c7.27-.94,14.74-1.72,22.06-1l-10-1.34a30.29,30.29,0,0,1,7.2,1.93l-9-3.78a24.45,24.45,0,0,1,3.76,2.36l-7.59-5.87a23.92,23.92,0,0,1,2.64,2.78l-5.86-7.59a22.41,22.41,0,0,1,1.82,3.15l-3.78-9a23.75,23.75,0,0,1,1.31,4.68l-1.34-10a32,32,0,0,1-.11,7.7l1.34-10a54.4,54.4,0,0,1-3.56,12l3.78-9c-4.36,9.86-10.63,19-16.57,27.91q-9.57,14.4-20.14,28.09l5.86-7.59a489.75,489.75,0,0,1-86.78,86.87l7.59-5.86q-6.69,5.14-13.52,10.08c-7.76,5.6-15,12.6-17.24,22.41a38.81,38.81,0,0,0,1.89,24.42,37.6,37.6,0,0,0,44.24,21.71,1125.8,1125.8,0,0,1,131.36-25.67l-10,1.34a1121.83,1121.83,0,0,1,236.7-6.25l-18.93-69.88a746.84,746.84,0,0,1-135.52,74.61l9-3.78a751.07,751.07,0,0,1-84,29.53l19.94,72.32a541.67,541.67,0,0,1,83.05-18.08l-10,1.34a538.67,538.67,0,0,1,120.73-2.46v-75c-54.61,6.36-109.27,12.74-163.52,21.81-25.43,4.25-50.77,9.14-75.89,15-24.79,5.74-49.24,12.71-73.75,19.49-27.89,7.7-56,14.94-84.68,18.84l10-1.34a299.36,299.36,0,0,1-37.24,2.71c-11.37.07-22.61-1-33.93-1.85-13.22-1-26.91-.58-39.77,2.93-17.38,4.74-30.79,14.61-41.08,29.17-16.58,23.44-15.73,58.36,5,79,13.83,13.75,33,17,51.74,16.2l37.91-1.55L1003.82,1866l153.4-6.27,77.7-3.18c28.2-1.16,56.79-1.17,82.45-14.52,42.92-22.34,56.16-73,60.05-117.33,4.25-48.64,2.36-98.5-1.89-147.06-2-22.88-3.76-46.73-11.54-68.51-9-25.14-24.08-48.49-48.29-61.36-23.33-12.41-49.63-14.66-75.58-12.94-23.77,1.58-47.07,3.49-70.93,1.9-12.46-.83-24.86-2.22-37.23-3.86l10,1.34c-36.09-4.88-72-11.19-108-17l-109.4-17.55L816.11,1382.3c-34-5.45-68.11-10.69-101.87-17.62-37.78-7.77-75.17-17.81-110.82-32.69l9,3.78a417.1,417.1,0,0,1-91.72-53.46l7.59,5.87a424.1,424.1,0,0,1-75.68-75.54l5.86,7.59a417.51,417.51,0,0,1-30.68-45.81c-9.82-17-34.35-24.39-51.31-13.46-17.14,11.06-24,33.13-13.46,51.31,29.59,51.21,69.31,95.78,116,131.87,49.85,38.51,106.76,65,167.48,81.57,63.46,17.27,129.21,25.63,194,36l206,33c36.85,5.91,73.72,12.57,110.9,16a359.69,359.69,0,0,0,51.06,1.42c14.38-.72,28.7-2.59,43.11-2.93a141.75,141.75,0,0,1,20.8.93l-10-1.34a81.34,81.34,0,0,1,19.47,5.1l-9-3.78a64.4,64.4,0,0,1,13.28,7.75l-7.59-5.87a65.59,65.59,0,0,1,10.84,11l-5.86-7.59a83.15,83.15,0,0,1,9.76,17.16l-3.78-9c5.06,12.3,7.77,25.32,9.6,38.46l-1.34-10c4.19,31.33,5.76,63.2,6.33,94.79.53,29.47.83,59.56-3,88.85l1.34-10c-1.81,13.25-4.71,26.34-9.88,38.72l3.78-9a88,88,0,0,1-10.37,18.12l5.87-7.59a67.18,67.18,0,0,1-11.72,11.75l7.59-5.86a63.65,63.65,0,0,1-13.23,7.53l9-3.78a86.6,86.6,0,0,1-19.93,4.91l10-1.34c-19.35,2.35-39.12,2.22-58.58,3l-61.76,2.53-124.52,5.1-248.05,10.15-68.83,2.82-34.91,1.43c-11.09.45-22.69,2-33.74.63l10,1.34a32,32,0,0,1-6.37-1.75l9,3.78a23.32,23.32,0,0,1-4.25-2.59l7.58,5.87a21.89,21.89,0,0,1-2.88-3.05l5.87,7.59a22.47,22.47,0,0,1-2-3.58l3.78,9a25.39,25.39,0,0,1-1.36-5l1.34,10a30.3,30.3,0,0,1,.08-7.67l-1.34,10a38.59,38.59,0,0,1,2.19-7.74l-3.78,9a38.64,38.64,0,0,1,4.76-8.08l-5.86,7.59a35.82,35.82,0,0,1,4.93-4.92l-7.59,5.86a35.77,35.77,0,0,1,6.85-3.93l-9,3.78a57.13,57.13,0,0,1,14.2-3.69l-10,1.34c11.79-1.29,23.53.17,35.29,1.07a258.31,258.31,0,0,0,37.22.1c28.63-1.94,57-7.29,84.83-14.23,25.14-6.28,50-13.75,75-20.35,25.53-6.72,51.33-12.38,77.27-17.24,29.49-5.53,59.16-10,88.89-14l-10,1.34c30.72-4.12,61.5-7.73,92.28-11.31,10.28-1.2,18.92-3.39,26.52-11,6.5-6.5,11.4-17.17,11-26.51-.43-9.7-3.62-19.76-11-26.52-7.71-7.07-16.11-10-26.52-11a564.35,564.35,0,0,0-213.75,21.88A39.2,39.2,0,0,0,904,1717.41c-4.7,8-6.7,19.89-3.78,28.9,6.21,19.18,25.93,32,46.13,26.19A782.77,782.77,0,0,0,1129.09,1694q23.39-13.85,45.7-29.38c6.87-4.78,12-10.1,15.34-17.94,3.14-7.45,4.45-16.5,1.89-24.41a44.67,44.67,0,0,0-9.64-16.55c-6.83-7.44-16.89-10.22-26.52-11-99.44-7.93-199.57-2.16-297.69,15.61q-40.49,7.34-80.34,17.65l28.9,68.54c30.45-22,58.93-46.46,84.11-74.35A577.13,577.13,0,0,0,928.09,1576c9.87-13.5,20.24-27.64,27.63-42.68,12.21-24.89,16.26-55.24-4.63-77.15-19.85-20.81-48.48-18.29-74.21-14.35-34.85,5.33-66.63,22-94,43.62-30.59,24-53,57.55-65.34,94.33-4.18,12.49.58,27.42,9.64,36.48,9.67,9.67,23.37,12.84,36.49,9.64a582.29,582.29,0,0,0,190.24-84.76c7.78-5.33,15-12.83,17.24-22.41a38.81,38.81,0,0,0-1.89-24.42c-6.91-16.37-26.4-27.63-44.24-21.71-26,8.6-48.61,23.52-67.88,42.85-17.68,17.73-32.37,38.4-46.9,58.71-7.51,10.48-15,21-22.85,31.2l5.86-7.59c-11.59,14.93-24.13,29.22-39.07,40.92l7.59-5.87a128,128,0,0,1-27.35,16.29l9-3.78-3.34,1.36,36.49,62.67C808.08,1669,835.1,1626,855.59,1579c4.18-9.59,6.68-18.37,3.78-28.89-2.4-8.7-9.12-18.13-17.23-22.41-8.71-4.6-19.25-6.91-28.9-3.78-8.66,2.8-18.61,8.5-22.41,17.23Z"/><path class="cls-11" d="M339.56,1313.43c50.68,88.74,153,120,244.43,148.12,25.77,7.91,51.43,16.23,76.28,26.7l-9-3.78c23.85,10.15,46.8,22.35,67.46,38.09l-7.59-5.87a235.58,235.58,0,0,1,21.5,18.8l16.55-62.68c-14.91,3-29.82,6.52-44.87,8.71l10-1.34a76.28,76.28,0,0,1-18.24.53l10,1.33a41.57,41.57,0,0,1-9.8-2.53l9,3.78a35.15,35.15,0,0,1-6.25-3.64l7.59,5.87a36.89,36.89,0,0,1-5.84-6l5.86,7.59c-8-10.9-12.63-23.59-22.94-32.89a71.75,71.75,0,0,0-28.6-15.75c-6.1-1.8-12.35-2.81-18.28-5.22l9,3.78c-15.37-6.84-27.5-19.41-42.08-27.73-17.35-9.9-36.19-17.19-54.83-24.24-36-13.63-72.12-27-108.17-40.56-8.63-3.24-21.22-.71-28.9,3.78s-15.2,13.47-17.23,22.41c-2.19,9.6-1.72,20.38,3.78,28.9s12.81,13.63,22.41,17.23l65.48,24.55c20.95,7.85,42.12,15.3,62.77,24l-9-3.78a216,216,0,0,1,47.26,27.1c6.55,5,13.1,9.73,20.62,13.15a108.72,108.72,0,0,0,19.59,7.07,100.54,100.54,0,0,1,12.06,3.44l-9-3.78a32.61,32.61,0,0,1,6.58,3.73l-7.59-5.87a36.59,36.59,0,0,1,4.81,4.83l-5.87-7.59a94.36,94.36,0,0,1,7.4,11.82,120.87,120.87,0,0,0,12.22,17.66c9.1,11.16,23.82,19.17,38,21.28,7.7,1.14,15.06,2.09,22.82,1.42s15.36-1.79,22.95-3.21c12.44-2.35,24.85-5,37.27-7.44s22.91-14.29,26.19-26.2a37.74,37.74,0,0,0-9.65-36.48c-60.51-60-144.33-81.11-223.1-105.87-19.8-6.22-39.41-13.09-58.56-21.15l9,3.79c-25.34-10.77-49.83-23.67-71.76-40.42l7.59,5.87a206.27,206.27,0,0,1-36.45-35.81l5.87,7.59a182.23,182.23,0,0,1-13.93-20.88c-9.74-17-34.41-24.36-51.31-13.46-17.21,11.1-23.87,33.07-13.46,51.31Z"/><path class="cls-11" d="M914.72,1509.45a1035.13,1035.13,0,0,1,191.92,59.65l-9-3.78q28.92,12.24,57.07,26.18c18.58,9.22,37.37,18.58,53.93,31.19l-7.59-5.87a140,140,0,0,1,24.62,24.75l-5.86-7.59a144.59,144.59,0,0,1,18,31.15l-3.78-9a142.06,142.06,0,0,1,9.35,34.71l-1.34-10a90.08,90.08,0,0,1,.53,22.07l1.34-10a40.24,40.24,0,0,1-2.43,9l3.78-9a31.81,31.81,0,0,1-3.14,5.34l5.87-7.59a23.46,23.46,0,0,1-3.74,3.58l7.59-5.86a28,28,0,0,1-3.39,2l9-3.78a26.11,26.11,0,0,1-5,1.53l10-1.34a21.6,21.6,0,0,1-5,.1l10,1.34a19.83,19.83,0,0,1-3.53-1l9,3.78a12.06,12.06,0,0,1-2.14-1.19l7.59,5.87a11.48,11.48,0,0,1-1.9-1.65c-14.16-13.59-39.14-15.13-53,0-13.51,14.72-15.11,38.53,0,53,25.59,24.56,65.94,16.41,84.49-12.25,13.31-20.57,11-46.58,7.07-69.48-6.09-35.34-25.6-70.11-52-94.33-28.37-26.07-64.8-42.49-99.49-58.36a1116.5,1116.5,0,0,0-109.38-43.48,1030.65,1030.65,0,0,0-119.4-32.22c-9.91-2.05-19.95-1.45-28.89,3.78-7.78,4.55-15.2,13.47-17.24,22.41-2.18,9.6-1.71,20.38,3.78,28.9,5.1,7.91,12.89,15.26,22.42,17.23Z"/><path class="cls-11" d="M953.64,1363c-37.95,1.91-76.17,3.23-113.95-1.74l10,1.34c-21.17-2.88-42-7.83-61.75-16.1l9,3.78a176.15,176.15,0,0,1-37.56-21.72l7.59,5.86c-11.51-8.92-22.12-19.34-34.73-26.74-15.58-9.14-32-12.84-49.66-15.06-23-2.89-46.18.65-69.08-2.35l10,1.34a107.32,107.32,0,0,1-25.88-6.89l9,3.78a73.81,73.81,0,0,1-15.59-9l7.59,5.87a55,55,0,0,1-8.75-8.64l5.87,7.59a46.36,46.36,0,0,1-5.57-9.46l3.78,9A49.15,49.15,0,0,1,590.9,1273l1.34,10c-2.07-17-3.17-33.32-13.14-48-8.6-12.62-19.71-23.46-33.31-30.64-27.23-14.37-57.27-14.68-87.19-12.12-10.12.87-19.14,3.6-26.52,11-6.51,6.51-11.4,17.18-11,26.52.43,9.7,3.62,19.76,11,26.52,7,6.39,16.71,11.82,26.52,11,14.25-1.22,28.54-2.31,42.81-.64l-10-1.34a82.93,82.93,0,0,1,20.87,5.44l-8.95-3.78a68.14,68.14,0,0,1,13.7,8.08l-7.59-5.86a57.87,57.87,0,0,1,9.08,9l-5.87-7.59a48.11,48.11,0,0,1,5.7,9.66l-3.78-9a46.91,46.91,0,0,1,2.78,10.44l-1.34-10c1.34,10.76,1.46,21.88,5.43,32.09,4.32,11.1,9.42,19.9,17.58,28.8,12.12,13.22,29.17,21.79,46,27.2,32.18,10.34,65.45,3.56,98.27,7.92l-10-1.34a92.35,92.35,0,0,1,22.39,6l-9-3.78a85.88,85.88,0,0,1,17.39,10.64l-7.59-5.87c15.13,11.89,29.44,24.67,46.43,33.94a239.4,239.4,0,0,0,51.27,20.54c33.61,9.19,69.18,11.83,103.92,11.84,18.49,0,37-.79,55.43-1.72,9.91-.5,19.37-3.84,26.52-11,6.5-6.51,11.4-17.18,11-26.52-.87-19.47-16.52-38.56-37.5-37.5Z"/><path class="cls-11" d="M411.23,1219.38c19.62,0,38.41-17.24,37.5-37.5s-16.47-37.5-37.5-37.5c-19.61,0-38.4,17.25-37.5,37.5s16.48,37.5,37.5,37.5Z"/><path class="cls-11" d="M394.35,1212.63c19.62,0,38.41-17.25,37.5-37.5s-16.47-37.5-37.5-37.5c-19.61,0-38.4,17.25-37.5,37.5s16.48,37.5,37.5,37.5Z"/><path class="cls-11" d="M350.47,1337.55c19.61,0,38.4-17.25,37.5-37.5s-16.48-37.5-37.5-37.5c-19.62,0-38.41,17.25-37.5,37.5s16.47,37.5,37.5,37.5Z"/><path class="cls-11" d="M348.32,1361.34c7.74,32.82,36.62,61.8,70.06,68,10.08,1.87,19.79,1.55,28.9-3.78,7.78-4.55,15.2-13.47,17.23-22.41,2.19-9.6,1.72-20.38-3.78-28.9-5-7.81-12.92-15.47-22.41-17.23a57.61,57.61,0,0,1-10.92-3.17l9,3.78a60.57,60.57,0,0,1-12.32-7.08l7.59,5.86a62.25,62.25,0,0,1-11.05-11.07l5.86,7.59a61.33,61.33,0,0,1-6.48-11l3.78,9a58.42,58.42,0,0,1-3.09-9.46c-4.51-19.11-27.36-32.27-46.13-26.19-19.93,6.44-31,25.65-26.2,46.12Z"/><polygon class="cls-13" points="116.58 902.18 144.65 864.65 167.57 834.85 181.97 819.9 190.72 816.79 195.24 807.31 202.24 804.83 206.14 793.6 223.64 787.39 225.79 776.78 213.54 781.12 209.92 776.49 201.17 779.6 190.67 783.32 183.67 785.8 170.58 776.65 151.33 783.48 139.08 787.82 132.3 802.05 127.89 817.4 125.74 828.01 114.73 835.86 111.97 844.72 108.58 851.83 112.92 864.08 115.52 876.95 108.51 879.43 104 888.92 109.58 904.67 110.82 908.17 116.58 902.18"/><polygon class="cls-13" points="424.57 768.76 470.25 779.2 506.79 788.07 526.3 795.17 532.68 801.91 543.19 802.19 548.29 807.59 560.14 806.59 572.91 820.08 583.48 817.74 574.54 808.3 577.31 803.12 570.93 796.38 563.26 788.29 558.16 782.9 561.21 767.22 547.16 752.39 538.23 742.95 522.48 742.52 506.65 744.72 496.08 747.06 484.45 740.18 475.23 741.24 467.35 741.03 457.91 749.97 447.2 757.56 442.09 752.16 431.59 751.88 419.46 763.37 416.76 765.92 424.57 768.76"/><polygon class="cls-13" points="648.02 901.3 659.33 946.78 667.89 983.39 670.36 1004 667.23 1012.74 671.71 1022.24 669.2 1029.23 675.43 1039.36 669.16 1056.84 676.02 1065.22 680.41 1052.98 686.28 1053.12 689.41 1044.38 693.17 1033.89 695.68 1026.9 711.05 1022.55 717.95 1003.32 722.34 991.09 715.62 976.84 706.51 963.71 699.66 955.33 700.55 941.85 695.44 934.09 692.08 926.97 679.84 922.58 668.24 916.44 670.74 909.45 666.26 899.95 650.53 894.31 647.04 893.06 648.02 901.3"/><polygon class="cls-14" points="147.42 281.39 142.79 278.16 139.71 271.05 136.63 278.81 130.46 281.39 136.63 283.98 139.2 289.15 140.23 291.74 142.79 283.98 147.42 281.39"/><polygon class="cls-15" points="604.25 325.49 592.63 321.41 582.68 328.68 582.97 316.36 572.99 309.15 584.79 305.61 588.57 293.89 595.57 304.02 607.89 303.99 600.42 313.79 604.25 325.49"/><polygon class="cls-15" points="738.62 343.05 727 338.97 717.05 346.23 717.34 333.92 707.36 326.71 719.16 323.17 722.94 311.45 729.94 321.58 742.26 321.55 734.79 331.35 738.62 343.05"/><polygon class="cls-15" points="220.74 589.4 214.82 587.32 209.75 591.02 209.89 584.75 204.81 581.07 210.82 579.27 212.75 573.3 216.32 578.46 222.59 578.45 218.79 583.44 220.74 589.4"/><polygon class="cls-15" points="473.87 624.08 467.95 622 462.88 625.7 463.02 619.42 457.94 615.75 463.95 613.95 465.88 607.97 469.45 613.13 475.73 613.12 471.92 618.11 473.87 624.08"/><polygon class="cls-15" points="341.94 433.85 337.67 432.35 334.01 435.02 334.11 430.49 330.44 427.83 334.78 426.53 336.17 422.22 338.75 425.95 343.28 425.94 340.53 429.54 341.94 433.85"/><polygon class="cls-15" points="364.12 219.09 352.5 215.01 342.56 222.27 342.84 209.96 332.86 202.74 344.66 199.21 348.44 187.49 355.44 197.62 367.76 197.59 360.29 207.38 364.12 219.09"/><polygon class="cls-15" points="650.2 172.27 638.58 168.2 628.63 175.46 628.92 163.15 618.94 155.93 630.73 152.4 634.51 140.68 641.52 150.81 653.83 150.78 646.37 160.57 650.2 172.27"/><polygon class="cls-15" points="793.46 601.9 789.22 600.42 785.6 603.07 785.7 598.58 782.07 595.95 786.36 594.66 787.74 590.39 790.29 594.08 794.78 594.07 792.06 597.64 793.46 601.9"/><polygon class="cls-15" points="608.95 550.01 604.67 548.51 601.01 551.18 601.11 546.65 597.44 544 601.78 542.7 603.17 538.38 605.75 542.11 610.28 542.1 607.54 545.7 608.95 550.01"/><polygon class="cls-15" points="734.1 862.07 726.71 859.53 720.37 864.09 720.57 856.39 714.24 851.89 721.75 849.66 724.17 842.33 728.61 848.65 736.44 848.61 731.67 854.75 734.1 862.07"/><polygon class="cls-15" points="1003.02 737.48 991.4 733.41 981.45 740.67 981.74 728.36 971.76 721.14 983.56 717.61 987.34 705.89 994.34 716.02 1006.66 715.99 999.19 725.78 1003.02 737.48"/><polygon class="cls-15" points="967.48 454.88 955.86 450.8 945.91 458.06 946.2 445.75 936.22 438.54 948.02 435 951.79 423.28 958.8 433.41 971.12 433.38 963.65 443.17 967.48 454.88"/><path class="cls-16" d="M835.76,251.61a5.35,5.35,0,1,1,5.35-5.35A5.35,5.35,0,0,1,835.76,251.61Z"/><path d="M835.76,241.42a4.85,4.85,0,1,1-4.84,4.84,4.85,4.85,0,0,1,4.84-4.84m0-1a5.85,5.85,0,1,0,5.85,5.84,5.84,5.84,0,0,0-5.85-5.84Z"/><path class="cls-16" d="M814.11,248.74c-20.28,0-36.78-12.72-36.78-28.35s16.5-28.34,36.78-28.34,36.77,12.71,36.77,28.34S834.38,248.74,814.11,248.74Z"/><path d="M814.11,192.55c20,0,36.27,12.49,36.27,27.84s-16.27,27.85-36.27,27.85-36.28-12.5-36.28-27.85,16.27-27.84,36.28-27.84m0-1c-20.59,0-37.28,12.91-37.28,28.84s16.69,28.85,37.28,28.85,37.27-12.92,37.27-28.85-16.69-28.84-37.27-28.84Z"/><path class="cls-16" d="M793.22,251.61a5.35,5.35,0,1,1,5.34-5.35A5.36,5.36,0,0,1,793.22,251.61Z"/><path d="M793.22,241.42a4.85,4.85,0,1,1-4.85,4.84,4.84,4.84,0,0,1,4.85-4.84m0-1a5.85,5.85,0,1,0,5.84,5.84,5.85,5.85,0,0,0-5.84-5.84Z"/><ellipse class="cls-17" cx="832.31" cy="210.81" rx="6.52" ry="5.37"/><path class="cls-18" d="M829.15,211.75c-.11,0-.46-.47-.46-1.32s.35-1.32.46-1.32.46.46.46,1.32S829.26,211.75,829.15,211.75Z"/><path d="M829.15,208.61c-.53,0-1,.81-1,1.82s.43,1.82,1,1.82,1-.82,1-1.82-.43-1.82-1-1.82Z"/><ellipse class="cls-18" cx="833.85" cy="211.58" rx="0.17" ry="0.85"/><path d="M833.85,210.14c-.37,0-.68.64-.68,1.44s.31,1.43.68,1.43.67-.64.67-1.43-.3-1.44-.67-1.44Z"/><path d="M832.31,214.62c-2.63,0-4.77-1.75-4.77-3.91s2.14-3.9,4.77-3.9,4.77,1.75,4.77,3.9S834.94,214.62,832.31,214.62Z"/><path d="M832.31,207.31c2.36,0,4.27,1.52,4.27,3.4s-1.91,3.41-4.27,3.41-4.27-1.53-4.27-3.41,1.92-3.4,4.27-3.4m0-1c-2.91,0-5.27,2-5.27,4.4s2.36,4.41,5.27,4.41,5.27-2,5.27-4.41-2.36-4.4-5.27-4.4Z"/><path class="cls-18" d="M830.11,211.55c-.26,0-.65-.56-.65-1.41s.39-1.42.65-1.42.65.57.65,1.42S830.37,211.55,830.11,211.55Z"/><path d="M830.11,209.38a2,2,0,0,1,0,1.52,2,2,0,0,1,0-1.52m0-1.16c-.64,0-1.15.86-1.15,1.92s.51,1.92,1.15,1.92,1.15-.86,1.15-1.92-.52-1.92-1.15-1.92Z"/><circle class="cls-18" cx="833.85" cy="210.81" r="0.94"/><path d="M833.85,210.37a.44.44,0,1,1-.44.44.44.44,0,0,1,.44-.44m0-1a1.44,1.44,0,1,0,1.43,1.44,1.44,1.44,0,0,0-1.43-1.44Z"/><ellipse class="cls-17" cx="795.52" cy="210.81" rx="6.52" ry="5.37"/><path class="cls-18" d="M792.35,211.75c-.11,0-.46-.47-.46-1.32s.35-1.32.46-1.32.46.46.46,1.32S792.47,211.75,792.35,211.75Z"/><path d="M792.35,208.61c-.53,0-1,.81-1,1.82s.43,1.82,1,1.82,1-.82,1-1.82-.43-1.82-1-1.82Z"/><path class="cls-18" d="M797.05,212.42a1.79,1.79,0,0,1-.17-.84,1.84,1.84,0,0,1,.17-.85,2,2,0,0,1,.17.85A1.93,1.93,0,0,1,797.05,212.42Z"/><path d="M797.05,210.14c-.37,0-.67.64-.67,1.44s.3,1.43.67,1.43.67-.64.67-1.43-.3-1.44-.67-1.44Z"/><path d="M795.52,214.62c-2.64,0-4.77-1.75-4.77-3.91s2.13-3.9,4.77-3.9,4.77,1.75,4.77,3.9S798.15,214.62,795.52,214.62Z"/><path d="M795.52,207.31c2.35,0,4.27,1.52,4.27,3.4s-1.92,3.41-4.27,3.41-4.28-1.53-4.28-3.41,1.92-3.4,4.28-3.4m0-1c-2.92,0-5.28,2-5.28,4.4s2.36,4.41,5.28,4.41,5.27-2,5.27-4.41-2.36-4.4-5.27-4.4Z"/><path class="cls-18" d="M793.31,211.55c-.26,0-.65-.56-.65-1.41s.39-1.42.65-1.42.65.57.65,1.42S793.57,211.55,793.31,211.55Z"/><path d="M793.31,209.38a2,2,0,0,1,0,1.52,2,2,0,0,1,0-1.52m0-1.16c-.63,0-1.15.86-1.15,1.92s.52,1.92,1.15,1.92,1.15-.86,1.15-1.92-.51-1.92-1.15-1.92Z"/><path class="cls-18" d="M797.05,211.75a.94.94,0,1,1,.94-.94A.94.94,0,0,1,797.05,211.75Z"/><path d="M797.05,210.37a.44.44,0,1,1-.44.44.44.44,0,0,1,.44-.44m0-1a1.44,1.44,0,1,0,1.44,1.44,1.44,1.44,0,0,0-1.44-1.44Z"/><path class="cls-19" d="M810.08,212.92c.13.35.66,3.73,2.49,4.41,2.06.75,4.9-1.81,6.33-4.22"/><path class="cls-16" d="M920.72,251.61a5.35,5.35,0,1,1,5.34-5.35A5.36,5.36,0,0,1,920.72,251.61Z"/><path d="M920.72,241.42a4.85,4.85,0,1,1-4.85,4.84,4.84,4.84,0,0,1,4.85-4.84m0-1a5.85,5.85,0,1,0,5.84,5.84,5.85,5.85,0,0,0-5.84-5.84Z"/><path class="cls-16" d="M899.06,248.74c-20.28,0-36.78-12.72-36.78-28.35s16.5-28.34,36.78-28.34,36.78,12.71,36.78,28.34S919.34,248.74,899.06,248.74Z"/><path d="M899.06,192.55c20,0,36.28,12.49,36.28,27.84s-16.28,27.85-36.28,27.85-36.28-12.5-36.28-27.85,16.28-27.84,36.28-27.84m0-1c-20.59,0-37.28,12.91-37.28,28.84s16.69,28.85,37.28,28.85,37.28-12.92,37.28-28.85-16.69-28.84-37.28-28.84Z"/><path class="cls-16" d="M878.17,251.61a5.35,5.35,0,1,1,5.35-5.35A5.35,5.35,0,0,1,878.17,251.61Z"/><path d="M878.17,241.42a4.85,4.85,0,1,1-4.84,4.84,4.85,4.85,0,0,1,4.84-4.84m0-1a5.85,5.85,0,1,0,5.85,5.84,5.84,5.84,0,0,0-5.85-5.84Z"/><ellipse class="cls-17" cx="917.27" cy="210.81" rx="6.52" ry="5.37"/><path class="cls-18" d="M914.11,211.75c-.12,0-.46-.47-.46-1.32s.34-1.32.46-1.32.45.46.45,1.32S914.22,211.75,914.11,211.75Z"/><path d="M914.1,208.61c-.52,0-1,.81-1,1.82s.43,1.82,1,1.82,1-.82,1-1.82-.43-1.82-1-1.82Z"/><ellipse class="cls-18" cx="918.8" cy="211.58" rx="0.17" ry="0.85"/><path d="M918.8,210.14c-.37,0-.67.64-.67,1.44s.3,1.43.67,1.43.67-.64.67-1.43-.3-1.44-.67-1.44Z"/><path d="M917.27,214.62c-2.63,0-4.77-1.75-4.77-3.91s2.14-3.9,4.77-3.9,4.77,1.75,4.77,3.9S919.9,214.62,917.27,214.62Z"/><path d="M917.27,207.31c2.35,0,4.27,1.52,4.27,3.4s-1.92,3.41-4.27,3.41-4.27-1.53-4.27-3.41,1.91-3.4,4.27-3.4m0-1c-2.91,0-5.27,2-5.27,4.4s2.36,4.41,5.27,4.41,5.27-2,5.27-4.41-2.36-4.4-5.27-4.4Z"/><path class="cls-18" d="M915.06,211.55c-.26,0-.65-.56-.65-1.41s.39-1.42.65-1.42.65.57.65,1.42S915.32,211.55,915.06,211.55Z"/><path d="M915.06,209.38a1.71,1.71,0,0,1,.15.76,1.74,1.74,0,0,1-.15.76,1.9,1.9,0,0,1-.15-.76,1.86,1.86,0,0,1,.15-.76m0-1.16c-.63,0-1.15.86-1.15,1.92s.52,1.92,1.15,1.92,1.15-.86,1.15-1.92-.51-1.92-1.15-1.92Z"/><circle class="cls-18" cx="918.8" cy="210.81" r="0.94"/><path d="M918.8,210.37a.44.44,0,1,1-.44.44.44.44,0,0,1,.44-.44m0-1a1.44,1.44,0,1,0,1.44,1.44,1.45,1.45,0,0,0-1.44-1.44Z"/><ellipse class="cls-17" cx="880.47" cy="210.81" rx="6.52" ry="5.37"/><path class="cls-18" d="M877.31,211.75c-.12,0-.46-.47-.46-1.32s.34-1.32.46-1.32.46.46.46,1.32S877.42,211.75,877.31,211.75Z"/><path d="M877.31,208.61c-.53,0-1,.81-1,1.82s.43,1.82,1,1.82,1-.82,1-1.82-.43-1.82-1-1.82Z"/><path class="cls-18" d="M882,212.42a1.93,1.93,0,0,1-.17-.84,2,2,0,0,1,.17-.85,1.84,1.84,0,0,1,.17.85A1.79,1.79,0,0,1,882,212.42Z"/><path d="M882,210.14c-.37,0-.67.64-.67,1.44s.3,1.43.67,1.43.67-.64.67-1.43-.3-1.44-.67-1.44Z"/><path d="M880.47,214.62c-2.63,0-4.77-1.75-4.77-3.91s2.14-3.9,4.77-3.9,4.77,1.75,4.77,3.9S883.1,214.62,880.47,214.62Z"/><path d="M880.47,207.31c2.36,0,4.27,1.52,4.27,3.4s-1.91,3.41-4.27,3.41-4.27-1.53-4.27-3.41,1.92-3.4,4.27-3.4m0-1c-2.91,0-5.27,2-5.27,4.4s2.36,4.41,5.27,4.41,5.27-2,5.27-4.41-2.36-4.4-5.27-4.4Z"/><path class="cls-18" d="M878.27,211.55c-.26,0-.65-.56-.65-1.41s.39-1.42.65-1.42.65.57.65,1.42S878.53,211.55,878.27,211.55Z"/><path d="M878.27,209.38a2,2,0,0,1,0,1.52,2,2,0,0,1,0-1.52m0-1.16c-.64,0-1.15.86-1.15,1.92s.51,1.92,1.15,1.92,1.15-.86,1.15-1.92-.52-1.92-1.15-1.92Z"/><circle class="cls-18" cx="882" cy="210.81" r="0.94"/><path d="M882,210.37a.44.44,0,0,1,0,.88.44.44,0,0,1,0-.88m0-1a1.44,1.44,0,1,0,1.44,1.44,1.44,1.44,0,0,0-1.44-1.44Z"/><path class="cls-19" d="M895,212.92c.13.35.66,3.73,2.49,4.41,2.06.75,4.9-1.81,6.32-4.22"/><path class="cls-16" d="M1003.94,251.61a5.35,5.35,0,1,1,5.34-5.35A5.36,5.36,0,0,1,1003.94,251.61Z"/><path d="M1003.94,241.42a4.85,4.85,0,1,1-4.85,4.84,4.84,4.84,0,0,1,4.85-4.84m0-1a5.85,5.85,0,1,0,5.84,5.84,5.85,5.85,0,0,0-5.84-5.84Z"/><path class="cls-16" d="M982.28,248.74c-20.28,0-36.77-12.72-36.77-28.35s16.49-28.34,36.77-28.34,36.78,12.71,36.78,28.34S1002.56,248.74,982.28,248.74Z"/><path d="M982.28,192.55c20,0,36.28,12.49,36.28,27.84s-16.28,27.85-36.28,27.85S946,235.74,946,220.39s16.27-27.84,36.27-27.84m0-1c-20.59,0-37.27,12.91-37.27,28.84s16.68,28.85,37.27,28.85,37.28-12.92,37.28-28.85-16.69-28.84-37.28-28.84Z"/><path class="cls-16" d="M961.39,251.61a5.35,5.35,0,1,1,5.35-5.35A5.35,5.35,0,0,1,961.39,251.61Z"/><path d="M961.39,241.42a4.85,4.85,0,1,1-4.84,4.84,4.85,4.85,0,0,1,4.84-4.84m0-1a5.85,5.85,0,1,0,5.85,5.84,5.84,5.84,0,0,0-5.85-5.84Z"/><ellipse class="cls-17" cx="1000.49" cy="210.81" rx="6.52" ry="5.37"/><path class="cls-18" d="M997.33,211.75c-.12,0-.46-.47-.46-1.32s.34-1.32.46-1.32.46.46.46,1.32S997.44,211.75,997.33,211.75Z"/><path d="M997.33,208.61c-.53,0-1,.81-1,1.82s.43,1.82,1,1.82.95-.82.95-1.82-.42-1.82-.95-1.82Z"/><path class="cls-18" d="M1002,212.42a1.93,1.93,0,0,1-.17-.84,2,2,0,0,1,.17-.85,1.84,1.84,0,0,1,.17.85A1.79,1.79,0,0,1,1002,212.42Z"/><path d="M1002,210.14c-.37,0-.67.64-.67,1.44s.3,1.43.67,1.43.67-.64.67-1.43-.3-1.44-.67-1.44Z"/><path d="M1000.49,214.62c-2.63,0-4.77-1.75-4.77-3.91s2.14-3.9,4.77-3.9,4.77,1.75,4.77,3.9S1003.12,214.62,1000.49,214.62Z"/><path d="M1000.49,207.31c2.35,0,4.27,1.52,4.27,3.4s-1.92,3.41-4.27,3.41-4.27-1.53-4.27-3.41,1.91-3.4,4.27-3.4m0-1c-2.91,0-5.27,2-5.27,4.4s2.36,4.41,5.27,4.41,5.27-2,5.27-4.41-2.36-4.4-5.27-4.4Z"/><path class="cls-18" d="M998.29,211.55c-.26,0-.66-.56-.66-1.41s.4-1.42.66-1.42.64.57.64,1.42S998.54,211.55,998.29,211.55Z"/><path d="M998.28,209.38a2,2,0,0,1,0,1.52,2,2,0,0,1,0-1.52m0-1.16c-.63,0-1.15.86-1.15,1.92s.52,1.92,1.15,1.92,1.15-.86,1.15-1.92-.51-1.92-1.15-1.92Z"/><path class="cls-18" d="M1002,211.75a.94.94,0,1,1,.94-.94A.94.94,0,0,1,1002,211.75Z"/><path d="M1002,210.37a.44.44,0,1,1-.44.44.44.44,0,0,1,.44-.44m0-1a1.44,1.44,0,1,0,1.44,1.44,1.45,1.45,0,0,0-1.44-1.44Z"/><ellipse class="cls-17" cx="963.69" cy="210.81" rx="6.52" ry="5.37"/><path class="cls-18" d="M960.53,211.75c-.11,0-.46-.47-.46-1.32s.35-1.32.46-1.32.46.46.46,1.32S960.64,211.75,960.53,211.75Z"/><path d="M960.53,208.61c-.53,0-1,.81-1,1.82s.43,1.82,1,1.82,1-.82,1-1.82-.43-1.82-1-1.82Z"/><ellipse class="cls-18" cx="965.22" cy="211.58" rx="0.17" ry="0.85"/><path d="M965.23,210.14c-.38,0-.68.64-.68,1.44s.3,1.43.68,1.43.67-.64.67-1.43-.3-1.44-.67-1.44Z"/><path d="M963.69,214.62c-2.63,0-4.77-1.75-4.77-3.91s2.14-3.9,4.77-3.9,4.77,1.75,4.77,3.9S966.32,214.62,963.69,214.62Z"/><path d="M963.69,207.31c2.36,0,4.27,1.52,4.27,3.4s-1.91,3.41-4.27,3.41-4.27-1.53-4.27-3.41,1.92-3.4,4.27-3.4m0-1c-2.91,0-5.27,2-5.27,4.4s2.36,4.41,5.27,4.41,5.27-2,5.27-4.41-2.36-4.4-5.27-4.4Z"/><path class="cls-18" d="M961.49,211.55c-.26,0-.65-.56-.65-1.41s.39-1.42.65-1.42.65.57.65,1.42S961.75,211.55,961.49,211.55Z"/><path d="M961.49,209.38a2,2,0,0,1,0,1.52,2,2,0,0,1,0-1.52m0-1.16c-.64,0-1.15.86-1.15,1.92s.51,1.92,1.15,1.92,1.15-.86,1.15-1.92-.52-1.92-1.15-1.92Z"/><circle class="cls-18" cx="965.22" cy="210.81" r="0.94"/><path d="M965.23,210.37a.44.44,0,1,1-.44.44.44.44,0,0,1,.44-.44m0-1a1.44,1.44,0,1,0,1.43,1.44,1.44,1.44,0,0,0-1.43-1.44Z"/><path class="cls-19" d="M978.26,212.92c.13.35.66,3.73,2.49,4.41,2.06.75,4.9-1.81,6.32-4.22"/></svg>
