<svg id="Layer_1" data-name="Layer 1" xmlns="http://www.w3.org/2000/svg" width="1920" height="1080" viewBox="0 0 1920 1080"><defs><style>.cls-1{fill:#4398e2;}.cls-1,.cls-10,.cls-13,.cls-16,.cls-18,.cls-2,.cls-3,.cls-4,.cls-5,.cls-6,.cls-7,.cls-8,.cls-9{stroke:#000;stroke-miterlimit:10;}.cls-2{fill:#2bc171;}.cls-3{fill:#e6e6e6;}.cls-3,.cls-4,.cls-5,.cls-6{stroke-width:3px;}.cls-4,.cls-7,.cls-9{fill:none;}.cls-5{fill:#999;}.cls-10,.cls-6,.cls-8{fill:#ccc;}.cls-10,.cls-9{stroke-width:2px;}.cls-11,.cls-13{fill:#f2f2f2;}.cls-12{fill:#666;}.cls-14{fill:#ff0;}.cls-15,.cls-18{fill:#b0f25a;}.cls-16,.cls-17{fill:#fff;}.cls-18{stroke-width:4px;}</style></defs><title>spildesktop</title><rect x="3.5" y="0.5" width="1919" height="1079"/><path d="M1922,1V1079H4V1H1922m1-1H3V1080H1923V0Z"/><ellipse class="cls-1" cx="807.44" cy="432.3" rx="325.48" ry="292.05"/><polygon class="cls-2" points="481.96 487.3 504.66 436.46 504.66 401.09 560.37 308.26 611.95 292.78 638.77 248.57 694.48 226.47 727.5 204.37 727.5 175.63 785.27 157.95 812.09 175.63 863.67 175.63 927.64 204.37 964.77 175.63 964.77 204.37 946.21 228.68 880.18 266.26 863.67 266.26 840.98 248.57 812.09 248.57 748.13 226.47 807.96 292.78 832.72 292.78 902.88 292.78 917.32 308.26 880.18 378.99 853.36 420.99 839.95 550.3 559.34 483.98 481.96 487.3"/><polygon class="cls-2" points="1007.06 490.31 1022.79 449.01 1040.49 388.05 1022.79 354.61 985.42 354.61 985.42 388.05 961.83 423.45 961.83 449.01 946.09 490.31 985.42 490.31 1007.06 490.31"/><polygon class="cls-3" points="8 358.55 8 1363.51 1919.58 1363.51 1919.58 154.02 1785.85 167.78 1750.45 187.45 1636.39 214.98 1610.82 232.68 1585.25 272.01 1484.95 279.88 1406.29 332.98 1349.26 336.91 1146.69 443.11 999.19 502.11 684.53 502.11 588.16 511.95 535.06 472.61 539 454.91 487.86 433.28 363.96 458.85 255.8 494.25 230.23 525.71 251.87 561.11 226.3 547.35 202.7 568.98 116.17 415.58 8 358.55"/><polyline class="cls-4" points="156.3 486.73 249.9 696.81 289.23 728.28 352.16 818.74 421 978.04 450.46 1023.88 474.1 1060.64 548.83 1143.24"/><polyline class="cls-4" points="885.75 1363.51 851.69 1308.44 763.19 1269.11 588.16 1111.77 474.1 1060.64 502.46 1056.52 596.03 1042.94 710.09 995.74 731.73 960.34 680.59 911.18 574.39 889.54 474.1 871.84 382.76 889.54 450.5 1023.27"/><polyline class="cls-5" points="19.8 557.18 55.2 582.75 106.33 679.11 177.13 814.81 352.16 1160.94 517.36 1300.57 578.33 1300.57 680.59 1347.77 710.54 1363.51"/><polyline class="cls-6" points="19.8 889.54 173.2 1096.04 198.76 1096.04 277.43 1143.24 365.93 1273.04 485.27 1363.51"/><line class="cls-7" x1="131.9" y1="604.38" x2="224.33" y2="785.31"/><polyline class="cls-7" points="320.7 850.21 385.6 1029.17 417.06 1060.64 474.1 1143.24"/><line class="cls-7" x1="19.8" y1="413.61" x2="74.87" y2="449.01"/><polyline class="cls-8" points="1406.29 332.98 1268.62 431.31 1178.16 486.38 1054.26 513.91 1182.09 541.45 1207.66 557.18 1296.16 541.45 1406.29 557.18 1406.29 578.81 1475.12 578.81 1541.99 604.38 1600.99 604.38 1630.49 635.85 1689.49 635.85 1750.45 657.48 1844.85 657.48 1862.55 643.71 1919.58 657.48"/><polyline class="cls-8" points="1296.16 486.38 1368.92 431.31 1461.35 370.35"/><polyline class="cls-7" points="1496.75 332.98 1547.89 295.61 1585.25 272.01"/><polyline class="cls-9" points="1863.53 658.46 1808.47 575.86 1790.77 558.16 1747.5 575.86 1686.54 558.16 1601.97 605.36"/><line class="cls-9" x1="1766.18" y1="657.48" x2="1664.9" y2="609.3"/><polyline class="cls-9" points="1678.67 514.9 1818.3 428.36 1919.58 256.73"/><polyline class="cls-10" points="1816.34 371.33 1733.73 467.7 1647.2 495.23 1586.24 542.43"/><line class="cls-9" x1="1766.18" y1="178.71" x2="1716.04" y2="257.26"/><polyline class="cls-9" points="1700.3 302.5 1586.24 414.6 1487.9 495.23 1462.34 514.9 1462.34 542.43 1407.27 558.16"/><polyline class="cls-9" points="1157.13 491.05 1240.11 487.36 1350.24 414.6 1297.14 471.63 1379.74 432.3"/><polyline class="cls-9" points="547.85 471.63 484.91 514.9 364.95 542.43 252.85 558.16"/><polyline class="cls-9" points="224.33 633.39 319.71 632.89 400.35 632.89 547.85 581.76 638.31 542.43 589.14 514.9"/><polyline class="cls-7" points="852.68 1309.42 917.58 1213.06 962.81 1185.52 774.01 1144.22 774.01 1110.79 852.68 1061.62 852.68 1022.29 1035.58 979.02 925.44 935.76 789.74 890.53 711.08 815.79 732.71 786.29 524.25 758.76 549.81 725.33 547.85 695.83 711.08 658.46 711.08 632.89 754.34 609.29 679.61 605.36 654.04 589.63 728.78 558.16 711.08 542.43 656.9 514.9"/><polyline class="cls-7" points="1905.82 832.51 1844.85 814.81 1817.32 785.31 1766.18 785.31 1701.29 757.78 1510.52 757.78 1510.52 724.34 1378.76 724.34 1268.62 694.84 1268.62 657.48 1107.36 657.48 1075.89 633.88 1107.36 604.38 1107.36 574.88 963.79 557.18 914.63 557.18 940.19 513.91 914.63 502.11"/><path class="cls-11" d="M1128.29,1049.52l-93.17,55.14,1.82,2.35c46.83-53.32,107.18-91.84,168.8-125.89,17.59-9.72,35.35-19.12,53.12-28.51,1.71-.9.19-3.49-1.52-2.59C1195,983,1131.89,1016.41,1078,1062.45a424,424,0,0,0-43.17,42.44,1.51,1.51,0,0,0,1.81,2.36l93.18-55.14a1.5,1.5,0,0,0-1.52-2.59Z"/><path class="cls-11" d="M1124.81,1042.57l-138,72.24,1.82,2.36a761,761,0,0,1,141.55-130.36q22.27-15.79,45.65-30l-1.51-2.59A935.77,935.77,0,0,1,1014,1043.08l1.52,2.59a271,271,0,0,1,70.89-36.59c1.82-.62,1-3.52-.8-2.89a273.65,273.65,0,0,0-71.61,36.89,1.5,1.5,0,0,0,1.52,2.59,935.68,935.68,0,0,0,160.36-88.82c1.57-1.08.16-3.61-1.51-2.59a764.33,764.33,0,0,0-150.58,119.67q-19.37,19.86-37.23,41.12a1.5,1.5,0,0,0,1.82,2.35l138-72.24c1.71-.89.19-3.48-1.52-2.59Z"/><path class="cls-11" d="M272.45,531.55A1182.16,1182.16,0,0,0,486,478.16c7.24-2.55,4.12-14.15-3.19-11.57A1182.16,1182.16,0,0,1,269.26,520c-7.61,1.17-4.37,12.73,3.19,11.57Z"/><path class="cls-12" d="M275.3,528.22l211.54-51.88c3.45-.84,5.9-5.71,3.59-8.81-8.21-11-21.34-11.89-34-10-17.51,2.59-34.92,7.39-52.2,11.25Q349.45,481,294.85,493.92c-14.14,3.35-33.19,6.47-37.66,22.85-.76,2.78.57,5.2,2.76,6.78,16.76,12.13,37.87,12.65,57.61,9.81,22.8-3.29,45.25-10,67.6-15.43,24.9-6.06,49.84-11.95,74.7-18.18,16.82-4.22,40.14-11.68,45.28-30.77,2.92-10.85-4.64-19.7-15.27-20.8-11.82-1.23-20.22,7.63-31.26,9.56-7.6,1.33-4.38,12.89,3.19,11.57,8.52-1.49,15.44-8.21,23.92-9.2,2.27-.26,5.87-.22,7.4,1.84,2.31,3.12-1.24,7.87-3.24,10.2-11.16,13-31.15,15.54-46.82,19.35l-63,15.33c-19.69,4.79-39.37,10.35-59.33,13.93-18.59,3.33-38.73,4-54.7-7.57l2.76,6.77c1.87-6.83,9.54-9.4,15.68-11.15,9.56-2.72,19.39-4.69,29.06-7q30.45-7.15,61-14.09t61.06-13.63c8.74-1.92,17.64-4.55,26.59-5.3,6-.5,14-.6,17.95,4.76l3.59-8.81L272.11,516.64c-7.5,1.84-4.32,13.42,3.19,11.58Z"/><path class="cls-12" d="M420.88,916.23a964,964,0,0,1,135.68,6.31q33.91,4,67.47,10.5c14.15,2.73,33.28,5.91,42.18,18.74,10.38,15-7.15,27.9-18.91,34.11a342.09,342.09,0,0,1-57.23,23.36,386,386,0,0,1-61.74,14c-10.52,1.48-21.12,2.46-31.73,3-8.25.44-18,1.46-23.84-5.57-5.24-6.26-6.46-15.47-7.6-23.25-1.34-9.17-2.21-18.32-5.11-27.17a94.41,94.41,0,0,0-35.8-47.9l2.76,6.78c2.81-9.35,15.28-6.84,21.42-3.09,9,5.51,17,14.19,24.2,21.87,12.46,13.31,25.64,36.66,11,53.38h8.49a107,107,0,0,1-23-47.43c-1.72-8.32-1.76-16.5-2.2-24.92-.36-7-1.61-14.56-7-19.5-12.72-11.64-30.53,3.1-29.56,17.8,1.14,17.22,18.56,30,31.07,39.59a206.58,206.58,0,0,0,54.29,29.86l-3.58-8.81a44.21,44.21,0,0,1-22.11,17c-6.15,2.15-5.48,11.87,1.6,11.79a417.28,417.28,0,0,0,76.49-8q19.41-3.87,38.38-9.62c10.93-3.32,22.76-6.46,32.73-12.18,7.71-4.43,15.23-11.6,15.18-21.15,0-10-8.12-16.57-16.55-20.24-11.19-4.88-23.06-8.53-34.63-12.4-12.38-4.14-24.87-8-37.55-11.09-28.24-7-57.2-10.09-86.1-5.72-4.26.64-6,7.36-2.64,10q36.18,28.68,70.61,59.47l1.21-9.42c-16,8.7-30.31-8.55-37-21-2.91-5.42-6.4-12-5.54-18.38,1.28-9.52,12.42-.68,16,2.34,15.17,12.64,30.42,25.2,45.45,38,1.43,1.22,2.67,2.55,4,3.82.57.53,2.26,4,2.43,1.13.08-1.28-2.27-3.95-2.9-5.11-1.26-2.31-2.5-4.64-3.57-7-3.09-6.95-5.57-15.84-1.18-22.77,3.35-5.29,11.18-10,16-3.79,4.43,5.69,3.07,15.16,2.26,21.76l7.6-5.79c-2-.29-4.82-1.53-4.47-4.13l-5.78,4.41a39.19,39.19,0,0,1,25.55,12.64l-.94-7.27a4.79,4.79,0,0,1-8.14,0l-.94,7.27A42.59,42.59,0,0,1,615,963.31l-5.84-1.55c1,1.2.56,2.34-.18,3.5-4.19,6.51,6.2,12.54,10.36,6.06,3.81-5.93,2.79-12.84-1.69-18a5.93,5.93,0,0,0-5.84-1.54A55.91,55.91,0,0,0,589.21,964c-2,1.77-2.19,5.06-.94,7.28,6.08,10.76,22.82,10.77,28.86,0a6.17,6.17,0,0,0-.94-7.27,51.62,51.62,0,0,0-34-16.16c-2.32-.19-5.46,2-5.79,4.4-1.17,8.65,3.58,17.52,12.85,18.89,4.19.63,7.08-1.58,7.59-5.78,1.25-10.18,1.47-22.56-6-30.59-8-8.59-20.44-7.45-28.87-.24-9.72,8.31-11.47,21.16-8,33a85.06,85.06,0,0,0,7.8,17.26c2.76,5,6.09,10.55,12.6,9.92,5.68-.55,10-5.92,10.2-11.53.17-6-4.09-10.64-8.36-14.29-12-10.27-24.24-20.27-36.36-30.4-9.23-7.71-21.74-21.88-35.23-16.8-10.23,3.85-11.62,15.38-9.47,24.77,5.62,24.53,32.49,55.08,59.69,40.33,3.27-1.77,4.05-6.88,1.21-9.42q-34.39-30.79-70.61-59.47l-2.65,10c45.6-6.89,91,7.41,133.52,22.41,5,1.77,10.11,3.44,15.05,5.41,3.31,1.33,7.57,3.15,9.71,6.18,4.87,6.93-4.49,13-9.72,15.67-9.23,4.77-19.91,7.56-29.83,10.51q-16.25,4.86-32.88,8.32a399.16,399.16,0,0,1-77,8.29l1.59,11.78A57.8,57.8,0,0,0,522.49,994c2.35-3.47-.21-7.56-3.59-8.82a194,194,0,0,1-40.39-20.7A183.49,183.49,0,0,1,460,950.33c-5.44-4.73-11.36-9.73-15.07-16-3-5.07-4.15-11.88,1.29-15.81,5.25-3.79,7.74,2.5,8.38,6.85.94,6.41.34,13,1,19.48a117.54,117.54,0,0,0,27.94,64.95c2,2.37,6.48,2.29,8.49,0,9-10.24,11.29-23.8,8.54-36.94-2.93-14-12-25.81-21.84-35.83-9.53-9.76-20.84-22.59-34.69-25.75-11.69-2.66-25,2.61-28.66,14.69a6.15,6.15,0,0,0,2.76,6.77,81.2,81.2,0,0,1,32.17,47.39c3.75,15.74,2.15,34.17,12.69,47.55,5.71,7.25,14,10.43,23.06,10.85,11.21.51,22.81-1,33.93-2.24a395,395,0,0,0,67.15-13.63,390.47,390.47,0,0,0,62-24.34c15-7.43,33.22-19.52,32-38.67-1.14-17.27-16.83-27.2-31.59-32.59-9.38-3.42-19.28-5.05-29.07-6.86q-17.65-3.29-35.43-5.89a973.42,973.42,0,0,0-164.23-10.09c-7.7.18-7.73,12.18,0,12Z"/><path class="cls-12" d="M653.39,959.83a686.3,686.3,0,0,0-114.62,22q-14.09,4-28,8.61-6.72,2.24-13.4,4.6c-3.83,1.36-9.1,4.44-13.26,4.28-3.88-.14-5.81-5.82-7.48-8.69l-7.94-13.62-15.38-26.39c-4.58-7.85-8.57-16-16.54-21-6.9-4.29-15.16-4.12-19.8,3.12-1.52,2.37-.76,5.3.94,7.28a353.58,353.58,0,0,1,35.79,50c3.93,6.64,14.31.61,10.36-6.06a370.82,370.82,0,0,0-37.67-52.38l.94,7.27c1.91-3,10.65,9.38,11.65,11.08l14.39,24.69q7.19,12.36,14.39,24.7c4.1,7,9,12.84,17.91,11.92,8.35-.86,16.8-5.29,24.71-8q13-4.38,26.13-8.24,26.75-7.83,54.07-13.43,31.15-6.39,62.8-9.75c7.6-.82,7.68-12.82,0-12Z"/><path class="cls-11" d="M1168.83,1085.2a672.28,672.28,0,0,1,122.44-161.93l-9.42-7.27A736.5,736.5,0,0,1,1145,1069l10.25,4.24c5.63-64.14,38.94-124.35,89.61-163.91l-9.43-7.27a1311.64,1311.64,0,0,1-86.2,138l10.37,6.06a340.19,340.19,0,0,1,122.85-125.8l-8.82-6.77a166,166,0,0,1-82.41,93.54l8.21,8.21a285.54,285.54,0,0,1,116.82-133.11l-8.82-6.78c-14.56,48.63-41.75,92.81-77.35,128.88s-79.38,64.15-127.3,80.65a301.85,301.85,0,0,1-84,16.32l5.19,9a421.24,421.24,0,0,1,118.2-123.79,428.07,428.07,0,0,1,41.65-25.25l-7.27-9.42a483.53,483.53,0,0,1-113.78,87.18l7.27,9.42A395.15,395.15,0,0,1,1212,974l-5.84-10Q1138,1037.81,1066,1107.89l9.42,7.27a395.3,395.3,0,0,1,91.78-94.86l-7.27-9.43A311.58,311.58,0,0,1,1050,1072.81l6.77,8.82a193.74,193.74,0,0,1,97.32-76.2l-5.84-10a446.62,446.62,0,0,1-113.79,97.83l8.81,6.78a416.51,416.51,0,0,1,23.94-73.46c2.22-5.1-2.58-11.62-8.21-8.21a362.53,362.53,0,0,1-157.84,51.28l3,11.18a989.53,989.53,0,0,1,189.44-65.74l-4.62-11a274.24,274.24,0,0,1-79.89,32.49l7.38,7.38a87,87,0,0,1,58.23-56.22l-6.78-8.82a133,133,0,0,1-56.91,52.71c-23.5,11.44-49.12,11.77-74,18.2-13.48,3.49-26.32,9.43-35.82,19.86-2.53,2.79-2.3,7.47,1.22,9.43a433.91,433.91,0,0,0,120.38,45.19c6.43,1.36,10.8-7.49,4.63-11L961.35,1076l-1.43,11a74.63,74.63,0,0,1,59.1,16.56l5.84-10a189,189,0,0,1-54.36-29.91l-1.21,9.43a108,108,0,0,1,30.38-16,111.12,111.12,0,0,1,16.27-4c3.59-.6,11.75-2.63,14.28,1.18,2.39,3.61-.1,11.54-1,15.31a78.27,78.27,0,0,1-5.11,15.17,82.45,82.45,0,0,1-19.86,26.84l10.24,4.24c2.2-41,22-79.84,53.39-106.22l-10-2.64c19.11,48.71.57,108.76-43.55,137.37l9,5.18A186.91,186.91,0,0,1,1048,1056l-11.18-3a105.86,105.86,0,0,1-10.49,39.3l9.43-1.21a185.44,185.44,0,0,1-37.2-42.74c-4.18-6.65-13.54-.87-10.36,6,29.62,64.4,61.72,136.55,39.57,208.34a127.28,127.28,0,0,1-26.3,47.42l5.84-1.54c-21.06-8.89-27.21-33.94-26.65-54.69.75-28.13,15-53,25.08-78.65,6.4-16.3,11.19-33.27,11.06-50.92,0-7.72-11.93-7.73-12,0q-.81,84.87-7.93,169.51l10.24-4.25c-15.68-18.55-19.54-44.58-16.13-68,4.08-28.07,17.48-53.69,30.37-78.56l-11-1.43a904.52,904.52,0,0,1,14,117c.42,7.91,11,7.49,12,0,4.12-31.56,8.82-65.35,28-91.79,18.28-25.23,48.34-36.79,77.9-42.51,17.4-3.36,35.07-4.86,52.72-6.13l-3-11.19a287.41,287.41,0,0,1-106.2,49.55l7.38,7.38a118.94,118.94,0,0,1,55.45-78.2l-7.27-9.42a580.31,580.31,0,0,1-104.77,90.15l8.21,8.2A513.78,513.78,0,0,1,1200,1027.23a519,519,0,0,1,54.3-28.93l-7.27-9.42-61.6,64.53c-5.33,5.59,3.14,14.09,8.48,8.49l61.61-64.53c4.92-5.16-1.25-12.19-7.27-9.43a524.2,524.2,0,0,0-213.84,180.63c-3.36,4.91,3.31,11.49,8.21,8.21a593.05,593.05,0,0,0,107.21-92c4.49-4.9-1.23-13-7.28-9.42a130.77,130.77,0,0,0-61,85.37,6.08,6.08,0,0,0,7.38,7.38A296,296,0,0,0,1198,1117.33c4.26-3.18,3.56-11.66-3-11.18-32.89,2.37-66.76,5.48-97.14,19.28-14.89,6.77-28.63,16.51-39.09,29.16-11,13.27-18.36,28.92-23.34,45.34-5.8,19.08-8.47,38.93-11,58.65h12A929,929,0,0,0,1022,1138.34c-.94-5-8.68-5.85-11-1.44-14.12,27.25-28.44,55.25-32.22,86.12-3.24,26.52,2.35,54.31,19.86,75,3.66,4.34,9.84.44,10.24-4.24q7.13-84.58,7.93-169.51h-12c.24,33.7-18.86,63.21-29.57,94.12-8.17,23.59-9.86,51.2.67,74.35a53.13,53.13,0,0,0,28.22,27.36c1.82.77,4.57-.13,5.84-1.55,23.39-26.18,34.68-60.24,36.8-94.92,2.32-38.12-7.1-75.83-20.51-111.24-8.25-21.78-18-43-27.69-64.13l-10.36,6a195.94,195.94,0,0,0,39.07,45.17c2.72,2.3,7.6,2.52,9.43-1.21a121.45,121.45,0,0,0,12.12-45.36c.41-6.06-8.34-8-11.18-3a199.24,199.24,0,0,0-26.3,99.48c0,4.38,5.14,7.69,9,5.18,48.3-31.31,70.18-97.11,49.07-150.92-1.72-4.37-6.37-5.73-10-2.65-33.86,28.41-54.54,70.64-56.9,114.7-.29,5.5,6.61,7.52,10.24,4.25a92.85,92.85,0,0,0,23.64-33.64,87.64,87.64,0,0,0,5.63-20c1-6.56,1.81-13.8-2.29-19.52-8.07-11.22-26.65-6.11-37.62-3.12a116.91,116.91,0,0,0-38.88,19c-2.73,2-4.55,6.78-1.21,9.42a206,206,0,0,0,59.65,33c5.53,2,10.37-6.19,5.83-10a87.65,87.65,0,0,0-70.77-19.65c-5.24.83-5.62,8.61-1.44,11l66.15,37.31,4.62-11a422.54,422.54,0,0,1-117.52-44l1.22,9.42c17.39-19.09,45.94-19.49,69.62-23.88a145.86,145.86,0,0,0,70.36-34.24,142.4,142.4,0,0,0,28.6-35.08c2.6-4.48-1.71-10.27-6.77-8.82a99.48,99.48,0,0,0-66.61,64.61c-1.47,4.54,3.14,8.37,7.38,7.38a285.39,285.39,0,0,0,82.76-33.69c5.87-3.56,2-12.54-4.63-11a1005.18,1005.18,0,0,0-192.31,66.94c-5.32,2.49-2.78,11.66,3,11.19a376,376,0,0,0,163.9-52.92l-8.21-8.21a433.47,433.47,0,0,0-25.15,76.33c-1.13,5,4.16,9.57,8.82,6.77a456.4,456.4,0,0,0,116.22-99.7c3.46-4.17.35-12.2-5.84-10a207.09,207.09,0,0,0-104.49,81.71c-2.84,4.33,1.88,10.38,6.78,8.82a326.39,326.39,0,0,0,115.16-65c5-4.42-1.75-13.48-7.27-9.42A412.14,412.14,0,0,0,1065,1109.1c-3.94,5.74,4.66,11.91,9.42,7.27q72-70,140.17-143.94c4-4.28.12-11.74-5.83-10A409.51,409.51,0,0,0,1061.57,1040c-5.4,4.45,1.5,12.61,7.27,9.42a495,495,0,0,0,116.21-89.06c4.79-5-1.26-12.62-7.28-9.42a432.78,432.78,0,0,0-135.16,112.32,443,443,0,0,0-29,41c-2.34,3.76.67,9.24,5.18,9,52.78-2.51,104.31-18.77,149.69-45.69a345,345,0,0,0,113.25-108.45A313.62,313.62,0,0,0,1319,878.65c1.51-5-4.37-9.4-8.82-6.77a296.09,296.09,0,0,0-121.12,137.41c-2.33,5.44,2.5,11.06,8.21,8.21,41.14-20.56,72.94-57.3,87.93-100.71,1.74-5-4.5-9.34-8.82-6.78a352.57,352.57,0,0,0-127.16,130.1c-3.85,6.85,6,12.24,10.37,6.06a1310.67,1310.67,0,0,0,86.19-138.05c3.44-6.35-4.25-11.31-9.42-7.27C1195.1,933.09,1165,979,1151,1029.44a245.71,245.71,0,0,0-7.78,43.81c-.5,5.66,6.66,7.27,10.24,4.24a747.56,747.56,0,0,0,138.71-155.44c3.86-5.77-4.64-11.92-9.42-7.27a683.32,683.32,0,0,0-124.32,164.37c-3.68,6.79,6.68,12.86,10.36,6Z"/><path class="cls-11" d="M1246.8,967.29a596.87,596.87,0,0,1-74.26,125.76l5.86-7.59c-1.1,1.43-2.22,2.86-3.33,4.28-5.29,6.75-9.14,12.76-10.31,21.53-1.08,8-.06,16.93,4.45,23.92a44.81,44.81,0,0,0,13.45,13.45c7.17,4.62,20.75,7,28.89,3.78,13.1-5.16,25.6-10.93,37-19.16a229.2,229.2,0,0,0,31.3-26.63c18-18.59,33.09-39.87,48.1-60.84,7.63-10.67,15.24-21.35,23.25-31.74l-5.86,7.59c12.27-15.82,25.56-31,41.44-43.29l-7.58,5.86a132.18,132.18,0,0,1,28.2-16.61l-9,3.78q4.43-1.85,9-3.34l-28.9-68.55a588.27,588.27,0,0,1-102.68,56.26l9-3.78a589.58,589.58,0,0,1-89.33,29.52l46.13,46.13q2.05-6.15,4.55-12.14l-3.78,9A175.77,175.77,0,0,1,1265,986.13l-5.86,7.59a188.36,188.36,0,0,1,32.57-32.45l-7.58,5.86A188.55,188.55,0,0,1,1325,943.19l-9,3.78a176.13,176.13,0,0,1,42.83-11.86l-10,1.34c8.19-1.1,16.67-2.06,24.91-1l-10-1.34a34,34,0,0,1,5.71,1.48l-9-3.78a23.55,23.55,0,0,1,5,2.94l-7.59-5.86a24.43,24.43,0,0,1,2.73,2.84l-5.87-7.59a24.22,24.22,0,0,1,1.92,3.22l-3.79-9a24.1,24.1,0,0,1,1.42,4.78l-1.34-10a32.3,32.3,0,0,1,0,7.86l1.34-10a56,56,0,0,1-4,13.67l3.78-9c-4.65,10.42-11.3,20-17.6,29.53q-10,15.09-21.11,29.44l5.86-7.59a518.23,518.23,0,0,1-92.75,92.67l7.59-5.86q-6.68,5.13-13.52,10.06c-7.76,5.59-15,12.6-17.23,22.41a38.79,38.79,0,0,0,1.89,24.41,37.59,37.59,0,0,0,44.24,21.72,1190.77,1190.77,0,0,1,137.28-26.94l-10,1.34A1186.73,1186.73,0,0,1,1575,1097q28.27.9,56.48,3.17l-18.93-69.88a790.11,790.11,0,0,1-143.4,79l9-3.78a795.17,795.17,0,0,1-89.08,31.34L1409,1209.1a572.5,572.5,0,0,1,89-19.29l-10,1.34a569.72,569.72,0,0,1,126.88-2.47v-75c-57.51,6.7-115.07,13.43-172.19,23-27.52,4.59-54.92,9.88-82.09,16.21-26.07,6.07-51.8,13.43-77.6,20.55-29.12,8-58.45,15.57-88.43,19.68l10-1.34a318.21,318.21,0,0,1-39.13,2.93c-12.14.1-24.14-1-36.23-1.92-14.53-1.08-29.92-.85-43.92,3.55a74.87,74.87,0,0,0-40.5,29.61c-16.74,23.8-16.44,61.46,6.16,81.52,15.13,13.42,33.54,16.4,53.11,15.6l41-1.68,327.58-13.4,162.81-6.67,81.9-3.35c29.45-1.21,60.08-1.09,86.43-16.21,43.61-25,56.71-76.69,60.45-123.25,4.16-51.85,2.22-104.78-2.44-156.52-2.12-23.56-4.1-48.09-12.37-70.44-9.62-26-25.67-50.48-51.28-63.16-24.85-12.31-51.92-14.36-79.2-12.43-24.91,1.77-49.35,3.54-74.35,1.81-13-.9-26-2.37-39-4.1l10,1.33c-38.33-5.21-76.48-11.89-114.67-18l-115.35-18.5L1270.09,800c-36.07-5.79-72.21-11.35-108-18.74-39.76-8.21-79.1-18.84-116.62-34.53l9,3.78a441.48,441.48,0,0,1-97.52-57l7.59,5.87A449,449,0,0,1,885.16,620l5.86,7.59a443.9,443.9,0,0,1-32.61-48.66c-9.81-17-34.34-24.39-51.3-13.46-17.15,11.06-24,33.13-13.46,51.31,32.09,55.56,75.32,103,126.05,141.93,51.77,39.79,111.91,66.69,174.79,83.62,67.38,18.14,137.15,27,205.94,38l217.88,34.94c38.67,6.2,77.38,13.21,116.41,16.69a378.11,378.11,0,0,0,53.74,1.29c15-.81,29.94-2.73,45-3a146.64,146.64,0,0,1,22.17,1.1l-10-1.34a86.38,86.38,0,0,1,19.3,5l-9-3.78a68.14,68.14,0,0,1,14.56,8.36l-7.59-5.86a68.56,68.56,0,0,1,11.77,11.94l-5.87-7.59a87.77,87.77,0,0,1,10.34,18.33l-3.78-8.95c5.38,13.16,8.22,27.1,10.13,41.14l-1.34-10c4.35,33.08,6,66.69,6.62,100,.54,31.08.85,62.81-3.17,93.7l1.34-10c-1.93,14.15-5,28.14-10.6,41.34l3.78-9a92.4,92.4,0,0,1-11.09,19.19l5.87-7.59a71.19,71.19,0,0,1-11.7,11.77l7.59-5.86a66.88,66.88,0,0,1-14.36,8.29l9-3.79a89.75,89.75,0,0,1-20.29,5.13l10-1.34c-20.73,2.68-42,2.46-62.85,3.32l-65.92,2.7-130.85,5.35-262.68,10.76-73.9,3-36,1.47c-11.69.48-23.84,1.95-35.52.83l10,1.34a32.9,32.9,0,0,1-7.81-2l9,3.78a25.93,25.93,0,0,1-4.22-2.56l7.59,5.86a22.45,22.45,0,0,1-2.94-3l5.86,7.59a23,23,0,0,1-2.52-4.45l3.78,9a27.6,27.6,0,0,1-1.32-5l1.34,10a31.84,31.84,0,0,1,0-7.62l-1.33,10a38.76,38.76,0,0,1,2.44-8.82l-3.78,9a40.45,40.45,0,0,1,4.71-8.07l-5.86,7.59a37,37,0,0,1,5.72-5.74l-7.59,5.87a37.69,37.69,0,0,1,6.93-4l-9,3.78a59.82,59.82,0,0,1,14.58-3.88l-10,1.34c12.68-1.49,25.33.09,38,1.06a272.79,272.79,0,0,0,41,0c29.59-2.18,58.9-7.71,87.66-14.9,26.69-6.66,53-14.59,79.65-21.6,27.24-7.17,54.78-13.19,82.47-18.36,31.27-5.84,62.73-10.6,94.26-14.84l-10,1.34c32.19-4.32,64.46-8.09,96.72-11.85,10.27-1.2,18.92-3.39,26.52-11,6.5-6.51,11.4-17.18,11-26.52-.43-9.7-3.62-19.76-11-26.52-7.71-7.07-16.11-10-26.52-11a595.64,595.64,0,0,0-225.8,23.1,39.2,39.2,0,0,0-22.41,17.23c-4.7,8-6.7,19.88-3.78,28.9,6.21,19.17,25.93,32,46.13,26.19a826.53,826.53,0,0,0,192.7-82.77q24.94-14.74,48.73-31.32c6.87-4.77,12-10.09,15.35-17.93,3.14-7.45,4.45-16.5,1.89-24.41a44.55,44.55,0,0,0-9.65-16.55c-6.83-7.44-16.88-10.22-26.51-11-105.39-8.4-211.55-2.29-315.54,16.62q-42.45,7.71-84.25,18.54l28.9,68.54c31.79-22.93,61.55-48.52,87.89-77.59a605.77,605.77,0,0,0,39.43-48.69c10.46-14.25,21.27-29.14,29.26-44.94,13-25.72,17.45-57.84-4.65-80.38-20.52-20.94-50.15-18.13-76.44-14-36.53,5.71-69.88,23.22-98.6,45.91-31.86,25.18-55.33,60.17-68.16,98.56-4.18,12.5.58,27.42,9.64,36.49,9.67,9.67,23.38,12.84,36.49,9.64a614.7,614.7,0,0,0,201-89.56c7.77-5.33,15-12.82,17.23-22.41a38.79,38.79,0,0,0-1.89-24.41c-6.91-16.37-26.39-27.62-44.24-21.72-27,8.93-50.48,24.43-70.54,44.44-18.64,18.6-34.09,40.31-49.38,61.66-7.89,11-15.74,22.08-24,32.83l5.86-7.59c-12.58,16.27-26.21,31.86-42.53,44.5l7.59-5.87a135.43,135.43,0,0,1-28.53,16.84l9-3.78c-1.11.46-2.23.92-3.35,1.36l36.48,62.68c33.36-42.54,61.84-88,83.46-137.64,4.18-9.59,6.68-18.36,3.78-28.89-2.4-8.7-9.12-18.13-17.24-22.41-8.7-4.6-19.24-6.91-28.89-3.78-8.66,2.8-18.61,8.5-22.41,17.23Z"/><path class="cls-11" d="M768.85,723.9c53.22,93.25,160.89,126.21,257,155.69,27.37,8.4,54.64,17.21,81.05,28.32l-9-3.78c25.86,11,50.74,24.24,73,41.46l-7.59-5.87a246,246,0,0,1,21.49,18.92L1201.41,896c-16.06,3.21-32.15,7.08-48.38,9.33l10-1.34a75.52,75.52,0,0,1-19.64.28l10,1.34a42.87,42.87,0,0,1-9.69-2.74l8.95,3.78a36.61,36.61,0,0,1-6.2-3.69l7.59,5.86a38.92,38.92,0,0,1-5.83-5.93l5.87,7.59c-8.45-11.27-13.13-24.73-23.88-34.42a74.07,74.07,0,0,0-29.81-16.48c-6.38-1.87-12.9-2.94-19.09-5.44l9,3.78c-16-7.06-28.62-20.11-43.7-28.85-18.37-10.64-38.4-18.4-58.2-25.9-38.26-14.48-76.61-28.73-114.92-43.09-8.63-3.23-21.22-.71-28.89,3.78s-15.2,13.48-17.24,22.42c-2.18,9.6-1.71,20.37,3.78,28.89s12.82,13.64,22.42,17.24l69.46,26c22.07,8.27,44.35,16.11,66.09,25.2l-9-3.78a227.11,227.11,0,0,1,50,28.56c7.06,5.38,14.16,10.63,22.31,14.25a118.18,118.18,0,0,0,20.41,7.28,96.4,96.4,0,0,1,12.79,3.71l-9-3.78a34.35,34.35,0,0,1,6.56,3.75l-7.59-5.87a38.33,38.33,0,0,1,5.66,5.8l-5.87-7.59a105.5,105.5,0,0,1,7.27,11.77,122.79,122.79,0,0,0,12.94,18.71c12.06,14.57,29.72,20.65,47.81,22.81,12.89,1.54,26-.71,38.7-3.11,13.12-2.48,26.2-5.22,39.29-7.84,12.55-2.51,22.91-14.29,26.19-26.19a37.77,37.77,0,0,0-9.64-36.49c-63.51-63-151.62-85.34-234.35-111.25-21-6.58-41.81-13.83-62.12-22.33l9,3.78c-27.19-11.49-53.49-25.29-77-43.26l7.59,5.86a218.25,218.25,0,0,1-38.5-37.85l5.86,7.59a192.11,192.11,0,0,1-14.74-22.1c-9.73-17-34.41-24.35-51.31-13.46-17.21,11.1-23.86,33.07-13.45,51.31Z"/><path class="cls-11" d="M1376.68,930.49a1095.36,1095.36,0,0,1,202.51,62.86l-9-3.78q31.05,13.11,61.26,28.07c19.74,9.8,39.71,19.74,57.28,33.17l-7.59-5.86a147.88,147.88,0,0,1,25.76,25.9l-5.86-7.59a153.93,153.93,0,0,1,18.9,32.57l-3.78-9a150.47,150.47,0,0,1,10,36.29l-1.34-10c1,7.86,1.66,15.81.8,23.71l1.34-10a42,42,0,0,1-2.81,10.56l3.78-9a34.76,34.76,0,0,1-3.18,5.35l5.86-7.59a25.35,25.35,0,0,1-3.58,3.52l7.59-5.87a27.88,27.88,0,0,1-4.39,2.55l9-3.78a25.24,25.24,0,0,1-6,1.6l10-1.34a26.15,26.15,0,0,1-3.65,0l10,1.34a18.54,18.54,0,0,1-4.57-1.25l9,3.78a13.09,13.09,0,0,1-2-1.2l7.59,5.86a12.87,12.87,0,0,1-1.84-1.61c-14.1-13.66-39.18-15.09-53,0-13.56,14.77-15.06,38.45,0,53,13.71,13.28,31.45,17.21,49.82,13.55,15-3,27.18-13.11,35.67-25.37,14.5-20.93,11.87-48.88,7.79-72.54-3.25-18.83-10.42-37.31-19.54-54A175.62,175.62,0,0,0,1743,999.3c-29.86-27.25-68.09-44.46-104.49-61.12a1179.92,1179.92,0,0,0-115.38-45.87,1092.79,1092.79,0,0,0-126.51-34.14c-9.91-2-20-1.45-28.89,3.78-7.78,4.55-15.2,13.47-17.24,22.41-2.18,9.6-1.71,20.38,3.78,28.9,5.1,7.91,12.88,15.26,22.41,17.23Z"/><path class="cls-11" d="M1417.32,779.76c-40.18,2-80.65,3.42-120.65-1.83l10,1.34c-22.25-3-44.17-8.21-65-16.85l9,3.78a187.61,187.61,0,0,1-40.36-23.27l7.59,5.86c-12-9.34-23.13-20.23-36.33-28-16.08-9.41-33.09-13.27-51.3-15.59-24.1-3.06-48.49.61-72.57-2.41l10,1.34a112.61,112.61,0,0,1-28.47-7.54l9,3.78a78.53,78.53,0,0,1-15.63-8.92l7.59,5.86a57.65,57.65,0,0,1-9.69-9.43l5.86,7.59a48.58,48.58,0,0,1-6.15-10.54l3.78,9a50.94,50.94,0,0,1-2.84-10.81l1.34,10c-1.17-9.14-1.37-18.54-3.68-27.5a74.35,74.35,0,0,0-9.54-21.86,96.31,96.31,0,0,0-34.91-32.31c-28.47-15.07-60-15.22-91.26-12.54-10.11.87-19.13,3.6-26.51,11-6.51,6.51-11.4,17.18-11,26.52.44,9.7,3.62,19.76,11,26.52,7,6.39,16.71,11.82,26.51,11,15.39-1.32,30.82-2.5,46.2-.56l-10-1.34a86.58,86.58,0,0,1,20.83,5.47l-9-3.78a71.27,71.27,0,0,1,15.07,8.85l-7.59-5.87a61.5,61.5,0,0,1,9.17,9.08l-5.86-7.59a50.24,50.24,0,0,1,6.46,10.94l-3.78-9a48.9,48.9,0,0,1,2.76,10.36l-1.34-10c1.46,11.17,1.51,22.73,5.56,33.36a88.49,88.49,0,0,0,18.16,29.87c12.54,13.71,30.2,22.6,47.62,28.23,34,11,69.1,3.75,103.74,8.39l-10-1.34a98.93,98.93,0,0,1,22.46,5.86l-8.95-3.78a88.64,88.64,0,0,1,19,11.34l-7.59-5.86c15.91,12.39,30.83,25.87,48.6,35.65a250.62,250.62,0,0,0,54.2,21.84c35.46,9.72,73,12.51,109.65,12.52,19.61,0,39.2-.83,58.78-1.82,9.91-.5,19.37-3.84,26.52-11,6.5-6.51,11.4-17.18,11-26.52-.87-19.47-16.52-38.56-37.5-37.5Z"/><path class="cls-11" d="M842.84,623.2c19.62,0,38.41-17.25,37.5-37.5s-16.47-37.5-37.5-37.5c-19.61,0-38.4,17.24-37.5,37.5s16.48,37.5,37.5,37.5Z"/><path class="cls-11" d="M825,616c19.62,0,38.41-17.24,37.5-37.5S846,541,825,541c-19.61,0-38.4,17.25-37.5,37.5S803.94,616,825,616Z"/><path class="cls-11" d="M778.48,748.35c19.62,0,38.41-17.25,37.5-37.5s-16.48-37.5-37.5-37.5c-19.62,0-38.41,17.24-37.5,37.5s16.48,37.5,37.5,37.5Z"/><path class="cls-11" d="M778.35,775.18c8,34.06,38,64.07,72.65,70.48,10.09,1.86,19.78,1.55,28.9-3.79,7.78-4.55,15.2-13.47,17.23-22.41,2.19-9.6,1.72-20.37-3.78-28.89-5-7.81-12.92-15.48-22.41-17.24a60.21,60.21,0,0,1-12.18-3.6l9,3.78a64.16,64.16,0,0,1-13.33-7.94l7.59,5.86a67,67,0,0,1-10-10l5.86,7.59a63.43,63.43,0,0,1-7.93-13.33l3.78,9a62.23,62.23,0,0,1-3-9.42c-4.48-19.11-27.37-32.26-46.13-26.19-19.94,6.45-31,25.65-26.19,46.13Z"/><polygon class="cls-13" points="530.77 289.46 560.49 249.71 584.77 218.15 600.02 202.31 609.29 199.02 614.08 188.98 621.49 186.35 625.62 174.45 644.15 167.88 646.43 156.64 633.45 161.24 629.63 156.34 620.36 159.62 609.24 163.56 601.83 166.19 587.96 156.5 567.57 163.73 554.59 168.33 547.41 183.4 542.75 199.66 540.47 210.9 528.81 219.21 525.88 228.59 522.29 236.13 526.89 249.1 529.64 262.73 522.22 265.36 517.44 275.4 523.35 292.09 524.67 295.79 530.77 289.46"/><polygon class="cls-13" points="856.96 148.15 905.35 159.2 944.05 168.6 964.71 176.11 971.48 183.25 982.6 183.55 988 189.26 1000.55 188.22 1014.08 202.49 1025.27 200.01 1015.81 190.02 1018.74 184.53 1011.98 177.4 1003.86 168.83 998.45 163.12 1001.69 146.51 986.81 130.81 977.34 120.81 960.66 120.36 943.9 122.68 932.71 125.16 920.39 117.87 910.62 119 902.28 118.77 892.28 128.24 880.93 136.28 875.52 130.57 864.4 130.26 851.55 142.44 848.7 145.14 856.96 148.15"/><polygon class="cls-13" points="1093.63 288.52 1105.6 336.69 1114.67 375.47 1117.29 397.3 1113.97 406.56 1118.72 416.62 1116.06 424.02 1122.66 434.75 1116.02 453.26 1123.28 462.13 1127.93 449.17 1134.15 449.31 1137.47 440.06 1141.45 428.95 1144.11 421.55 1160.39 416.94 1167.69 396.58 1172.34 383.62 1165.22 368.53 1155.58 354.62 1148.32 345.75 1149.27 331.46 1143.85 323.25 1140.29 315.71 1127.34 311.06 1115.04 304.56 1117.7 297.15 1112.95 287.09 1096.29 281.12 1092.59 279.79 1093.63 288.52"/><polygon class="cls-14" points="193.04 95.58 188.01 93.82 183.71 96.96 183.83 91.64 179.51 88.52 184.62 86.99 186.25 81.92 189.28 86.3 194.61 86.29 191.38 90.52 193.04 95.58"/><polygon class="cls-14" points="174.67 190.77 165.56 187.58 157.77 193.27 157.99 183.62 150.17 177.97 159.42 175.2 162.38 166.01 167.87 173.95 177.52 173.93 171.66 181.6 174.67 190.77"/><polygon class="cls-14" points="406.04 339.29 401.01 337.52 396.71 340.66 396.83 335.34 392.51 332.22 397.62 330.69 399.25 325.62 402.28 330 407.61 329.99 404.38 334.22 406.04 339.29"/><polygon class="cls-14" points="230.04 308.29 225.01 306.52 220.71 309.66 220.83 304.34 216.51 301.22 221.62 299.69 223.25 294.62 226.28 299 231.61 298.99 228.38 303.22 230.04 308.29"/><polygon class="cls-14" points="1181.04 166.29 1176.01 164.52 1171.71 167.66 1171.83 162.34 1167.51 159.22 1172.62 157.69 1174.25 152.62 1177.28 157 1182.61 156.99 1179.38 161.22 1181.04 166.29"/><polygon class="cls-14" points="488.04 103.29 483.01 101.52 478.71 104.66 478.83 99.34 474.51 96.22 479.62 94.69 481.25 89.62 484.28 94 489.61 93.99 486.38 98.22 488.04 103.29"/><polygon class="cls-14" points="737.04 103.29 732.01 101.52 727.71 104.66 727.83 99.34 723.51 96.22 728.62 94.69 730.25 89.62 733.28 94 738.61 93.99 735.38 98.22 737.04 103.29"/><polygon class="cls-14" points="1393.04 208.29 1388.01 206.52 1383.71 209.66 1383.83 204.34 1379.51 201.22 1384.62 199.69 1386.25 194.62 1389.28 199 1394.61 198.99 1391.38 203.22 1393.04 208.29"/><polygon class="cls-14" points="1358.04 87.29 1353.01 85.52 1348.71 88.66 1348.83 83.34 1344.51 80.22 1349.62 78.69 1351.25 73.62 1354.28 78 1359.61 77.99 1356.38 82.22 1358.04 87.29"/><polygon class="cls-14" points="1256.04 346.29 1251.01 344.52 1246.71 347.66 1246.83 342.34 1242.51 339.22 1247.62 337.69 1249.25 332.62 1252.28 337 1257.61 336.99 1254.38 341.22 1256.04 346.29"/><polygon class="cls-14" points="1581.04 103.29 1576.01 101.52 1571.71 104.66 1571.83 99.34 1567.51 96.22 1572.62 94.69 1574.25 89.62 1577.28 94 1582.61 93.99 1579.38 98.22 1581.04 103.29"/><polygon class="cls-14" points="1573.04 262.29 1568.01 260.52 1563.71 263.66 1563.83 258.34 1559.51 255.22 1564.62 253.69 1566.25 248.62 1569.28 253 1574.61 252.99 1571.38 257.22 1573.04 262.29"/><polygon class="cls-14" points="1722.04 95.29 1717.01 93.52 1712.71 96.66 1712.83 91.34 1708.51 88.22 1713.62 86.69 1715.25 81.62 1718.28 86 1723.61 85.99 1720.38 90.22 1722.04 95.29"/><polygon class="cls-14" points="1869.04 131.29 1864.01 129.52 1859.71 132.66 1859.83 127.34 1855.51 124.22 1860.62 122.69 1862.25 117.62 1865.28 122 1870.61 121.99 1867.38 126.22 1869.04 131.29"/><polygon class="cls-14" points="222.04 468.29 217.01 466.52 212.71 469.66 212.83 464.34 208.51 461.22 213.62 459.69 215.25 454.62 218.28 459 223.61 458.99 220.38 463.22 222.04 468.29"/><path class="cls-15" d="M1255,108.36a6.24,6.24,0,1,1,6.24-6.24A6.25,6.25,0,0,1,1255,108.36Z"/><path d="M1255,96.38a5.74,5.74,0,1,1-5.74,5.74,5.74,5.74,0,0,1,5.74-5.74m0-1a6.74,6.74,0,1,0,6.74,6.74,6.74,6.74,0,0,0-6.74-6.74Z"/><ellipse class="cls-15" cx="1230" cy="72.27" rx="42.5" ry="32.77"/><path d="M1230,40c23.16,0,42,14.48,42,32.27s-18.84,32.27-42,32.27-42-14.47-42-32.27S1206.84,40,1230,40m0-1c-23.75,0-43,14.9-43,33.27s19.25,33.27,43,33.27,43-14.89,43-33.27S1253.75,39,1230,39Z"/><path class="cls-15" d="M1205.9,108.36a6.24,6.24,0,1,1,6.25-6.24A6.25,6.25,0,0,1,1205.9,108.36Z"/><path d="M1205.9,96.38a5.74,5.74,0,1,1-5.74,5.74,5.75,5.75,0,0,1,5.74-5.74m0-1a6.74,6.74,0,1,0,6.75,6.74,6.74,6.74,0,0,0-6.75-6.74Z"/><ellipse class="cls-16" cx="1251" cy="61.22" rx="7.52" ry="6.19"/><ellipse class="cls-17" cx="1247.35" cy="60.78" rx="0.61" ry="1.6"/><path d="M1247.35,60a2.63,2.63,0,0,1,.11.77,2.55,2.55,0,0,1-.11.76,3,3,0,0,1-.1-.76,3.07,3.07,0,0,1,.1-.77m0-1.33c-.61,0-1.1.94-1.1,2.1s.49,2.1,1.1,2.1,1.11-.94,1.11-2.1-.49-2.1-1.11-2.1Z"/><path class="cls-17" d="M1252.77,63.22a1.93,1.93,0,0,1-.27-1.12,1.61,1.61,0,0,1,.32-1.16,3.31,3.31,0,0,1,.22,1.16A1.93,1.93,0,0,1,1252.77,63.22Z"/><path d="M1252.77,60.44c-.43,0-.77.75-.77,1.66s.34,1.66.77,1.66.77-.74.77-1.66-.34-1.66-.77-1.66Z"/><path d="M1251,65.69c-3.07,0-5.58-2-5.58-4.58s2.51-4.59,5.58-4.59,5.58,2.06,5.58,4.59S1254.08,65.69,1251,65.69Z"/><path d="M1251,57c2.8,0,5.08,1.84,5.08,4.09s-2.28,4.08-5.08,4.08-5.08-1.83-5.08-4.08S1248.2,57,1251,57m0-1c-3.36,0-6.08,2.28-6.08,5.09s2.72,5.08,6.08,5.08,6.08-2.27,6.08-5.08S1254.36,56,1251,56Z"/><path class="cls-17" d="M1248.46,62.16c-.38,0-.83-.75-.83-1.72s.45-1.71.83-1.71.83.75.83,1.71S1248.84,62.16,1248.46,62.16Z"/><path d="M1248.46,59.28a2.22,2.22,0,1,1-.33,1.16,1.89,1.89,0,0,1,.33-1.16m0-1.05c-.73,0-1.33,1-1.33,2.21s.6,2.22,1.33,2.22,1.33-1,1.33-2.22-.6-2.21-1.33-2.21Z"/><path class="cls-17" d="M1252.77,62.38a1.16,1.16,0,1,1,1.16-1.16A1.16,1.16,0,0,1,1252.77,62.38Z"/><path d="M1252.77,60.56a.66.66,0,1,1-.66.66.67.67,0,0,1,.66-.66m0-1a1.66,1.66,0,1,0,1.66,1.66,1.66,1.66,0,0,0-1.66-1.66Z"/><ellipse class="cls-16" cx="1208.56" cy="61.22" rx="7.52" ry="6.19"/><ellipse class="cls-17" cx="1204.91" cy="60.78" rx="0.61" ry="1.6"/><path d="M1204.91,60a2.66,2.66,0,0,1,.1.77,2.59,2.59,0,0,1-.1.76,2.55,2.55,0,0,1-.11-.76,2.63,2.63,0,0,1,.11-.77m0-1.33c-.61,0-1.11.94-1.11,2.1s.5,2.1,1.11,2.1,1.1-.94,1.1-2.1-.49-2.1-1.1-2.1Z"/><path class="cls-17" d="M1210.32,63.22a2,2,0,0,1-.27-1.12,1.66,1.66,0,0,1,.32-1.16,3.18,3.18,0,0,1,.23,1.16A1.9,1.9,0,0,1,1210.32,63.22Z"/><path d="M1210.32,60.44c-.42,0-.77.75-.77,1.66s.35,1.66.77,1.66.78-.74.78-1.66-.35-1.66-.78-1.66Z"/><path d="M1208.56,65.69c-3.08,0-5.58-2-5.58-4.58s2.5-4.59,5.58-4.59,5.57,2.06,5.57,4.59S1211.63,65.69,1208.56,65.69Z"/><path d="M1208.56,57c2.8,0,5.08,1.84,5.08,4.09s-2.28,4.08-5.08,4.08-5.08-1.83-5.08-4.08,2.27-4.09,5.08-4.09m0-1c-3.36,0-6.08,2.28-6.08,5.09s2.72,5.08,6.08,5.08,6.08-2.27,6.08-5.08-2.73-5.09-6.08-5.09Z"/><ellipse class="cls-17" cx="1206.01" cy="60.44" rx="0.83" ry="1.71"/><path d="M1206,59.28a2.22,2.22,0,0,1,0,2.33,2.28,2.28,0,0,1,0-2.33m0-1.05c-.73,0-1.32,1-1.32,2.21s.59,2.22,1.32,2.22,1.33-1,1.33-2.22-.59-2.21-1.33-2.21Z"/><path class="cls-17" d="M1210.32,62.38a1.16,1.16,0,1,1,1.16-1.16A1.16,1.16,0,0,1,1210.32,62.38Z"/><path d="M1210.32,60.56a.66.66,0,1,1-.65.66.66.66,0,0,1,.65-.66m0-1a1.66,1.66,0,1,0,1.66,1.66,1.65,1.65,0,0,0-1.66-1.66Z"/><path class="cls-18" d="M1225.36,63.65c.15.41.76,4.31,2.87,5.09,2.38.87,5.65-2.09,7.3-4.87"/><path class="cls-15" d="M1353,108.36a6.24,6.24,0,1,1,6.24-6.24A6.25,6.25,0,0,1,1353,108.36Z"/><path d="M1353,96.38a5.74,5.74,0,1,1-5.74,5.74,5.74,5.74,0,0,1,5.74-5.74m0-1a6.74,6.74,0,1,0,6.74,6.74,6.74,6.74,0,0,0-6.74-6.74Z"/><ellipse class="cls-15" cx="1328" cy="72.27" rx="42.5" ry="32.77"/><path d="M1328,40c23.16,0,42,14.48,42,32.27s-18.84,32.27-42,32.27-42-14.47-42-32.27S1304.84,40,1328,40m0-1c-23.75,0-43,14.9-43,33.27s19.25,33.27,43,33.27,43-14.89,43-33.27S1351.75,39,1328,39Z"/><path class="cls-15" d="M1303.9,108.36a6.24,6.24,0,1,1,6.25-6.24A6.25,6.25,0,0,1,1303.9,108.36Z"/><path d="M1303.9,96.38a5.74,5.74,0,1,1-5.74,5.74,5.75,5.75,0,0,1,5.74-5.74m0-1a6.74,6.74,0,1,0,6.75,6.74,6.74,6.74,0,0,0-6.75-6.74Z"/><ellipse class="cls-16" cx="1349" cy="61.22" rx="7.52" ry="6.19"/><ellipse class="cls-17" cx="1345.35" cy="60.78" rx="0.61" ry="1.6"/><path d="M1345.35,60a2.63,2.63,0,0,1,.11.77,2.55,2.55,0,0,1-.11.76,3,3,0,0,1-.1-.76,3.07,3.07,0,0,1,.1-.77m0-1.33c-.61,0-1.1.94-1.1,2.1s.49,2.1,1.1,2.1,1.11-.94,1.11-2.1-.49-2.1-1.11-2.1Z"/><path class="cls-17" d="M1350.77,63.22a1.93,1.93,0,0,1-.27-1.12,1.61,1.61,0,0,1,.32-1.16,3.31,3.31,0,0,1,.22,1.16A1.93,1.93,0,0,1,1350.77,63.22Z"/><path d="M1350.77,60.44c-.43,0-.77.75-.77,1.66s.34,1.66.77,1.66.77-.74.77-1.66-.34-1.66-.77-1.66Z"/><path d="M1349,65.69c-3.07,0-5.58-2-5.58-4.58s2.51-4.59,5.58-4.59,5.58,2.06,5.58,4.59S1352.08,65.69,1349,65.69Z"/><path d="M1349,57c2.8,0,5.08,1.84,5.08,4.09s-2.28,4.08-5.08,4.08-5.08-1.83-5.08-4.08S1346.2,57,1349,57m0-1c-3.36,0-6.08,2.28-6.08,5.09s2.72,5.08,6.08,5.08,6.08-2.27,6.08-5.08S1352.36,56,1349,56Z"/><path class="cls-17" d="M1346.46,62.16c-.38,0-.83-.75-.83-1.72s.45-1.71.83-1.71.83.75.83,1.71S1346.84,62.16,1346.46,62.16Z"/><path d="M1346.46,59.28a2.22,2.22,0,1,1-.33,1.16,1.89,1.89,0,0,1,.33-1.16m0-1.05c-.73,0-1.33,1-1.33,2.21s.6,2.22,1.33,2.22,1.33-1,1.33-2.22-.6-2.21-1.33-2.21Z"/><path class="cls-17" d="M1350.77,62.38a1.16,1.16,0,1,1,1.16-1.16A1.16,1.16,0,0,1,1350.77,62.38Z"/><path d="M1350.77,60.56a.66.66,0,1,1-.66.66.67.67,0,0,1,.66-.66m0-1a1.66,1.66,0,1,0,1.66,1.66,1.66,1.66,0,0,0-1.66-1.66Z"/><ellipse class="cls-16" cx="1306.56" cy="61.22" rx="7.52" ry="6.19"/><ellipse class="cls-17" cx="1302.91" cy="60.78" rx="0.61" ry="1.6"/><path d="M1302.91,60a2.66,2.66,0,0,1,.1.77,2.59,2.59,0,0,1-.1.76,2.55,2.55,0,0,1-.11-.76,2.63,2.63,0,0,1,.11-.77m0-1.33c-.61,0-1.11.94-1.11,2.1s.5,2.1,1.11,2.1,1.1-.94,1.1-2.1-.49-2.1-1.1-2.1Z"/><path class="cls-17" d="M1308.32,63.22a2,2,0,0,1-.27-1.12,1.66,1.66,0,0,1,.32-1.16,3.18,3.18,0,0,1,.23,1.16A1.9,1.9,0,0,1,1308.32,63.22Z"/><path d="M1308.32,60.44c-.42,0-.77.75-.77,1.66s.35,1.66.77,1.66.78-.74.78-1.66-.35-1.66-.78-1.66Z"/><path d="M1306.56,65.69c-3.08,0-5.58-2-5.58-4.58s2.5-4.59,5.58-4.59,5.57,2.06,5.57,4.59S1309.63,65.69,1306.56,65.69Z"/><path d="M1306.56,57c2.8,0,5.08,1.84,5.08,4.09s-2.28,4.08-5.08,4.08-5.08-1.83-5.08-4.08,2.27-4.09,5.08-4.09m0-1c-3.36,0-6.08,2.28-6.08,5.09s2.72,5.08,6.08,5.08,6.08-2.27,6.08-5.08-2.73-5.09-6.08-5.09Z"/><ellipse class="cls-17" cx="1304.01" cy="60.44" rx="0.83" ry="1.71"/><path d="M1304,59.28a2.22,2.22,0,0,1,0,2.33,2.28,2.28,0,0,1,0-2.33m0-1.05c-.73,0-1.32,1-1.32,2.21s.59,2.22,1.32,2.22,1.33-1,1.33-2.22-.59-2.21-1.33-2.21Z"/><path class="cls-17" d="M1308.32,62.38a1.16,1.16,0,1,1,1.16-1.16A1.16,1.16,0,0,1,1308.32,62.38Z"/><path d="M1308.32,60.56a.66.66,0,1,1-.65.66.66.66,0,0,1,.65-.66m0-1a1.66,1.66,0,1,0,1.66,1.66,1.65,1.65,0,0,0-1.66-1.66Z"/><path class="cls-18" d="M1323.36,63.65c.15.41.76,4.31,2.87,5.09,2.38.87,5.65-2.09,7.3-4.87"/><path class="cls-15" d="M1449,108.36a6.24,6.24,0,1,1,6.24-6.24A6.25,6.25,0,0,1,1449,108.36Z"/><path d="M1449,96.38a5.74,5.74,0,1,1-5.74,5.74,5.74,5.74,0,0,1,5.74-5.74m0-1a6.74,6.74,0,1,0,6.74,6.74,6.74,6.74,0,0,0-6.74-6.74Z"/><ellipse class="cls-15" cx="1424" cy="72.27" rx="42.5" ry="32.77"/><path d="M1424,40c23.16,0,42,14.48,42,32.27s-18.84,32.27-42,32.27-42-14.47-42-32.27S1400.84,40,1424,40m0-1c-23.75,0-43,14.9-43,33.27s19.25,33.27,43,33.27,43-14.89,43-33.27S1447.75,39,1424,39Z"/><path class="cls-15" d="M1399.9,108.36a6.24,6.24,0,1,1,6.25-6.24A6.25,6.25,0,0,1,1399.9,108.36Z"/><path d="M1399.9,96.38a5.74,5.74,0,1,1-5.74,5.74,5.75,5.75,0,0,1,5.74-5.74m0-1a6.74,6.74,0,1,0,6.75,6.74,6.74,6.74,0,0,0-6.75-6.74Z"/><ellipse class="cls-16" cx="1445" cy="61.22" rx="7.52" ry="6.19"/><ellipse class="cls-17" cx="1441.35" cy="60.78" rx="0.61" ry="1.6"/><path d="M1441.35,60a2.63,2.63,0,0,1,.11.77,2.55,2.55,0,0,1-.11.76,3,3,0,0,1-.1-.76,3.07,3.07,0,0,1,.1-.77m0-1.33c-.61,0-1.1.94-1.1,2.1s.49,2.1,1.1,2.1,1.11-.94,1.11-2.1-.49-2.1-1.11-2.1Z"/><path class="cls-17" d="M1446.77,63.22a1.93,1.93,0,0,1-.27-1.12,1.61,1.61,0,0,1,.32-1.16,3.31,3.31,0,0,1,.22,1.16A1.93,1.93,0,0,1,1446.77,63.22Z"/><path d="M1446.77,60.44c-.43,0-.77.75-.77,1.66s.34,1.66.77,1.66.77-.74.77-1.66-.34-1.66-.77-1.66Z"/><path d="M1445,65.69c-3.07,0-5.58-2-5.58-4.58s2.51-4.59,5.58-4.59,5.58,2.06,5.58,4.59S1448.08,65.69,1445,65.69Z"/><path d="M1445,57c2.8,0,5.08,1.84,5.08,4.09s-2.28,4.08-5.08,4.08-5.08-1.83-5.08-4.08S1442.2,57,1445,57m0-1c-3.36,0-6.08,2.28-6.08,5.09s2.72,5.08,6.08,5.08,6.08-2.27,6.08-5.08S1448.36,56,1445,56Z"/><path class="cls-17" d="M1442.46,62.16c-.38,0-.83-.75-.83-1.72s.45-1.71.83-1.71.83.75.83,1.71S1442.84,62.16,1442.46,62.16Z"/><path d="M1442.46,59.28a2.22,2.22,0,1,1-.33,1.16,1.89,1.89,0,0,1,.33-1.16m0-1.05c-.73,0-1.33,1-1.33,2.21s.6,2.22,1.33,2.22,1.33-1,1.33-2.22-.6-2.21-1.33-2.21Z"/><path class="cls-17" d="M1446.77,62.38a1.16,1.16,0,1,1,1.16-1.16A1.16,1.16,0,0,1,1446.77,62.38Z"/><path d="M1446.77,60.56a.66.66,0,1,1-.66.66.67.67,0,0,1,.66-.66m0-1a1.66,1.66,0,1,0,1.66,1.66,1.66,1.66,0,0,0-1.66-1.66Z"/><ellipse class="cls-16" cx="1402.56" cy="61.22" rx="7.52" ry="6.19"/><ellipse class="cls-17" cx="1398.91" cy="60.78" rx="0.61" ry="1.6"/><path d="M1398.91,60a2.66,2.66,0,0,1,.1.77,2.59,2.59,0,0,1-.1.76,2.55,2.55,0,0,1-.11-.76,2.63,2.63,0,0,1,.11-.77m0-1.33c-.61,0-1.11.94-1.11,2.1s.5,2.1,1.11,2.1,1.1-.94,1.1-2.1-.49-2.1-1.1-2.1Z"/><path class="cls-17" d="M1404.32,63.22a2,2,0,0,1-.27-1.12,1.66,1.66,0,0,1,.32-1.16,3.18,3.18,0,0,1,.23,1.16A1.9,1.9,0,0,1,1404.32,63.22Z"/><path d="M1404.32,60.44c-.42,0-.77.75-.77,1.66s.35,1.66.77,1.66.78-.74.78-1.66-.35-1.66-.78-1.66Z"/><path d="M1402.56,65.69c-3.08,0-5.58-2-5.58-4.58s2.5-4.59,5.58-4.59,5.57,2.06,5.57,4.59S1405.63,65.69,1402.56,65.69Z"/><path d="M1402.56,57c2.8,0,5.08,1.84,5.08,4.09s-2.28,4.08-5.08,4.08-5.08-1.83-5.08-4.08,2.27-4.09,5.08-4.09m0-1c-3.36,0-6.08,2.28-6.08,5.09s2.72,5.08,6.08,5.08,6.08-2.27,6.08-5.08-2.73-5.09-6.08-5.09Z"/><ellipse class="cls-17" cx="1400.01" cy="60.44" rx="0.83" ry="1.71"/><path d="M1400,59.28a2.22,2.22,0,0,1,0,2.33,2.28,2.28,0,0,1,0-2.33m0-1.05c-.73,0-1.32,1-1.32,2.21s.59,2.22,1.32,2.22,1.33-1,1.33-2.22-.59-2.21-1.33-2.21Z"/><path class="cls-17" d="M1404.32,62.38a1.16,1.16,0,1,1,1.16-1.16A1.16,1.16,0,0,1,1404.32,62.38Z"/><path d="M1404.32,60.56a.66.66,0,1,1-.65.66.66.66,0,0,1,.65-.66m0-1a1.66,1.66,0,1,0,1.66,1.66,1.65,1.65,0,0,0-1.66-1.66Z"/><path class="cls-18" d="M1419.36,63.65c.15.41.76,4.31,2.87,5.09,2.38.87,5.65-2.09,7.3-4.87"/></svg>
