<svg id="Layer_1" data-name="Layer 1" xmlns="http://www.w3.org/2000/svg" width="458" height="405" viewBox="0 0 458 405"><defs><style>.cls-1{fill:#b0f25a;}.cls-2{fill:#fff;}</style></defs><title>sødalien</title><ellipse class="cls-1" cx="342.79" cy="338.11" rx="30.58" ry="30.89"/><ellipse class="cls-1" cx="229.5" cy="201.41" rx="195" ry="152.41"/><ellipse class="cls-1" cx="120.22" cy="338.11" rx="30.58" ry="30.89"/><ellipse class="cls-2" cx="324.74" cy="150.77" rx="34.09" ry="28.35"/><path class="cls-2" d="M308.2,157.87c-2.44,0-4.51-4.18-4.51-9.12s2.07-9.12,4.51-9.12,4.51,4.17,4.51,9.12S310.65,157.87,308.2,157.87Z"/><path d="M308.2,140.13c1.9,0,4,3.54,4,8.62s-2.11,8.62-4,8.62-4-3.54-4-8.62,2.11-8.62,4-8.62m0-1c-2.77,0-5,4.3-5,9.62s2.24,9.62,5,9.62,5-4.31,5-9.62-2.24-9.62-5-9.62Z"/><ellipse class="cls-2" cx="332.76" cy="154.82" rx="3.01" ry="7.09"/><path d="M332.76,148.23c1,0,2.51,2.57,2.51,6.59s-1.48,6.6-2.51,6.6-2.5-2.57-2.5-6.6,1.48-6.59,2.5-6.59m0-1c-1.93,0-3.5,3.4-3.5,7.59s1.57,7.6,3.5,7.6,3.51-3.4,3.51-7.6-1.57-7.59-3.51-7.59Z"/><path d="M324.74,173.06c-14.92,0-27.07-10.23-27.07-22.79s12.15-22.8,27.07-22.8,27.07,10.23,27.07,22.8S339.67,173.06,324.74,173.06Z"/><path d="M324.74,128c14.66,0,26.57,10,26.57,22.3s-11.91,22.29-26.57,22.29-26.57-10-26.57-22.29S310.09,128,324.74,128m0-1c-15.22,0-27.57,10.43-27.57,23.3s12.35,23.29,27.57,23.29,27.57-10.43,27.57-23.29S340,127,324.74,127Z"/><path class="cls-2" d="M313.21,156.85c-3,0-5.51-4.31-5.51-9.62s2.47-9.63,5.51-9.63,5.52,4.32,5.52,9.63S316.26,156.85,313.21,156.85Z"/><path d="M313.21,138.1c2.72,0,5,4.18,5,9.13s-2.3,9.12-5,9.12-5-4.18-5-9.12,2.3-9.13,5-9.13m0-1c-3.32,0-6,4.54-6,10.13s2.69,10.12,6,10.12,6-4.53,6-10.12-2.69-10.13-6-10.13Z"/><path class="cls-2" d="M332.76,157.87a7.1,7.1,0,1,1,7-7.1A7.06,7.06,0,0,1,332.76,157.87Z"/><path d="M332.76,144.18a6.6,6.6,0,1,1-6.51,6.59,6.56,6.56,0,0,1,6.51-6.59m0-1a7.6,7.6,0,1,0,7.52,7.59,7.55,7.55,0,0,0-7.52-7.59Z"/><ellipse class="cls-2" cx="132.25" cy="150.77" rx="34.09" ry="28.35"/><path class="cls-2" d="M115.71,157.87c-2.45,0-4.51-4.18-4.51-9.12s2.06-9.12,4.51-9.12,4.51,4.17,4.51,9.12S118.15,157.87,115.71,157.87Z"/><path d="M115.71,140.13c1.9,0,4,3.54,4,8.62s-2.11,8.62-4,8.62-4-3.54-4-8.62,2.11-8.62,4-8.62m0-1c-2.77,0-5,4.3-5,9.62s2.24,9.62,5,9.62,5-4.31,5-9.62-2.24-9.62-5-9.62Z"/><ellipse class="cls-2" cx="140.27" cy="154.82" rx="3.01" ry="7.09"/><path d="M140.27,148.23c1,0,2.51,2.57,2.51,6.59s-1.49,6.6-2.51,6.6-2.51-2.57-2.51-6.6,1.49-6.59,2.51-6.59m0-1c-1.94,0-3.51,3.4-3.51,7.59s1.57,7.6,3.51,7.6,3.51-3.4,3.51-7.6-1.57-7.59-3.51-7.59Z"/><path d="M132.25,173.06c-14.93,0-27.07-10.23-27.07-22.79s12.14-22.8,27.07-22.8,27.07,10.23,27.07,22.8S147.18,173.06,132.25,173.06Z"/><path d="M132.25,128c14.65,0,26.57,10,26.57,22.3s-11.92,22.29-26.57,22.29-26.57-10-26.57-22.29S117.6,128,132.25,128m0-1c-15.23,0-27.57,10.43-27.57,23.3s12.34,23.29,27.57,23.29,27.57-10.43,27.57-23.29S147.48,127,132.25,127Z"/><path class="cls-2" d="M120.72,156.85c-3,0-5.51-4.31-5.51-9.62s2.47-9.63,5.51-9.63,5.52,4.32,5.52,9.63S123.76,156.85,120.72,156.85Z"/><path d="M120.72,138.1c2.72,0,5,4.18,5,9.13s-2.3,9.12-5,9.12-5-4.18-5-9.12,2.29-9.13,5-9.13m0-1c-3.32,0-6,4.54-6,10.13s2.69,10.12,6,10.12,6-4.53,6-10.12-2.7-10.13-6-10.13Z"/><path class="cls-2" d="M140.27,157.87a7.1,7.1,0,1,1,7-7.1A7.07,7.07,0,0,1,140.27,157.87Z"/><path d="M140.27,144.18a6.6,6.6,0,1,1-6.52,6.59,6.56,6.56,0,0,1,6.52-6.59m0-1a7.6,7.6,0,1,0,7.52,7.59,7.56,7.56,0,0,0-7.52-7.59Z"/><path d="M262.08,165.46c0,17.89-17,32.4-38.09,32.4s-38.1-14.51-38.1-32.4S203,188.75,224,188.75,262.08,147.56,262.08,165.46Z"/></svg>
