<svg id="Layer_1" data-name="Layer 1" xmlns="http://www.w3.org/2000/svg" width="266" height="82" viewBox="0 0 266 82"><defs><style>.cls-1{fill:blue;stroke:#fff;stroke-miterlimit:10;stroke-width:10px;}.cls-2{fill:#ed1c24;}</style></defs><title>tid</title><polygon class="cls-1" points="247.49 82.42 8 82.42 20.63 11.44 260.13 11.44 247.49 82.42"/><path class="cls-2" d="M50.81,25.81H86V69.33H50.81Zm10,10v12l12-12ZM75.93,48.57,65.19,59.34H76Z"/><path class="cls-2" d="M91.94,25.81h35.14V69.33H91.94Zm10,10v12l12-12Zm15.13,12.77L106.32,59.34h10.77Z"/><path class="cls-2" d="M133.06,34.76h8.67v8.67h-8.67Zm0,26h8.67v8.66h-8.67Z"/><path class="cls-2" d="M147.76,25.81h35.15V52.55H157.76v6.79h25.15v10H147.76V42.59h25.16V35.8H147.76Z"/><path class="cls-2" d="M189,25.81h18.37V69.33h-10V35.8H189Z"/></svg>
