<svg id="Layer_1" data-name="Layer 1" xmlns="http://www.w3.org/2000/svg" width="1714" height="1300" viewBox="0 0 1714 1300"><defs><style>.cls-1{fill:#c1272d;}.cls-2{fill:#b3b3b3;}.cls-3{fill:#ff0;stroke:#ff0;stroke-miterlimit:10;}</style></defs><title>winner</title><rect class="cls-1" x="275" y="146" width="1245" height="744"/><rect class="cls-2" x="256" y="120" width="19" height="953"/><polygon class="cls-3" points="440 405 395 365 465 297 532 308 537 308 498 347 613 458 623.5 437.5 631.5 402.5 631.5 369.5 615.5 332.5 595.5 304.5 554.5 263.5 532.5 248.5 552.5 253.5 586.5 267.5 615.5 284.5 647.5 314.5 669.5 349.5 676.5 376.5 676.5 409.5 672.5 438.5 663.5 465.5 647.5 491.5 695.5 540.5 698.5 555.5 690.5 566.5 680.5 569.5 669.5 569.5 616.5 517.5 602.5 525.5 577.5 532.5 539.5 535.5 508.5 528.5 478.5 510.5 453.5 485.5 447.5 494.5 454.5 502.5 456.5 508.5 453.5 515.5 446.5 516.5 437.5 508.5 417.5 531.5 394.5 554.5 378.5 555.5 369.5 548.5 365.5 540.5 370.5 522.5 387.5 507.5 415.5 484.5 409.5 479.5 408.5 469.5 413.5 463.5 419.5 465.5 425.5 470.5 427.5 474.5 447.5 457.5 451.5 456.5 469.5 456.5 480.5 469.5 500.5 481.5 526.5 491.5 554.5 490.5 580.5 482.5 584.5 480.5 471.5 373.5 440 405"/><polygon class="cls-3" points="491.11 264.62 454.87 245.03 418.19 263.77 425.62 223.25 396.46 194.15 437.29 188.7 455.95 151.97 473.76 189.13 514.45 195.52 484.62 223.94 491.11 264.62"/><path d="M805.18,245.61H861v15.88H821.16l-.09,37.41h40v15.88H805.18Z"/><path d="M870.31,245.61h55.86v69.17H870.31Zm15.89,15.88,0,37.41h24V261.49Z"/><path d="M991.21,314.78H975.33V277.19l-24.1,24.28v13.31H935.35V245.61h15.88v31.25l24.1-24.28v-7h15.88Z"/><path d="M1000.53,245.61h55.86v15.88h-40V298.9h24.1V272.27h15.88v42.51h-55.86Z"/><path d="M1121.42,314.78h-15.88V290.5l-24.09,24.28h-15.88v-9.5l17.12-17.17h-17.12v-42.5h55.85Zm-40-53.29v10.78h24.09V261.49Z"/><path d="M1130.74,245.61h55.86v69.17h-15.88V301.47h-24.1v13.31h-15.88Zm15.88,15.88v24.09h24.1V261.49Z"/><path d="M1195.87,245.61h55.86v15.88H1232v53.29h-15.83V261.49h-20.34Z"/><path d="M1261.42,245.61h55.85v22.85l-36.81,30.44h36.81v15.88h-55.85V291.92l36.81-30.43h-36.81Z"/><path d="M805.18,358.41H861v15.88H821.16l-.09,37.41h40v15.88H805.18Z"/><path d="M870.31,358.41h55.86v69.17H870.31Zm15.89,15.88,0,37.41h24V374.29Z"/><path d="M935.26,358.41h10.33L963.35,376,981,358.41h10.14v69.17H975.24V390.77l-10.15,10.14h-3.8l-10.15-10.14v36.81H935.26Z"/><path d="M1056.34,427.58h-15.88V403.3l-24.1,24.28h-15.88v-9.5l17.12-17.17h-17.12v-42.5h55.86Zm-40-53.29v10.78h24.1V374.29Z"/><path d="M1065.66,358.41h55.86v69.17h-15.88V414.27h-24.1v13.31h-15.88Zm15.88,15.88v24.09h24.1V374.29Z"/><path d="M1130.93,358.41h43.14l12.71,12.71v43.74l-12.71,12.72h-43.14Zm15.88,15.88V411.7h24.09V374.29Z"/><path d="M1252.05,427.58h-55.86V411.7h39.43l-.09-10.79h-26V385.07h26.67V374.29h-40V358.41h55.86Z"/><path d="M867.92,501h55.86v42.5h-40v26.67H867.92Zm15.88,15.88v10.79h24.1V516.86Z"/><path d="M933.24,501h55.85v69.17H933.24Zm15.88,15.88,0,37.41h24.05V516.86Z"/><path d="M998.32,501h15.88v69.26H998.32Z"/><path d="M1080.39,570.15h-15.88V532.56l-24.1,24.28v13.31h-15.88V501h15.88v31.26l24.1-24.28v-7h15.88Z"/><path d="M1089.57,501h55.85v15.88h-19.69v53.29H1109.9V516.86h-20.33Z"/><path d="M1155.11,515.21h13.77V529h-13.77Zm0,41.31h13.77v13.77h-13.77Z"/></svg>
